<mxfile host="app.diagrams.net" modified="2021-06-11T19:18:58.108Z" agent="5.0 (Windows NT 10.0; Win64; x64) AppleWebKit/537.36 (KHTML, like Gecko) Chrome/91.0.4472.77 Safari/537.36" etag="k8X6vDdYTQy266ZkG2m3" version="14.7.7" type="github" pages="9">
  <diagram id="8tz35Vwes354LEe-AOa3" name="Page-1">
    <mxGraphModel dx="1038" dy="556" grid="1" gridSize="10" guides="1" tooltips="1" connect="1" arrows="1" fold="1" page="1" pageScale="1" pageWidth="850" pageHeight="1100" math="0" shadow="0">
      <root>
        <mxCell id="0" />
        <mxCell id="1" parent="0" />
        <mxCell id="MLQZVTFxdCjyArdMDcbv-1" value="&lt;font style=&quot;font-size: 24px&quot;&gt;basic auth&lt;/font&gt;" style="swimlane;html=1;startSize=20;horizontal=1;containerType=tree;" parent="1" vertex="1">
          <mxGeometry x="120" y="50" width="1290" height="650" as="geometry" />
        </mxCell>
        <mxCell id="MLQZVTFxdCjyArdMDcbv-3" value="&lt;font style=&quot;font-size: 24px&quot;&gt;index.js&lt;/font&gt;" style="whiteSpace=wrap;html=1;treeFolding=1;treeMoving=1;newEdgeStyle={&quot;edgeStyle&quot;:&quot;elbowEdgeStyle&quot;,&quot;startArrow&quot;:&quot;none&quot;,&quot;endArrow&quot;:&quot;none&quot;};" parent="MLQZVTFxdCjyArdMDcbv-1" vertex="1">
          <mxGeometry x="120" y="150" width="120" height="40" as="geometry" />
        </mxCell>
        <mxCell id="MLQZVTFxdCjyArdMDcbv-6" value="&lt;span style=&quot;font-size: 24px&quot;&gt;src&lt;/span&gt;" style="whiteSpace=wrap;html=1;treeFolding=1;treeMoving=1;newEdgeStyle={&quot;edgeStyle&quot;:&quot;elbowEdgeStyle&quot;,&quot;startArrow&quot;:&quot;none&quot;,&quot;endArrow&quot;:&quot;none&quot;};" parent="MLQZVTFxdCjyArdMDcbv-1" vertex="1">
          <mxGeometry x="537.5" y="150" width="120" height="40" as="geometry" />
        </mxCell>
        <mxCell id="MLQZVTFxdCjyArdMDcbv-9" value="" style="edgeStyle=elbowEdgeStyle;rounded=0;orthogonalLoop=1;jettySize=auto;html=1;elbow=vertical;startArrow=none;endArrow=none;" parent="MLQZVTFxdCjyArdMDcbv-1" source="MLQZVTFxdCjyArdMDcbv-6" target="MLQZVTFxdCjyArdMDcbv-10" edge="1">
          <mxGeometry relative="1" as="geometry" />
        </mxCell>
        <mxCell id="MLQZVTFxdCjyArdMDcbv-32" style="edgeStyle=orthogonalEdgeStyle;rounded=0;orthogonalLoop=1;jettySize=auto;html=1;exitX=1;exitY=0.5;exitDx=0;exitDy=0;entryX=0;entryY=0.5;entryDx=0;entryDy=0;" parent="MLQZVTFxdCjyArdMDcbv-1" source="MLQZVTFxdCjyArdMDcbv-10" target="MLQZVTFxdCjyArdMDcbv-26" edge="1">
          <mxGeometry relative="1" as="geometry" />
        </mxCell>
        <mxCell id="MLQZVTFxdCjyArdMDcbv-10" value="&lt;span style=&quot;font-size: 24px&quot;&gt;auth&lt;/span&gt;" style="whiteSpace=wrap;html=1;treeFolding=1;treeMoving=1;newEdgeStyle={&quot;edgeStyle&quot;:&quot;elbowEdgeStyle&quot;,&quot;startArrow&quot;:&quot;none&quot;,&quot;endArrow&quot;:&quot;none&quot;};" parent="MLQZVTFxdCjyArdMDcbv-1" vertex="1">
          <mxGeometry x="537.5" y="230" width="120" height="40" as="geometry" />
        </mxCell>
        <mxCell id="MLQZVTFxdCjyArdMDcbv-17" value="" style="edgeStyle=elbowEdgeStyle;rounded=0;orthogonalLoop=1;jettySize=auto;html=1;elbow=vertical;startArrow=none;endArrow=none;" parent="MLQZVTFxdCjyArdMDcbv-1" source="MLQZVTFxdCjyArdMDcbv-10" target="MLQZVTFxdCjyArdMDcbv-18" edge="1">
          <mxGeometry relative="1" as="geometry">
            <mxPoint x="617.5" y="230" as="sourcePoint" />
          </mxGeometry>
        </mxCell>
        <mxCell id="MLQZVTFxdCjyArdMDcbv-41" style="edgeStyle=orthogonalEdgeStyle;rounded=0;orthogonalLoop=1;jettySize=auto;html=1;exitX=0;exitY=0.5;exitDx=0;exitDy=0;entryX=1;entryY=0.5;entryDx=0;entryDy=0;" parent="MLQZVTFxdCjyArdMDcbv-1" source="MLQZVTFxdCjyArdMDcbv-18" target="MLQZVTFxdCjyArdMDcbv-37" edge="1">
          <mxGeometry relative="1" as="geometry" />
        </mxCell>
        <mxCell id="MLQZVTFxdCjyArdMDcbv-18" value="&lt;span style=&quot;font-size: 24px&quot;&gt;middleware&lt;/span&gt;" style="whiteSpace=wrap;html=1;treeFolding=1;treeMoving=1;newEdgeStyle={&quot;edgeStyle&quot;:&quot;elbowEdgeStyle&quot;,&quot;startArrow&quot;:&quot;none&quot;,&quot;endArrow&quot;:&quot;none&quot;};" parent="MLQZVTFxdCjyArdMDcbv-1" vertex="1">
          <mxGeometry x="530" y="310" width="135" height="40" as="geometry" />
        </mxCell>
        <mxCell id="MLQZVTFxdCjyArdMDcbv-19" value="" style="edgeStyle=elbowEdgeStyle;rounded=0;orthogonalLoop=1;jettySize=auto;html=1;elbow=vertical;startArrow=none;endArrow=none;" parent="MLQZVTFxdCjyArdMDcbv-1" source="MLQZVTFxdCjyArdMDcbv-18" target="MLQZVTFxdCjyArdMDcbv-20" edge="1">
          <mxGeometry relative="1" as="geometry">
            <mxPoint x="617.5" y="310" as="sourcePoint" />
          </mxGeometry>
        </mxCell>
        <mxCell id="MLQZVTFxdCjyArdMDcbv-68" style="edgeStyle=orthogonalEdgeStyle;rounded=0;orthogonalLoop=1;jettySize=auto;html=1;exitX=0.25;exitY=1;exitDx=0;exitDy=0;entryX=0.418;entryY=1.029;entryDx=0;entryDy=0;entryPerimeter=0;fillColor=#ffe6cc;strokeColor=#d79b00;strokeWidth=3;" parent="MLQZVTFxdCjyArdMDcbv-1" source="MLQZVTFxdCjyArdMDcbv-20" target="MLQZVTFxdCjyArdMDcbv-3" edge="1">
          <mxGeometry relative="1" as="geometry">
            <Array as="points">
              <mxPoint x="598" y="430" />
              <mxPoint x="598" y="640" />
              <mxPoint x="170" y="640" />
            </Array>
          </mxGeometry>
        </mxCell>
        <mxCell id="MLQZVTFxdCjyArdMDcbv-20" value="&lt;span style=&quot;font-size: 24px&quot;&gt;server.js&lt;/span&gt;" style="whiteSpace=wrap;html=1;treeFolding=1;treeMoving=1;newEdgeStyle={&quot;edgeStyle&quot;:&quot;elbowEdgeStyle&quot;,&quot;startArrow&quot;:&quot;none&quot;,&quot;endArrow&quot;:&quot;none&quot;};" parent="MLQZVTFxdCjyArdMDcbv-1" vertex="1">
          <mxGeometry x="530" y="390" width="135" height="40" as="geometry" />
        </mxCell>
        <mxCell id="MLQZVTFxdCjyArdMDcbv-26" value="&lt;span style=&quot;font-size: 24px&quot;&gt;middleware&lt;/span&gt;" style="whiteSpace=wrap;html=1;treeFolding=1;treeMoving=1;newEdgeStyle={&quot;edgeStyle&quot;:&quot;elbowEdgeStyle&quot;,&quot;startArrow&quot;:&quot;none&quot;,&quot;endArrow&quot;:&quot;none&quot;};" parent="MLQZVTFxdCjyArdMDcbv-1" vertex="1">
          <mxGeometry x="790" y="230" width="130" height="40" as="geometry" />
        </mxCell>
        <mxCell id="MLQZVTFxdCjyArdMDcbv-72" style="edgeStyle=orthogonalEdgeStyle;rounded=0;orthogonalLoop=1;jettySize=auto;html=1;exitX=1;exitY=0.25;exitDx=0;exitDy=0;entryX=0;entryY=0.25;entryDx=0;entryDy=0;strokeWidth=3;fillColor=#e1d5e7;strokeColor=#9673a6;" parent="MLQZVTFxdCjyArdMDcbv-1" source="MLQZVTFxdCjyArdMDcbv-37" target="MLQZVTFxdCjyArdMDcbv-20" edge="1">
          <mxGeometry relative="1" as="geometry">
            <Array as="points">
              <mxPoint x="490" y="320" />
              <mxPoint x="490" y="400" />
            </Array>
          </mxGeometry>
        </mxCell>
        <mxCell id="MLQZVTFxdCjyArdMDcbv-37" value="&lt;span style=&quot;font-size: 24px&quot;&gt;404.js&lt;/span&gt;" style="whiteSpace=wrap;html=1;treeFolding=1;treeMoving=1;newEdgeStyle={&quot;edgeStyle&quot;:&quot;elbowEdgeStyle&quot;,&quot;startArrow&quot;:&quot;none&quot;,&quot;endArrow&quot;:&quot;none&quot;};" parent="MLQZVTFxdCjyArdMDcbv-1" vertex="1">
          <mxGeometry x="285" y="310" width="120" height="40" as="geometry" />
        </mxCell>
        <mxCell id="MLQZVTFxdCjyArdMDcbv-42" style="edgeStyle=orthogonalEdgeStyle;rounded=0;orthogonalLoop=1;jettySize=auto;html=1;exitX=0;exitY=0.5;exitDx=0;exitDy=0;entryX=1;entryY=0.5;entryDx=0;entryDy=0;" parent="MLQZVTFxdCjyArdMDcbv-1" source="MLQZVTFxdCjyArdMDcbv-18" target="MLQZVTFxdCjyArdMDcbv-43" edge="1">
          <mxGeometry relative="1" as="geometry">
            <mxPoint x="550" y="370" as="sourcePoint" />
          </mxGeometry>
        </mxCell>
        <mxCell id="MLQZVTFxdCjyArdMDcbv-71" style="edgeStyle=orthogonalEdgeStyle;rounded=0;orthogonalLoop=1;jettySize=auto;html=1;exitX=1;exitY=0.75;exitDx=0;exitDy=0;strokeWidth=3;fillColor=#d5e8d4;strokeColor=#82b366;" parent="MLQZVTFxdCjyArdMDcbv-1" source="MLQZVTFxdCjyArdMDcbv-43" edge="1">
          <mxGeometry relative="1" as="geometry">
            <mxPoint x="550" y="420" as="targetPoint" />
            <Array as="points">
              <mxPoint x="450" y="390" />
              <mxPoint x="450" y="460" />
              <mxPoint x="550" y="460" />
            </Array>
          </mxGeometry>
        </mxCell>
        <mxCell id="MLQZVTFxdCjyArdMDcbv-43" value="&lt;span style=&quot;font-size: 24px&quot;&gt;500.js&lt;/span&gt;" style="whiteSpace=wrap;html=1;treeFolding=1;treeMoving=1;newEdgeStyle={&quot;edgeStyle&quot;:&quot;elbowEdgeStyle&quot;,&quot;startArrow&quot;:&quot;none&quot;,&quot;endArrow&quot;:&quot;none&quot;};" parent="MLQZVTFxdCjyArdMDcbv-1" vertex="1">
          <mxGeometry x="285" y="360" width="120" height="40" as="geometry" />
        </mxCell>
        <mxCell id="MLQZVTFxdCjyArdMDcbv-44" style="edgeStyle=orthogonalEdgeStyle;rounded=0;orthogonalLoop=1;jettySize=auto;html=1;exitX=0;exitY=0.5;exitDx=0;exitDy=0;entryX=1;entryY=0.5;entryDx=0;entryDy=0;" parent="MLQZVTFxdCjyArdMDcbv-1" source="MLQZVTFxdCjyArdMDcbv-18" target="MLQZVTFxdCjyArdMDcbv-45" edge="1">
          <mxGeometry relative="1" as="geometry">
            <mxPoint x="550" y="370" as="sourcePoint" />
          </mxGeometry>
        </mxCell>
        <mxCell id="MLQZVTFxdCjyArdMDcbv-45" value="&lt;span style=&quot;font-size: 24px&quot;&gt;model-finder.js&lt;/span&gt;" style="whiteSpace=wrap;html=1;treeFolding=1;treeMoving=1;newEdgeStyle={&quot;edgeStyle&quot;:&quot;elbowEdgeStyle&quot;,&quot;startArrow&quot;:&quot;none&quot;,&quot;endArrow&quot;:&quot;none&quot;};" parent="MLQZVTFxdCjyArdMDcbv-1" vertex="1">
          <mxGeometry x="260" y="410" width="145" height="60" as="geometry" />
        </mxCell>
        <mxCell id="MLQZVTFxdCjyArdMDcbv-56" style="edgeStyle=orthogonalEdgeStyle;rounded=0;orthogonalLoop=1;jettySize=auto;html=1;exitX=1;exitY=0.5;exitDx=0;exitDy=0;entryX=0;entryY=0.5;entryDx=0;entryDy=0;" parent="MLQZVTFxdCjyArdMDcbv-1" source="MLQZVTFxdCjyArdMDcbv-10" target="MLQZVTFxdCjyArdMDcbv-57" edge="1">
          <mxGeometry relative="1" as="geometry">
            <mxPoint x="677.5" y="290" as="sourcePoint" />
          </mxGeometry>
        </mxCell>
        <mxCell id="MLQZVTFxdCjyArdMDcbv-57" value="&lt;span style=&quot;font-size: 24px&quot;&gt;models&lt;/span&gt;" style="whiteSpace=wrap;html=1;treeFolding=1;treeMoving=1;newEdgeStyle={&quot;edgeStyle&quot;:&quot;elbowEdgeStyle&quot;,&quot;startArrow&quot;:&quot;none&quot;,&quot;endArrow&quot;:&quot;none&quot;};" parent="MLQZVTFxdCjyArdMDcbv-1" vertex="1">
          <mxGeometry x="790" y="340" width="120" height="40" as="geometry" />
        </mxCell>
        <mxCell id="MLQZVTFxdCjyArdMDcbv-58" style="edgeStyle=orthogonalEdgeStyle;rounded=0;orthogonalLoop=1;jettySize=auto;html=1;exitX=1;exitY=0.5;exitDx=0;exitDy=0;entryX=0;entryY=0.5;entryDx=0;entryDy=0;" parent="MLQZVTFxdCjyArdMDcbv-1" source="MLQZVTFxdCjyArdMDcbv-10" target="MLQZVTFxdCjyArdMDcbv-59" edge="1">
          <mxGeometry relative="1" as="geometry">
            <mxPoint x="677.5" y="290" as="sourcePoint" />
          </mxGeometry>
        </mxCell>
        <mxCell id="MLQZVTFxdCjyArdMDcbv-69" style="edgeStyle=orthogonalEdgeStyle;rounded=0;orthogonalLoop=1;jettySize=auto;html=1;exitX=0;exitY=1;exitDx=0;exitDy=0;entryX=0.75;entryY=1;entryDx=0;entryDy=0;fillColor=#f8cecc;strokeColor=#b85450;strokeWidth=3;" parent="MLQZVTFxdCjyArdMDcbv-1" source="MLQZVTFxdCjyArdMDcbv-59" target="MLQZVTFxdCjyArdMDcbv-20" edge="1">
          <mxGeometry relative="1" as="geometry">
            <Array as="points">
              <mxPoint x="800" y="470" />
              <mxPoint x="800" y="490" />
              <mxPoint x="631" y="490" />
            </Array>
          </mxGeometry>
        </mxCell>
        <mxCell id="MLQZVTFxdCjyArdMDcbv-59" value="&lt;span style=&quot;font-size: 24px&quot;&gt;router.js&lt;/span&gt;" style="whiteSpace=wrap;html=1;treeFolding=1;treeMoving=1;newEdgeStyle={&quot;edgeStyle&quot;:&quot;elbowEdgeStyle&quot;,&quot;startArrow&quot;:&quot;none&quot;,&quot;endArrow&quot;:&quot;none&quot;};" parent="MLQZVTFxdCjyArdMDcbv-1" vertex="1">
          <mxGeometry x="790" y="430" width="120" height="40" as="geometry" />
        </mxCell>
        <mxCell id="MLQZVTFxdCjyArdMDcbv-60" style="edgeStyle=orthogonalEdgeStyle;rounded=0;orthogonalLoop=1;jettySize=auto;html=1;exitX=1;exitY=0.5;exitDx=0;exitDy=0;entryX=0;entryY=0.5;entryDx=0;entryDy=0;" parent="MLQZVTFxdCjyArdMDcbv-1" source="MLQZVTFxdCjyArdMDcbv-26" target="MLQZVTFxdCjyArdMDcbv-61" edge="1">
          <mxGeometry relative="1" as="geometry">
            <mxPoint x="735" y="290" as="sourcePoint" />
          </mxGeometry>
        </mxCell>
        <mxCell id="MLQZVTFxdCjyArdMDcbv-75" style="edgeStyle=orthogonalEdgeStyle;rounded=0;orthogonalLoop=1;jettySize=auto;html=1;exitX=0.5;exitY=0;exitDx=0;exitDy=0;strokeWidth=3;entryX=0.5;entryY=1;entryDx=0;entryDy=0;fillColor=#e3c800;strokeColor=#B09500;" parent="MLQZVTFxdCjyArdMDcbv-1" source="MLQZVTFxdCjyArdMDcbv-61" target="MLQZVTFxdCjyArdMDcbv-59" edge="1">
          <mxGeometry relative="1" as="geometry">
            <mxPoint x="950" y="420" as="targetPoint" />
            <Array as="points">
              <mxPoint x="1170" y="220" />
              <mxPoint x="1170" y="140" />
              <mxPoint x="970" y="140" />
              <mxPoint x="970" y="490" />
              <mxPoint x="850" y="490" />
            </Array>
          </mxGeometry>
        </mxCell>
        <mxCell id="MLQZVTFxdCjyArdMDcbv-61" value="&lt;span style=&quot;font-size: 24px&quot;&gt;basic.js&lt;/span&gt;" style="whiteSpace=wrap;html=1;treeFolding=1;treeMoving=1;newEdgeStyle={&quot;edgeStyle&quot;:&quot;elbowEdgeStyle&quot;,&quot;startArrow&quot;:&quot;none&quot;,&quot;endArrow&quot;:&quot;none&quot;};" parent="MLQZVTFxdCjyArdMDcbv-1" vertex="1">
          <mxGeometry x="1030" y="220" width="120" height="40" as="geometry" />
        </mxCell>
        <mxCell id="MLQZVTFxdCjyArdMDcbv-62" style="edgeStyle=orthogonalEdgeStyle;rounded=0;orthogonalLoop=1;jettySize=auto;html=1;exitX=1;exitY=0.5;exitDx=0;exitDy=0;entryX=0;entryY=0.5;entryDx=0;entryDy=0;" parent="MLQZVTFxdCjyArdMDcbv-1" source="MLQZVTFxdCjyArdMDcbv-26" target="MLQZVTFxdCjyArdMDcbv-63" edge="1">
          <mxGeometry relative="1" as="geometry">
            <mxPoint x="930" y="290" as="sourcePoint" />
          </mxGeometry>
        </mxCell>
        <mxCell id="MLQZVTFxdCjyArdMDcbv-63" value="&lt;span style=&quot;font-size: 24px&quot;&gt;bearer.js&lt;/span&gt;" style="whiteSpace=wrap;html=1;treeFolding=1;treeMoving=1;newEdgeStyle={&quot;edgeStyle&quot;:&quot;elbowEdgeStyle&quot;,&quot;startArrow&quot;:&quot;none&quot;,&quot;endArrow&quot;:&quot;none&quot;};" parent="MLQZVTFxdCjyArdMDcbv-1" vertex="1">
          <mxGeometry x="1030" y="170" width="120" height="40" as="geometry" />
        </mxCell>
        <mxCell id="MLQZVTFxdCjyArdMDcbv-64" style="edgeStyle=orthogonalEdgeStyle;rounded=0;orthogonalLoop=1;jettySize=auto;html=1;exitX=1;exitY=0.5;exitDx=0;exitDy=0;entryX=0;entryY=0.5;entryDx=0;entryDy=0;" parent="MLQZVTFxdCjyArdMDcbv-1" source="MLQZVTFxdCjyArdMDcbv-26" target="MLQZVTFxdCjyArdMDcbv-65" edge="1">
          <mxGeometry relative="1" as="geometry">
            <mxPoint x="930" y="290" as="sourcePoint" />
          </mxGeometry>
        </mxCell>
        <mxCell id="MLQZVTFxdCjyArdMDcbv-65" value="&lt;span style=&quot;font-size: 24px&quot;&gt;oauth.js&lt;/span&gt;" style="whiteSpace=wrap;html=1;treeFolding=1;treeMoving=1;newEdgeStyle={&quot;edgeStyle&quot;:&quot;elbowEdgeStyle&quot;,&quot;startArrow&quot;:&quot;none&quot;,&quot;endArrow&quot;:&quot;none&quot;};" parent="MLQZVTFxdCjyArdMDcbv-1" vertex="1">
          <mxGeometry x="1030" y="270" width="120" height="40" as="geometry" />
        </mxCell>
        <mxCell id="MLQZVTFxdCjyArdMDcbv-66" style="edgeStyle=orthogonalEdgeStyle;rounded=0;orthogonalLoop=1;jettySize=auto;html=1;exitX=1;exitY=0.5;exitDx=0;exitDy=0;entryX=0;entryY=0.5;entryDx=0;entryDy=0;" parent="MLQZVTFxdCjyArdMDcbv-1" source="MLQZVTFxdCjyArdMDcbv-57" target="MLQZVTFxdCjyArdMDcbv-67" edge="1">
          <mxGeometry relative="1" as="geometry">
            <mxPoint x="735" y="290" as="sourcePoint" />
          </mxGeometry>
        </mxCell>
        <mxCell id="MLQZVTFxdCjyArdMDcbv-73" style="edgeStyle=orthogonalEdgeStyle;rounded=0;orthogonalLoop=1;jettySize=auto;html=1;exitX=1;exitY=0.5;exitDx=0;exitDy=0;entryX=1;entryY=0.5;entryDx=0;entryDy=0;strokeWidth=3;fillColor=#0050ef;strokeColor=#001DBC;" parent="MLQZVTFxdCjyArdMDcbv-1" source="MLQZVTFxdCjyArdMDcbv-67" target="MLQZVTFxdCjyArdMDcbv-61" edge="1">
          <mxGeometry relative="1" as="geometry" />
        </mxCell>
        <mxCell id="MLQZVTFxdCjyArdMDcbv-74" style="edgeStyle=orthogonalEdgeStyle;rounded=0;orthogonalLoop=1;jettySize=auto;html=1;exitX=0.25;exitY=1;exitDx=0;exitDy=0;entryX=1;entryY=0.5;entryDx=0;entryDy=0;strokeWidth=3;fillColor=#6d8764;strokeColor=#3A5431;" parent="MLQZVTFxdCjyArdMDcbv-1" source="MLQZVTFxdCjyArdMDcbv-67" target="MLQZVTFxdCjyArdMDcbv-59" edge="1">
          <mxGeometry relative="1" as="geometry" />
        </mxCell>
        <mxCell id="MLQZVTFxdCjyArdMDcbv-67" value="&lt;span style=&quot;font-size: 24px&quot;&gt;user-model.js&lt;/span&gt;" style="whiteSpace=wrap;html=1;treeFolding=1;treeMoving=1;newEdgeStyle={&quot;edgeStyle&quot;:&quot;elbowEdgeStyle&quot;,&quot;startArrow&quot;:&quot;none&quot;,&quot;endArrow&quot;:&quot;none&quot;};" parent="MLQZVTFxdCjyArdMDcbv-1" vertex="1">
          <mxGeometry x="1021.25" y="335" width="137.5" height="50" as="geometry" />
        </mxCell>
        <mxCell id="MLQZVTFxdCjyArdMDcbv-80" value="&lt;div style=&quot;font-family: &amp;#34;consolas&amp;#34; , &amp;#34;courier new&amp;#34; , monospace ; line-height: 19px&quot;&gt;&lt;span style=&quot;background-color: rgb(255 , 255 , 255)&quot;&gt;&lt;font style=&quot;font-size: 18px&quot;&gt;&lt;b&gt;mongoose&lt;/b&gt;&lt;/font&gt;&lt;/span&gt;&lt;/div&gt;" style="whiteSpace=wrap;html=1;rounded=1;arcSize=50;align=center;verticalAlign=middle;strokeWidth=1;autosize=1;spacing=4;treeFolding=1;treeMoving=1;newEdgeStyle={&quot;edgeStyle&quot;:&quot;entityRelationEdgeStyle&quot;,&quot;startArrow&quot;:&quot;none&quot;,&quot;endArrow&quot;:&quot;none&quot;,&quot;segment&quot;:10,&quot;curved&quot;:1};" parent="MLQZVTFxdCjyArdMDcbv-1" vertex="1">
          <mxGeometry x="65" y="88" width="120" height="30" as="geometry" />
        </mxCell>
        <mxCell id="MLQZVTFxdCjyArdMDcbv-81" value="" style="edgeStyle=entityRelationEdgeStyle;startArrow=none;endArrow=none;segment=10;curved=1;strokeWidth=3;exitX=0.861;exitY=0.008;exitDx=0;exitDy=0;exitPerimeter=0;" parent="MLQZVTFxdCjyArdMDcbv-1" source="MLQZVTFxdCjyArdMDcbv-3" target="MLQZVTFxdCjyArdMDcbv-80" edge="1">
          <mxGeometry relative="1" as="geometry">
            <mxPoint x="120" y="150" as="sourcePoint" />
          </mxGeometry>
        </mxCell>
        <mxCell id="MLQZVTFxdCjyArdMDcbv-84" value="" style="edgeStyle=entityRelationEdgeStyle;startArrow=none;endArrow=none;segment=10;curved=1;strokeWidth=3;exitX=0.861;exitY=0.008;exitDx=0;exitDy=0;exitPerimeter=0;" parent="MLQZVTFxdCjyArdMDcbv-1" source="MLQZVTFxdCjyArdMDcbv-3" target="MLQZVTFxdCjyArdMDcbv-85" edge="1">
          <mxGeometry relative="1" as="geometry">
            <mxPoint x="253.31999999999994" y="190.31999999999994" as="sourcePoint" />
          </mxGeometry>
        </mxCell>
        <mxCell id="MLQZVTFxdCjyArdMDcbv-85" value="&lt;div style=&quot;font-family: &amp;#34;consolas&amp;#34; , &amp;#34;courier new&amp;#34; , monospace ; line-height: 19px&quot;&gt;&lt;span style=&quot;background-color: rgb(255 , 255 , 255)&quot;&gt;&lt;font style=&quot;font-size: 18px&quot;&gt;&lt;b&gt;dotenv&lt;/b&gt;&lt;/font&gt;&lt;/span&gt;&lt;/div&gt;" style="whiteSpace=wrap;html=1;rounded=1;arcSize=50;align=center;verticalAlign=middle;strokeWidth=1;autosize=1;spacing=4;treeFolding=1;treeMoving=1;newEdgeStyle={&quot;edgeStyle&quot;:&quot;entityRelationEdgeStyle&quot;,&quot;startArrow&quot;:&quot;none&quot;,&quot;endArrow&quot;:&quot;none&quot;,&quot;segment&quot;:10,&quot;curved&quot;:1};" parent="MLQZVTFxdCjyArdMDcbv-1" vertex="1">
          <mxGeometry x="75" y="48" width="100" height="30" as="geometry" />
        </mxCell>
        <mxCell id="MLQZVTFxdCjyArdMDcbv-86" value="&lt;font style=&quot;font-size: 18px&quot;&gt;express&lt;/font&gt;" style="whiteSpace=wrap;html=1;rounded=1;arcSize=50;align=center;verticalAlign=middle;strokeWidth=1;autosize=1;spacing=4;treeFolding=1;treeMoving=1;newEdgeStyle={&quot;edgeStyle&quot;:&quot;entityRelationEdgeStyle&quot;,&quot;startArrow&quot;:&quot;none&quot;,&quot;endArrow&quot;:&quot;none&quot;,&quot;segment&quot;:10,&quot;curved&quot;:1};" parent="MLQZVTFxdCjyArdMDcbv-1" vertex="1">
          <mxGeometry x="476" y="508" width="100" height="30" as="geometry" />
        </mxCell>
        <mxCell id="MLQZVTFxdCjyArdMDcbv-87" value="" style="edgeStyle=entityRelationEdgeStyle;startArrow=none;endArrow=none;segment=10;curved=1;strokeWidth=3;exitX=0.395;exitY=1.092;exitDx=0;exitDy=0;exitPerimeter=0;" parent="MLQZVTFxdCjyArdMDcbv-1" source="MLQZVTFxdCjyArdMDcbv-20" target="MLQZVTFxdCjyArdMDcbv-86" edge="1">
          <mxGeometry relative="1" as="geometry">
            <mxPoint x="570" y="440" as="sourcePoint" />
          </mxGeometry>
        </mxCell>
        <mxCell id="MLQZVTFxdCjyArdMDcbv-88" value="" style="edgeStyle=entityRelationEdgeStyle;startArrow=none;endArrow=none;segment=10;curved=1;strokeWidth=3;exitX=0.395;exitY=1.092;exitDx=0;exitDy=0;exitPerimeter=0;" parent="MLQZVTFxdCjyArdMDcbv-1" source="MLQZVTFxdCjyArdMDcbv-20" target="MLQZVTFxdCjyArdMDcbv-89" edge="1">
          <mxGeometry relative="1" as="geometry">
            <mxPoint x="613.3249999999998" y="473.67999999999984" as="sourcePoint" />
          </mxGeometry>
        </mxCell>
        <mxCell id="MLQZVTFxdCjyArdMDcbv-89" value="&lt;font style=&quot;font-size: 18px&quot;&gt;cors&lt;/font&gt;" style="whiteSpace=wrap;html=1;rounded=1;arcSize=50;align=center;verticalAlign=middle;strokeWidth=1;autosize=1;spacing=4;treeFolding=1;treeMoving=1;newEdgeStyle={&quot;edgeStyle&quot;:&quot;entityRelationEdgeStyle&quot;,&quot;startArrow&quot;:&quot;none&quot;,&quot;endArrow&quot;:&quot;none&quot;,&quot;segment&quot;:10,&quot;curved&quot;:1};" parent="MLQZVTFxdCjyArdMDcbv-1" vertex="1">
          <mxGeometry x="491" y="548" width="70" height="30" as="geometry" />
        </mxCell>
        <mxCell id="MLQZVTFxdCjyArdMDcbv-90" value="" style="edgeStyle=entityRelationEdgeStyle;startArrow=none;endArrow=none;segment=10;curved=1;strokeWidth=3;exitX=0.395;exitY=1.092;exitDx=0;exitDy=0;exitPerimeter=0;" parent="MLQZVTFxdCjyArdMDcbv-1" source="MLQZVTFxdCjyArdMDcbv-20" target="MLQZVTFxdCjyArdMDcbv-91" edge="1">
          <mxGeometry relative="1" as="geometry">
            <mxPoint x="613.3249999999998" y="473.67999999999984" as="sourcePoint" />
          </mxGeometry>
        </mxCell>
        <mxCell id="MLQZVTFxdCjyArdMDcbv-91" value="&lt;font style=&quot;font-size: 18px&quot;&gt;morgan&lt;/font&gt;" style="whiteSpace=wrap;html=1;rounded=1;arcSize=50;align=center;verticalAlign=middle;strokeWidth=1;autosize=1;spacing=4;treeFolding=1;treeMoving=1;newEdgeStyle={&quot;edgeStyle&quot;:&quot;entityRelationEdgeStyle&quot;,&quot;startArrow&quot;:&quot;none&quot;,&quot;endArrow&quot;:&quot;none&quot;,&quot;segment&quot;:10,&quot;curved&quot;:1};" parent="MLQZVTFxdCjyArdMDcbv-1" vertex="1">
          <mxGeometry x="476" y="588" width="100" height="30" as="geometry" />
        </mxCell>
        <mxCell id="MLQZVTFxdCjyArdMDcbv-94" value="&lt;div style=&quot;font-family: &amp;#34;consolas&amp;#34; , &amp;#34;courier new&amp;#34; , monospace ; line-height: 19px&quot;&gt;&lt;span style=&quot;background-color: rgb(255 , 255 , 255)&quot;&gt;&lt;font style=&quot;font-size: 18px&quot;&gt;&lt;b&gt;bcrypt&lt;/b&gt;&lt;/font&gt;&lt;/span&gt;&lt;/div&gt;" style="whiteSpace=wrap;html=1;rounded=1;arcSize=50;align=center;verticalAlign=middle;strokeWidth=1;autosize=1;spacing=4;treeFolding=1;treeMoving=1;newEdgeStyle={&quot;edgeStyle&quot;:&quot;entityRelationEdgeStyle&quot;,&quot;startArrow&quot;:&quot;none&quot;,&quot;endArrow&quot;:&quot;none&quot;,&quot;segment&quot;:10,&quot;curved&quot;:1};" parent="MLQZVTFxdCjyArdMDcbv-1" vertex="1">
          <mxGeometry x="905" y="578" width="100" height="30" as="geometry" />
        </mxCell>
        <mxCell id="MLQZVTFxdCjyArdMDcbv-96" value="&lt;div style=&quot;font-family: &amp;#34;consolas&amp;#34; , &amp;#34;courier new&amp;#34; , monospace ; line-height: 19px&quot;&gt;&lt;span style=&quot;background-color: rgb(255 , 255 , 255)&quot;&gt;&lt;font style=&quot;font-size: 18px&quot;&gt;&lt;b&gt;express&lt;/b&gt;&lt;/font&gt;&lt;/span&gt;&lt;/div&gt;" style="whiteSpace=wrap;html=1;rounded=1;arcSize=50;align=center;verticalAlign=middle;strokeWidth=1;autosize=1;spacing=4;treeFolding=1;treeMoving=1;newEdgeStyle={&quot;edgeStyle&quot;:&quot;entityRelationEdgeStyle&quot;,&quot;startArrow&quot;:&quot;none&quot;,&quot;endArrow&quot;:&quot;none&quot;,&quot;segment&quot;:10,&quot;curved&quot;:1};" parent="MLQZVTFxdCjyArdMDcbv-1" vertex="1">
          <mxGeometry x="775" y="600" width="110" height="30" as="geometry" />
        </mxCell>
        <mxCell id="MLQZVTFxdCjyArdMDcbv-99" style="edgeStyle=orthogonalEdgeStyle;rounded=0;orthogonalLoop=1;jettySize=auto;html=1;exitX=0.25;exitY=0;exitDx=0;exitDy=0;entryX=0.75;entryY=1;entryDx=0;entryDy=0;strokeWidth=3;startArrow=block;startFill=1;endArrow=none;endFill=0;" parent="MLQZVTFxdCjyArdMDcbv-1" source="MLQZVTFxdCjyArdMDcbv-98" target="MLQZVTFxdCjyArdMDcbv-67" edge="1">
          <mxGeometry relative="1" as="geometry" />
        </mxCell>
        <mxCell id="MLQZVTFxdCjyArdMDcbv-98" value="&lt;div style=&quot;font-family: &amp;#34;consolas&amp;#34; , &amp;#34;courier new&amp;#34; , monospace ; line-height: 19px&quot;&gt;&lt;span style=&quot;background-color: rgb(255 , 255 , 255)&quot;&gt;&lt;font style=&quot;font-size: 18px&quot;&gt;&lt;b&gt;mongoose&lt;/b&gt;&lt;/font&gt;&lt;/span&gt;&lt;/div&gt;" style="whiteSpace=wrap;html=1;rounded=1;arcSize=50;align=center;verticalAlign=middle;strokeWidth=1;autosize=1;spacing=4;treeFolding=1;treeMoving=1;newEdgeStyle={&quot;edgeStyle&quot;:&quot;entityRelationEdgeStyle&quot;,&quot;startArrow&quot;:&quot;none&quot;,&quot;endArrow&quot;:&quot;none&quot;,&quot;segment&quot;:10,&quot;curved&quot;:1};" parent="MLQZVTFxdCjyArdMDcbv-1" vertex="1">
          <mxGeometry x="1080" y="440" width="120" height="30" as="geometry" />
        </mxCell>
        <mxCell id="MLQZVTFxdCjyArdMDcbv-101" style="edgeStyle=orthogonalEdgeStyle;rounded=0;orthogonalLoop=1;jettySize=auto;html=1;exitX=0.25;exitY=1;exitDx=0;exitDy=0;entryX=1;entryY=0.25;entryDx=0;entryDy=0;startArrow=block;startFill=1;endArrow=none;endFill=0;strokeWidth=3;" parent="MLQZVTFxdCjyArdMDcbv-1" source="MLQZVTFxdCjyArdMDcbv-100" target="MLQZVTFxdCjyArdMDcbv-61" edge="1">
          <mxGeometry relative="1" as="geometry" />
        </mxCell>
        <mxCell id="MLQZVTFxdCjyArdMDcbv-100" value="&lt;div style=&quot;font-family: &amp;#34;consolas&amp;#34; , &amp;#34;courier new&amp;#34; , monospace ; line-height: 19px&quot;&gt;&lt;span style=&quot;background-color: rgb(255 , 255 , 255)&quot;&gt;&lt;font style=&quot;font-size: 18px&quot;&gt;&lt;b&gt;bcrypt&lt;/b&gt;&lt;/font&gt;&lt;/span&gt;&lt;/div&gt;" style="whiteSpace=wrap;html=1;rounded=1;arcSize=50;align=center;verticalAlign=middle;strokeWidth=1;autosize=1;spacing=4;treeFolding=1;treeMoving=1;newEdgeStyle={&quot;edgeStyle&quot;:&quot;entityRelationEdgeStyle&quot;,&quot;startArrow&quot;:&quot;none&quot;,&quot;endArrow&quot;:&quot;none&quot;,&quot;segment&quot;:10,&quot;curved&quot;:1};" parent="MLQZVTFxdCjyArdMDcbv-1" vertex="1">
          <mxGeometry x="1180" y="170" width="100" height="30" as="geometry" />
        </mxCell>
        <mxCell id="MLQZVTFxdCjyArdMDcbv-102" value="" style="edgeStyle=entityRelationEdgeStyle;rounded=0;orthogonalLoop=1;jettySize=auto;html=1;startArrow=none;endArrow=none;segment=10;curved=1;" parent="MLQZVTFxdCjyArdMDcbv-1" source="MLQZVTFxdCjyArdMDcbv-100" target="MLQZVTFxdCjyArdMDcbv-103" edge="1">
          <mxGeometry relative="1" as="geometry" />
        </mxCell>
        <mxCell id="MLQZVTFxdCjyArdMDcbv-103" value="&lt;div style=&quot;font-family: &amp;#34;consolas&amp;#34; , &amp;#34;courier new&amp;#34; , monospace ; line-height: 19px&quot;&gt;&lt;span style=&quot;background-color: rgb(255 , 255 , 255)&quot;&gt;&lt;font style=&quot;font-size: 18px&quot;&gt;&lt;b&gt;base-64&lt;/b&gt;&lt;/font&gt;&lt;/span&gt;&lt;/div&gt;" style="whiteSpace=wrap;html=1;rounded=1;arcSize=50;align=center;verticalAlign=middle;strokeWidth=1;autosize=1;spacing=4;treeFolding=1;treeMoving=1;newEdgeStyle={&quot;edgeStyle&quot;:&quot;entityRelationEdgeStyle&quot;,&quot;startArrow&quot;:&quot;none&quot;,&quot;endArrow&quot;:&quot;none&quot;,&quot;segment&quot;:10,&quot;curved&quot;:1};" parent="MLQZVTFxdCjyArdMDcbv-1" vertex="1">
          <mxGeometry x="1155" y="100" width="110" height="30" as="geometry" />
        </mxCell>
        <mxCell id="MLQZVTFxdCjyArdMDcbv-95" value="" style="edgeStyle=orthogonalEdgeStyle;rounded=0;orthogonalLoop=1;jettySize=auto;html=1;strokeWidth=3;" parent="1" source="MLQZVTFxdCjyArdMDcbv-92" target="MLQZVTFxdCjyArdMDcbv-94" edge="1">
          <mxGeometry relative="1" as="geometry" />
        </mxCell>
        <mxCell id="MLQZVTFxdCjyArdMDcbv-97" value="" style="edgeStyle=orthogonalEdgeStyle;rounded=0;orthogonalLoop=1;jettySize=auto;html=1;strokeWidth=3;" parent="1" source="MLQZVTFxdCjyArdMDcbv-92" target="MLQZVTFxdCjyArdMDcbv-96" edge="1">
          <mxGeometry relative="1" as="geometry" />
        </mxCell>
        <mxCell id="MLQZVTFxdCjyArdMDcbv-92" value="&lt;div style=&quot;font-family: &amp;#34;consolas&amp;#34; , &amp;#34;courier new&amp;#34; , monospace ; line-height: 19px&quot;&gt;&lt;span style=&quot;background-color: rgb(255 , 255 , 255)&quot;&gt;&lt;font style=&quot;font-size: 18px&quot;&gt;&lt;b&gt;express&lt;/b&gt;&lt;/font&gt;&lt;/span&gt;&lt;/div&gt;" style="whiteSpace=wrap;html=1;rounded=1;arcSize=50;align=center;verticalAlign=middle;strokeWidth=1;autosize=1;spacing=4;treeFolding=1;treeMoving=1;newEdgeStyle={&quot;edgeStyle&quot;:&quot;entityRelationEdgeStyle&quot;,&quot;startArrow&quot;:&quot;none&quot;,&quot;endArrow&quot;:&quot;none&quot;,&quot;segment&quot;:10,&quot;curved&quot;:1};" parent="1" vertex="1">
          <mxGeometry x="805" y="585" width="110" height="30" as="geometry" />
        </mxCell>
        <mxCell id="MLQZVTFxdCjyArdMDcbv-93" value="" style="edgeStyle=entityRelationEdgeStyle;startArrow=none;endArrow=none;segment=10;curved=1;strokeWidth=3;exitX=1;exitY=0.25;exitDx=0;exitDy=0;entryX=0.75;entryY=1;entryDx=0;entryDy=0;" parent="1" source="MLQZVTFxdCjyArdMDcbv-92" target="MLQZVTFxdCjyArdMDcbv-59" edge="1">
          <mxGeometry relative="1" as="geometry">
            <mxPoint x="908.3199999999999" y="606.66" as="sourcePoint" />
            <mxPoint x="908" y="519" as="targetPoint" />
          </mxGeometry>
        </mxCell>
      </root>
    </mxGraphModel>
  </diagram>
  <diagram id="la8jwNyKE6joe55h3-Jp" name="Page-2">
    <mxGraphModel dx="1038" dy="556" grid="1" gridSize="10" guides="1" tooltips="1" connect="1" arrows="1" fold="1" page="1" pageScale="1" pageWidth="850" pageHeight="1100" math="0" shadow="0">
      <root>
        <mxCell id="bSq0vDIwDpD7C8FaltjG-0" />
        <mxCell id="bSq0vDIwDpD7C8FaltjG-1" parent="bSq0vDIwDpD7C8FaltjG-0" />
        <mxCell id="hYr2VS4iSD8BJeRu9LC2-0" value="&lt;font style=&quot;font-size: 24px&quot;&gt;bearer auth&lt;/font&gt;" style="swimlane;html=1;startSize=20;horizontal=1;containerType=tree;" parent="bSq0vDIwDpD7C8FaltjG-1" vertex="1">
          <mxGeometry x="120" y="50" width="1290" height="650" as="geometry" />
        </mxCell>
        <mxCell id="hYr2VS4iSD8BJeRu9LC2-1" value="&lt;font style=&quot;font-size: 24px&quot;&gt;index.js&lt;/font&gt;" style="whiteSpace=wrap;html=1;treeFolding=1;treeMoving=1;newEdgeStyle={&quot;edgeStyle&quot;:&quot;elbowEdgeStyle&quot;,&quot;startArrow&quot;:&quot;none&quot;,&quot;endArrow&quot;:&quot;none&quot;};" parent="hYr2VS4iSD8BJeRu9LC2-0" vertex="1">
          <mxGeometry x="120" y="150" width="120" height="40" as="geometry" />
        </mxCell>
        <mxCell id="hYr2VS4iSD8BJeRu9LC2-2" value="&lt;span style=&quot;font-size: 24px&quot;&gt;src&lt;/span&gt;" style="whiteSpace=wrap;html=1;treeFolding=1;treeMoving=1;newEdgeStyle={&quot;edgeStyle&quot;:&quot;elbowEdgeStyle&quot;,&quot;startArrow&quot;:&quot;none&quot;,&quot;endArrow&quot;:&quot;none&quot;};" parent="hYr2VS4iSD8BJeRu9LC2-0" vertex="1">
          <mxGeometry x="537.5" y="150" width="120" height="40" as="geometry" />
        </mxCell>
        <mxCell id="hYr2VS4iSD8BJeRu9LC2-3" value="" style="edgeStyle=elbowEdgeStyle;rounded=0;orthogonalLoop=1;jettySize=auto;html=1;elbow=vertical;startArrow=none;endArrow=none;" parent="hYr2VS4iSD8BJeRu9LC2-0" source="hYr2VS4iSD8BJeRu9LC2-2" target="hYr2VS4iSD8BJeRu9LC2-5" edge="1">
          <mxGeometry relative="1" as="geometry" />
        </mxCell>
        <mxCell id="hYr2VS4iSD8BJeRu9LC2-4" style="edgeStyle=orthogonalEdgeStyle;rounded=0;orthogonalLoop=1;jettySize=auto;html=1;exitX=1;exitY=0.5;exitDx=0;exitDy=0;entryX=0;entryY=0.5;entryDx=0;entryDy=0;" parent="hYr2VS4iSD8BJeRu9LC2-0" source="hYr2VS4iSD8BJeRu9LC2-5" target="hYr2VS4iSD8BJeRu9LC2-12" edge="1">
          <mxGeometry relative="1" as="geometry" />
        </mxCell>
        <mxCell id="hYr2VS4iSD8BJeRu9LC2-5" value="&lt;span style=&quot;font-size: 24px&quot;&gt;auth&lt;/span&gt;" style="whiteSpace=wrap;html=1;treeFolding=1;treeMoving=1;newEdgeStyle={&quot;edgeStyle&quot;:&quot;elbowEdgeStyle&quot;,&quot;startArrow&quot;:&quot;none&quot;,&quot;endArrow&quot;:&quot;none&quot;};" parent="hYr2VS4iSD8BJeRu9LC2-0" vertex="1">
          <mxGeometry x="537.5" y="230" width="120" height="40" as="geometry" />
        </mxCell>
        <mxCell id="hYr2VS4iSD8BJeRu9LC2-6" value="" style="edgeStyle=elbowEdgeStyle;rounded=0;orthogonalLoop=1;jettySize=auto;html=1;elbow=vertical;startArrow=none;endArrow=none;" parent="hYr2VS4iSD8BJeRu9LC2-0" source="hYr2VS4iSD8BJeRu9LC2-5" target="hYr2VS4iSD8BJeRu9LC2-8" edge="1">
          <mxGeometry relative="1" as="geometry">
            <mxPoint x="617.5" y="230" as="sourcePoint" />
          </mxGeometry>
        </mxCell>
        <mxCell id="hYr2VS4iSD8BJeRu9LC2-7" style="edgeStyle=orthogonalEdgeStyle;rounded=0;orthogonalLoop=1;jettySize=auto;html=1;exitX=0;exitY=0.5;exitDx=0;exitDy=0;entryX=1;entryY=0.5;entryDx=0;entryDy=0;" parent="hYr2VS4iSD8BJeRu9LC2-0" source="hYr2VS4iSD8BJeRu9LC2-8" target="hYr2VS4iSD8BJeRu9LC2-14" edge="1">
          <mxGeometry relative="1" as="geometry" />
        </mxCell>
        <mxCell id="hYr2VS4iSD8BJeRu9LC2-8" value="&lt;span style=&quot;font-size: 24px&quot;&gt;error-handlers&lt;/span&gt;" style="whiteSpace=wrap;html=1;treeFolding=1;treeMoving=1;newEdgeStyle={&quot;edgeStyle&quot;:&quot;elbowEdgeStyle&quot;,&quot;startArrow&quot;:&quot;none&quot;,&quot;endArrow&quot;:&quot;none&quot;};" parent="hYr2VS4iSD8BJeRu9LC2-0" vertex="1">
          <mxGeometry x="530" y="310" width="140" height="50" as="geometry" />
        </mxCell>
        <mxCell id="hYr2VS4iSD8BJeRu9LC2-9" value="" style="edgeStyle=elbowEdgeStyle;rounded=0;orthogonalLoop=1;jettySize=auto;html=1;elbow=vertical;startArrow=none;endArrow=none;" parent="hYr2VS4iSD8BJeRu9LC2-0" source="hYr2VS4iSD8BJeRu9LC2-8" target="hYr2VS4iSD8BJeRu9LC2-11" edge="1">
          <mxGeometry relative="1" as="geometry">
            <mxPoint x="617.5" y="310" as="sourcePoint" />
          </mxGeometry>
        </mxCell>
        <mxCell id="hYr2VS4iSD8BJeRu9LC2-10" style="edgeStyle=orthogonalEdgeStyle;rounded=0;orthogonalLoop=1;jettySize=auto;html=1;exitX=0.25;exitY=1;exitDx=0;exitDy=0;entryX=0.418;entryY=1.029;entryDx=0;entryDy=0;entryPerimeter=0;fillColor=#ffe6cc;strokeColor=#d79b00;strokeWidth=3;" parent="hYr2VS4iSD8BJeRu9LC2-0" source="hYr2VS4iSD8BJeRu9LC2-11" target="hYr2VS4iSD8BJeRu9LC2-1" edge="1">
          <mxGeometry relative="1" as="geometry">
            <Array as="points">
              <mxPoint x="598" y="430" />
              <mxPoint x="598" y="640" />
              <mxPoint x="170" y="640" />
            </Array>
          </mxGeometry>
        </mxCell>
        <mxCell id="hYr2VS4iSD8BJeRu9LC2-11" value="&lt;span style=&quot;font-size: 24px&quot;&gt;server.js&lt;/span&gt;" style="whiteSpace=wrap;html=1;treeFolding=1;treeMoving=1;newEdgeStyle={&quot;edgeStyle&quot;:&quot;elbowEdgeStyle&quot;,&quot;startArrow&quot;:&quot;none&quot;,&quot;endArrow&quot;:&quot;none&quot;};" parent="hYr2VS4iSD8BJeRu9LC2-0" vertex="1">
          <mxGeometry x="530" y="390" width="135" height="40" as="geometry" />
        </mxCell>
        <mxCell id="hYr2VS4iSD8BJeRu9LC2-12" value="&lt;span style=&quot;font-size: 24px&quot;&gt;middleware&lt;/span&gt;" style="whiteSpace=wrap;html=1;treeFolding=1;treeMoving=1;newEdgeStyle={&quot;edgeStyle&quot;:&quot;elbowEdgeStyle&quot;,&quot;startArrow&quot;:&quot;none&quot;,&quot;endArrow&quot;:&quot;none&quot;};" parent="hYr2VS4iSD8BJeRu9LC2-0" vertex="1">
          <mxGeometry x="790" y="230" width="130" height="40" as="geometry" />
        </mxCell>
        <mxCell id="hYr2VS4iSD8BJeRu9LC2-13" style="edgeStyle=orthogonalEdgeStyle;rounded=0;orthogonalLoop=1;jettySize=auto;html=1;exitX=1;exitY=0.25;exitDx=0;exitDy=0;entryX=0;entryY=0.25;entryDx=0;entryDy=0;strokeWidth=3;fillColor=#e1d5e7;strokeColor=#9673a6;" parent="hYr2VS4iSD8BJeRu9LC2-0" source="hYr2VS4iSD8BJeRu9LC2-14" target="hYr2VS4iSD8BJeRu9LC2-11" edge="1">
          <mxGeometry relative="1" as="geometry">
            <Array as="points">
              <mxPoint x="490" y="320" />
              <mxPoint x="490" y="400" />
            </Array>
          </mxGeometry>
        </mxCell>
        <mxCell id="hYr2VS4iSD8BJeRu9LC2-14" value="&lt;span style=&quot;font-size: 24px&quot;&gt;404.js&lt;/span&gt;" style="whiteSpace=wrap;html=1;treeFolding=1;treeMoving=1;newEdgeStyle={&quot;edgeStyle&quot;:&quot;elbowEdgeStyle&quot;,&quot;startArrow&quot;:&quot;none&quot;,&quot;endArrow&quot;:&quot;none&quot;};" parent="hYr2VS4iSD8BJeRu9LC2-0" vertex="1">
          <mxGeometry x="285" y="310" width="120" height="40" as="geometry" />
        </mxCell>
        <mxCell id="hYr2VS4iSD8BJeRu9LC2-15" style="edgeStyle=orthogonalEdgeStyle;rounded=0;orthogonalLoop=1;jettySize=auto;html=1;exitX=0;exitY=0.5;exitDx=0;exitDy=0;entryX=1;entryY=0.5;entryDx=0;entryDy=0;" parent="hYr2VS4iSD8BJeRu9LC2-0" source="hYr2VS4iSD8BJeRu9LC2-8" target="hYr2VS4iSD8BJeRu9LC2-17" edge="1">
          <mxGeometry relative="1" as="geometry">
            <mxPoint x="550" y="370" as="sourcePoint" />
          </mxGeometry>
        </mxCell>
        <mxCell id="hYr2VS4iSD8BJeRu9LC2-16" style="edgeStyle=orthogonalEdgeStyle;rounded=0;orthogonalLoop=1;jettySize=auto;html=1;exitX=1;exitY=0.75;exitDx=0;exitDy=0;strokeWidth=3;fillColor=#d5e8d4;strokeColor=#82b366;" parent="hYr2VS4iSD8BJeRu9LC2-0" source="hYr2VS4iSD8BJeRu9LC2-17" edge="1">
          <mxGeometry relative="1" as="geometry">
            <mxPoint x="550" y="420" as="targetPoint" />
            <Array as="points">
              <mxPoint x="450" y="390" />
              <mxPoint x="450" y="460" />
              <mxPoint x="550" y="460" />
            </Array>
          </mxGeometry>
        </mxCell>
        <mxCell id="hYr2VS4iSD8BJeRu9LC2-17" value="&lt;span style=&quot;font-size: 24px&quot;&gt;500.js&lt;/span&gt;" style="whiteSpace=wrap;html=1;treeFolding=1;treeMoving=1;newEdgeStyle={&quot;edgeStyle&quot;:&quot;elbowEdgeStyle&quot;,&quot;startArrow&quot;:&quot;none&quot;,&quot;endArrow&quot;:&quot;none&quot;};" parent="hYr2VS4iSD8BJeRu9LC2-0" vertex="1">
          <mxGeometry x="285" y="360" width="120" height="40" as="geometry" />
        </mxCell>
        <mxCell id="hYr2VS4iSD8BJeRu9LC2-20" style="edgeStyle=orthogonalEdgeStyle;rounded=0;orthogonalLoop=1;jettySize=auto;html=1;exitX=1;exitY=0.5;exitDx=0;exitDy=0;entryX=0;entryY=0.5;entryDx=0;entryDy=0;" parent="hYr2VS4iSD8BJeRu9LC2-0" source="hYr2VS4iSD8BJeRu9LC2-5" target="hYr2VS4iSD8BJeRu9LC2-21" edge="1">
          <mxGeometry relative="1" as="geometry">
            <mxPoint x="677.5" y="290" as="sourcePoint" />
          </mxGeometry>
        </mxCell>
        <mxCell id="hYr2VS4iSD8BJeRu9LC2-21" value="&lt;span style=&quot;font-size: 24px&quot;&gt;models&lt;/span&gt;" style="whiteSpace=wrap;html=1;treeFolding=1;treeMoving=1;newEdgeStyle={&quot;edgeStyle&quot;:&quot;elbowEdgeStyle&quot;,&quot;startArrow&quot;:&quot;none&quot;,&quot;endArrow&quot;:&quot;none&quot;};" parent="hYr2VS4iSD8BJeRu9LC2-0" vertex="1">
          <mxGeometry x="790" y="340" width="120" height="40" as="geometry" />
        </mxCell>
        <mxCell id="hYr2VS4iSD8BJeRu9LC2-22" style="edgeStyle=orthogonalEdgeStyle;rounded=0;orthogonalLoop=1;jettySize=auto;html=1;exitX=1;exitY=0.5;exitDx=0;exitDy=0;entryX=0;entryY=0.5;entryDx=0;entryDy=0;" parent="hYr2VS4iSD8BJeRu9LC2-0" source="hYr2VS4iSD8BJeRu9LC2-5" target="hYr2VS4iSD8BJeRu9LC2-24" edge="1">
          <mxGeometry relative="1" as="geometry">
            <mxPoint x="677.5" y="290" as="sourcePoint" />
          </mxGeometry>
        </mxCell>
        <mxCell id="hYr2VS4iSD8BJeRu9LC2-23" style="edgeStyle=orthogonalEdgeStyle;rounded=0;orthogonalLoop=1;jettySize=auto;html=1;exitX=0;exitY=1;exitDx=0;exitDy=0;entryX=0.75;entryY=1;entryDx=0;entryDy=0;fillColor=#f8cecc;strokeColor=#b85450;strokeWidth=3;" parent="hYr2VS4iSD8BJeRu9LC2-0" source="hYr2VS4iSD8BJeRu9LC2-24" target="hYr2VS4iSD8BJeRu9LC2-11" edge="1">
          <mxGeometry relative="1" as="geometry">
            <Array as="points">
              <mxPoint x="800" y="470" />
              <mxPoint x="800" y="490" />
              <mxPoint x="631" y="490" />
            </Array>
          </mxGeometry>
        </mxCell>
        <mxCell id="hYr2VS4iSD8BJeRu9LC2-58" style="edgeStyle=orthogonalEdgeStyle;rounded=0;orthogonalLoop=1;jettySize=auto;html=1;exitX=0.75;exitY=1;exitDx=0;exitDy=0;strokeWidth=3;" parent="hYr2VS4iSD8BJeRu9LC2-0" source="hYr2VS4iSD8BJeRu9LC2-24" target="hYr2VS4iSD8BJeRu9LC2-56" edge="1">
          <mxGeometry relative="1" as="geometry" />
        </mxCell>
        <mxCell id="hYr2VS4iSD8BJeRu9LC2-24" value="&lt;span style=&quot;font-size: 24px&quot;&gt;router.js&lt;/span&gt;" style="whiteSpace=wrap;html=1;treeFolding=1;treeMoving=1;newEdgeStyle={&quot;edgeStyle&quot;:&quot;elbowEdgeStyle&quot;,&quot;startArrow&quot;:&quot;none&quot;,&quot;endArrow&quot;:&quot;none&quot;};" parent="hYr2VS4iSD8BJeRu9LC2-0" vertex="1">
          <mxGeometry x="790" y="430" width="120" height="40" as="geometry" />
        </mxCell>
        <mxCell id="hYr2VS4iSD8BJeRu9LC2-25" style="edgeStyle=orthogonalEdgeStyle;rounded=0;orthogonalLoop=1;jettySize=auto;html=1;exitX=1;exitY=0.5;exitDx=0;exitDy=0;entryX=0;entryY=0.5;entryDx=0;entryDy=0;" parent="hYr2VS4iSD8BJeRu9LC2-0" source="hYr2VS4iSD8BJeRu9LC2-12" target="hYr2VS4iSD8BJeRu9LC2-27" edge="1">
          <mxGeometry relative="1" as="geometry">
            <mxPoint x="735" y="290" as="sourcePoint" />
          </mxGeometry>
        </mxCell>
        <mxCell id="hYr2VS4iSD8BJeRu9LC2-26" style="edgeStyle=orthogonalEdgeStyle;rounded=0;orthogonalLoop=1;jettySize=auto;html=1;exitX=0.5;exitY=0;exitDx=0;exitDy=0;strokeWidth=3;entryX=0.5;entryY=1;entryDx=0;entryDy=0;fillColor=#e3c800;strokeColor=#B09500;" parent="hYr2VS4iSD8BJeRu9LC2-0" source="hYr2VS4iSD8BJeRu9LC2-27" target="hYr2VS4iSD8BJeRu9LC2-24" edge="1">
          <mxGeometry relative="1" as="geometry">
            <mxPoint x="950" y="420" as="targetPoint" />
            <Array as="points">
              <mxPoint x="1170" y="220" />
              <mxPoint x="1170" y="140" />
              <mxPoint x="970" y="140" />
              <mxPoint x="970" y="490" />
              <mxPoint x="850" y="490" />
            </Array>
          </mxGeometry>
        </mxCell>
        <mxCell id="hYr2VS4iSD8BJeRu9LC2-27" value="&lt;span style=&quot;font-size: 24px&quot;&gt;basic.js&lt;/span&gt;" style="whiteSpace=wrap;html=1;treeFolding=1;treeMoving=1;newEdgeStyle={&quot;edgeStyle&quot;:&quot;elbowEdgeStyle&quot;,&quot;startArrow&quot;:&quot;none&quot;,&quot;endArrow&quot;:&quot;none&quot;};" parent="hYr2VS4iSD8BJeRu9LC2-0" vertex="1">
          <mxGeometry x="1030" y="220" width="120" height="40" as="geometry" />
        </mxCell>
        <mxCell id="hYr2VS4iSD8BJeRu9LC2-28" style="edgeStyle=orthogonalEdgeStyle;rounded=0;orthogonalLoop=1;jettySize=auto;html=1;exitX=1;exitY=0.5;exitDx=0;exitDy=0;entryX=0;entryY=0.5;entryDx=0;entryDy=0;" parent="hYr2VS4iSD8BJeRu9LC2-0" source="hYr2VS4iSD8BJeRu9LC2-12" target="hYr2VS4iSD8BJeRu9LC2-29" edge="1">
          <mxGeometry relative="1" as="geometry">
            <mxPoint x="930" y="290" as="sourcePoint" />
          </mxGeometry>
        </mxCell>
        <mxCell id="hYr2VS4iSD8BJeRu9LC2-59" style="edgeStyle=orthogonalEdgeStyle;rounded=0;orthogonalLoop=1;jettySize=auto;html=1;exitX=1;exitY=0.5;exitDx=0;exitDy=0;entryX=0.356;entryY=1.009;entryDx=0;entryDy=0;entryPerimeter=0;strokeWidth=3;fillColor=#647687;strokeColor=#314354;" parent="hYr2VS4iSD8BJeRu9LC2-0" source="hYr2VS4iSD8BJeRu9LC2-29" target="hYr2VS4iSD8BJeRu9LC2-24" edge="1">
          <mxGeometry relative="1" as="geometry">
            <Array as="points">
              <mxPoint x="1240" y="190" />
              <mxPoint x="1240" y="490" />
              <mxPoint x="833" y="490" />
            </Array>
          </mxGeometry>
        </mxCell>
        <mxCell id="hYr2VS4iSD8BJeRu9LC2-29" value="&lt;span style=&quot;font-size: 24px&quot;&gt;bearer.js&lt;/span&gt;" style="whiteSpace=wrap;html=1;treeFolding=1;treeMoving=1;newEdgeStyle={&quot;edgeStyle&quot;:&quot;elbowEdgeStyle&quot;,&quot;startArrow&quot;:&quot;none&quot;,&quot;endArrow&quot;:&quot;none&quot;};" parent="hYr2VS4iSD8BJeRu9LC2-0" vertex="1">
          <mxGeometry x="1030" y="170" width="120" height="40" as="geometry" />
        </mxCell>
        <mxCell id="hYr2VS4iSD8BJeRu9LC2-32" style="edgeStyle=orthogonalEdgeStyle;rounded=0;orthogonalLoop=1;jettySize=auto;html=1;exitX=1;exitY=0.5;exitDx=0;exitDy=0;entryX=0;entryY=0.5;entryDx=0;entryDy=0;" parent="hYr2VS4iSD8BJeRu9LC2-0" source="hYr2VS4iSD8BJeRu9LC2-21" target="hYr2VS4iSD8BJeRu9LC2-35" edge="1">
          <mxGeometry relative="1" as="geometry">
            <mxPoint x="735" y="290" as="sourcePoint" />
          </mxGeometry>
        </mxCell>
        <mxCell id="hYr2VS4iSD8BJeRu9LC2-33" style="edgeStyle=orthogonalEdgeStyle;rounded=0;orthogonalLoop=1;jettySize=auto;html=1;exitX=1;exitY=0.5;exitDx=0;exitDy=0;entryX=1;entryY=0.5;entryDx=0;entryDy=0;strokeWidth=3;fillColor=#0050ef;strokeColor=#001DBC;" parent="hYr2VS4iSD8BJeRu9LC2-0" source="hYr2VS4iSD8BJeRu9LC2-35" target="hYr2VS4iSD8BJeRu9LC2-27" edge="1">
          <mxGeometry relative="1" as="geometry" />
        </mxCell>
        <mxCell id="hYr2VS4iSD8BJeRu9LC2-34" style="edgeStyle=orthogonalEdgeStyle;rounded=0;orthogonalLoop=1;jettySize=auto;html=1;exitX=0.25;exitY=1;exitDx=0;exitDy=0;entryX=1;entryY=0.5;entryDx=0;entryDy=0;strokeWidth=3;fillColor=#6d8764;strokeColor=#3A5431;" parent="hYr2VS4iSD8BJeRu9LC2-0" source="hYr2VS4iSD8BJeRu9LC2-35" target="hYr2VS4iSD8BJeRu9LC2-24" edge="1">
          <mxGeometry relative="1" as="geometry" />
        </mxCell>
        <mxCell id="hYr2VS4iSD8BJeRu9LC2-61" style="edgeStyle=orthogonalEdgeStyle;rounded=0;orthogonalLoop=1;jettySize=auto;html=1;exitX=0.25;exitY=0;exitDx=0;exitDy=0;entryX=0.5;entryY=0;entryDx=0;entryDy=0;strokeWidth=3;fillColor=#fa6800;strokeColor=#C73500;" parent="hYr2VS4iSD8BJeRu9LC2-0" source="hYr2VS4iSD8BJeRu9LC2-35" target="hYr2VS4iSD8BJeRu9LC2-29" edge="1">
          <mxGeometry relative="1" as="geometry" />
        </mxCell>
        <mxCell id="hYr2VS4iSD8BJeRu9LC2-35" value="&lt;span style=&quot;font-size: 24px&quot;&gt;users.js&lt;/span&gt;" style="whiteSpace=wrap;html=1;treeFolding=1;treeMoving=1;newEdgeStyle={&quot;edgeStyle&quot;:&quot;elbowEdgeStyle&quot;,&quot;startArrow&quot;:&quot;none&quot;,&quot;endArrow&quot;:&quot;none&quot;};" parent="hYr2VS4iSD8BJeRu9LC2-0" vertex="1">
          <mxGeometry x="1021.25" y="335" width="137.5" height="50" as="geometry" />
        </mxCell>
        <mxCell id="hYr2VS4iSD8BJeRu9LC2-36" value="&lt;div style=&quot;font-family: &amp;#34;consolas&amp;#34; , &amp;#34;courier new&amp;#34; , monospace ; line-height: 19px&quot;&gt;&lt;span style=&quot;background-color: rgb(255 , 255 , 255)&quot;&gt;&lt;font style=&quot;font-size: 18px&quot;&gt;&lt;b&gt;mongoose&lt;/b&gt;&lt;/font&gt;&lt;/span&gt;&lt;/div&gt;" style="whiteSpace=wrap;html=1;rounded=1;arcSize=50;align=center;verticalAlign=middle;strokeWidth=1;autosize=1;spacing=4;treeFolding=1;treeMoving=1;newEdgeStyle={&quot;edgeStyle&quot;:&quot;entityRelationEdgeStyle&quot;,&quot;startArrow&quot;:&quot;none&quot;,&quot;endArrow&quot;:&quot;none&quot;,&quot;segment&quot;:10,&quot;curved&quot;:1};" parent="hYr2VS4iSD8BJeRu9LC2-0" vertex="1">
          <mxGeometry x="65" y="88" width="120" height="30" as="geometry" />
        </mxCell>
        <mxCell id="hYr2VS4iSD8BJeRu9LC2-37" value="" style="edgeStyle=entityRelationEdgeStyle;startArrow=none;endArrow=none;segment=10;curved=1;strokeWidth=3;exitX=0.861;exitY=0.008;exitDx=0;exitDy=0;exitPerimeter=0;" parent="hYr2VS4iSD8BJeRu9LC2-0" source="hYr2VS4iSD8BJeRu9LC2-1" target="hYr2VS4iSD8BJeRu9LC2-36" edge="1">
          <mxGeometry relative="1" as="geometry">
            <mxPoint x="120" y="150" as="sourcePoint" />
          </mxGeometry>
        </mxCell>
        <mxCell id="hYr2VS4iSD8BJeRu9LC2-38" value="" style="edgeStyle=entityRelationEdgeStyle;startArrow=none;endArrow=none;segment=10;curved=1;strokeWidth=3;exitX=0.861;exitY=0.008;exitDx=0;exitDy=0;exitPerimeter=0;" parent="hYr2VS4iSD8BJeRu9LC2-0" source="hYr2VS4iSD8BJeRu9LC2-1" target="hYr2VS4iSD8BJeRu9LC2-39" edge="1">
          <mxGeometry relative="1" as="geometry">
            <mxPoint x="253.31999999999994" y="190.31999999999994" as="sourcePoint" />
          </mxGeometry>
        </mxCell>
        <mxCell id="hYr2VS4iSD8BJeRu9LC2-39" value="&lt;div style=&quot;font-family: &amp;#34;consolas&amp;#34; , &amp;#34;courier new&amp;#34; , monospace ; line-height: 19px&quot;&gt;&lt;span style=&quot;background-color: rgb(255 , 255 , 255)&quot;&gt;&lt;font style=&quot;font-size: 18px&quot;&gt;&lt;b&gt;dotenv&lt;/b&gt;&lt;/font&gt;&lt;/span&gt;&lt;/div&gt;" style="whiteSpace=wrap;html=1;rounded=1;arcSize=50;align=center;verticalAlign=middle;strokeWidth=1;autosize=1;spacing=4;treeFolding=1;treeMoving=1;newEdgeStyle={&quot;edgeStyle&quot;:&quot;entityRelationEdgeStyle&quot;,&quot;startArrow&quot;:&quot;none&quot;,&quot;endArrow&quot;:&quot;none&quot;,&quot;segment&quot;:10,&quot;curved&quot;:1};" parent="hYr2VS4iSD8BJeRu9LC2-0" vertex="1">
          <mxGeometry x="75" y="48" width="100" height="30" as="geometry" />
        </mxCell>
        <mxCell id="hYr2VS4iSD8BJeRu9LC2-40" value="&lt;font style=&quot;font-size: 18px&quot;&gt;express&lt;/font&gt;" style="whiteSpace=wrap;html=1;rounded=1;arcSize=50;align=center;verticalAlign=middle;strokeWidth=1;autosize=1;spacing=4;treeFolding=1;treeMoving=1;newEdgeStyle={&quot;edgeStyle&quot;:&quot;entityRelationEdgeStyle&quot;,&quot;startArrow&quot;:&quot;none&quot;,&quot;endArrow&quot;:&quot;none&quot;,&quot;segment&quot;:10,&quot;curved&quot;:1};" parent="hYr2VS4iSD8BJeRu9LC2-0" vertex="1">
          <mxGeometry x="437.5" y="530" width="100" height="30" as="geometry" />
        </mxCell>
        <mxCell id="hYr2VS4iSD8BJeRu9LC2-41" value="" style="edgeStyle=entityRelationEdgeStyle;startArrow=none;endArrow=none;segment=10;curved=1;strokeWidth=3;exitX=0.395;exitY=1.092;exitDx=0;exitDy=0;exitPerimeter=0;" parent="hYr2VS4iSD8BJeRu9LC2-0" source="hYr2VS4iSD8BJeRu9LC2-11" target="hYr2VS4iSD8BJeRu9LC2-40" edge="1">
          <mxGeometry relative="1" as="geometry">
            <mxPoint x="570" y="440" as="sourcePoint" />
          </mxGeometry>
        </mxCell>
        <mxCell id="hYr2VS4iSD8BJeRu9LC2-42" value="" style="edgeStyle=entityRelationEdgeStyle;startArrow=none;endArrow=none;segment=10;curved=1;strokeWidth=3;exitX=0.395;exitY=1.092;exitDx=0;exitDy=0;exitPerimeter=0;" parent="hYr2VS4iSD8BJeRu9LC2-0" source="hYr2VS4iSD8BJeRu9LC2-11" target="hYr2VS4iSD8BJeRu9LC2-43" edge="1">
          <mxGeometry relative="1" as="geometry">
            <mxPoint x="613.3249999999998" y="473.67999999999984" as="sourcePoint" />
          </mxGeometry>
        </mxCell>
        <mxCell id="hYr2VS4iSD8BJeRu9LC2-43" value="&lt;font style=&quot;font-size: 18px&quot;&gt;cors&lt;/font&gt;" style="whiteSpace=wrap;html=1;rounded=1;arcSize=50;align=center;verticalAlign=middle;strokeWidth=1;autosize=1;spacing=4;treeFolding=1;treeMoving=1;newEdgeStyle={&quot;edgeStyle&quot;:&quot;entityRelationEdgeStyle&quot;,&quot;startArrow&quot;:&quot;none&quot;,&quot;endArrow&quot;:&quot;none&quot;,&quot;segment&quot;:10,&quot;curved&quot;:1};" parent="hYr2VS4iSD8BJeRu9LC2-0" vertex="1">
          <mxGeometry x="620" y="550" width="80" height="38" as="geometry" />
        </mxCell>
        <mxCell id="hYr2VS4iSD8BJeRu9LC2-44" value="" style="edgeStyle=entityRelationEdgeStyle;startArrow=none;endArrow=none;segment=10;curved=1;strokeWidth=3;exitX=0.395;exitY=1.092;exitDx=0;exitDy=0;exitPerimeter=0;" parent="hYr2VS4iSD8BJeRu9LC2-0" source="hYr2VS4iSD8BJeRu9LC2-11" target="hYr2VS4iSD8BJeRu9LC2-45" edge="1">
          <mxGeometry relative="1" as="geometry">
            <mxPoint x="613.3249999999998" y="473.67999999999984" as="sourcePoint" />
          </mxGeometry>
        </mxCell>
        <mxCell id="hYr2VS4iSD8BJeRu9LC2-45" value="&lt;font style=&quot;font-size: 18px&quot;&gt;morgan&lt;/font&gt;" style="whiteSpace=wrap;html=1;rounded=1;arcSize=50;align=center;verticalAlign=middle;strokeWidth=1;autosize=1;spacing=4;treeFolding=1;treeMoving=1;newEdgeStyle={&quot;edgeStyle&quot;:&quot;entityRelationEdgeStyle&quot;,&quot;startArrow&quot;:&quot;none&quot;,&quot;endArrow&quot;:&quot;none&quot;,&quot;segment&quot;:10,&quot;curved&quot;:1};" parent="hYr2VS4iSD8BJeRu9LC2-0" vertex="1">
          <mxGeometry x="476" y="588" width="100" height="30" as="geometry" />
        </mxCell>
        <mxCell id="hYr2VS4iSD8BJeRu9LC2-48" style="edgeStyle=orthogonalEdgeStyle;rounded=0;orthogonalLoop=1;jettySize=auto;html=1;exitX=0.25;exitY=0;exitDx=0;exitDy=0;entryX=0.75;entryY=1;entryDx=0;entryDy=0;strokeWidth=3;startArrow=block;startFill=1;endArrow=none;endFill=0;" parent="hYr2VS4iSD8BJeRu9LC2-0" source="hYr2VS4iSD8BJeRu9LC2-49" target="hYr2VS4iSD8BJeRu9LC2-35" edge="1">
          <mxGeometry relative="1" as="geometry" />
        </mxCell>
        <mxCell id="hYr2VS4iSD8BJeRu9LC2-49" value="&lt;div style=&quot;font-family: &amp;#34;consolas&amp;#34; , &amp;#34;courier new&amp;#34; , monospace ; line-height: 19px&quot;&gt;&lt;span style=&quot;background-color: rgb(255 , 255 , 255)&quot;&gt;&lt;font style=&quot;font-size: 18px&quot;&gt;&lt;b&gt;mongoose&lt;/b&gt;&lt;/font&gt;&lt;/span&gt;&lt;/div&gt;" style="whiteSpace=wrap;html=1;rounded=1;arcSize=50;align=center;verticalAlign=middle;strokeWidth=1;autosize=1;spacing=4;treeFolding=1;treeMoving=1;newEdgeStyle={&quot;edgeStyle&quot;:&quot;entityRelationEdgeStyle&quot;,&quot;startArrow&quot;:&quot;none&quot;,&quot;endArrow&quot;:&quot;none&quot;,&quot;segment&quot;:10,&quot;curved&quot;:1};" parent="hYr2VS4iSD8BJeRu9LC2-0" vertex="1">
          <mxGeometry x="1080" y="440" width="120" height="30" as="geometry" />
        </mxCell>
        <mxCell id="hYr2VS4iSD8BJeRu9LC2-50" style="edgeStyle=orthogonalEdgeStyle;rounded=0;orthogonalLoop=1;jettySize=auto;html=1;exitX=0.25;exitY=1;exitDx=0;exitDy=0;entryX=1;entryY=0.25;entryDx=0;entryDy=0;startArrow=block;startFill=1;endArrow=none;endFill=0;strokeWidth=3;" parent="hYr2VS4iSD8BJeRu9LC2-0" source="hYr2VS4iSD8BJeRu9LC2-51" target="hYr2VS4iSD8BJeRu9LC2-27" edge="1">
          <mxGeometry relative="1" as="geometry" />
        </mxCell>
        <mxCell id="hYr2VS4iSD8BJeRu9LC2-51" value="&lt;div style=&quot;font-family: &amp;#34;consolas&amp;#34; , &amp;#34;courier new&amp;#34; , monospace ; line-height: 19px&quot;&gt;&lt;b style=&quot;font-size: 18px ; background-color: rgb(255 , 255 , 255)&quot;&gt;base-64&lt;/b&gt;&lt;br&gt;&lt;/div&gt;" style="whiteSpace=wrap;html=1;rounded=1;arcSize=50;align=center;verticalAlign=middle;strokeWidth=1;autosize=1;spacing=4;treeFolding=1;treeMoving=1;newEdgeStyle={&quot;edgeStyle&quot;:&quot;entityRelationEdgeStyle&quot;,&quot;startArrow&quot;:&quot;none&quot;,&quot;endArrow&quot;:&quot;none&quot;,&quot;segment&quot;:10,&quot;curved&quot;:1};" parent="hYr2VS4iSD8BJeRu9LC2-0" vertex="1">
          <mxGeometry x="1190" y="130" width="110" height="30" as="geometry" />
        </mxCell>
        <mxCell id="hYr2VS4iSD8BJeRu9LC2-56" value="&lt;div style=&quot;font-family: &amp;#34;consolas&amp;#34; , &amp;#34;courier new&amp;#34; , monospace ; line-height: 19px&quot;&gt;&lt;span style=&quot;background-color: rgb(255 , 255 , 255)&quot;&gt;&lt;font style=&quot;font-size: 18px&quot;&gt;&lt;b&gt;express&lt;/b&gt;&lt;/font&gt;&lt;/span&gt;&lt;/div&gt;" style="whiteSpace=wrap;html=1;rounded=1;arcSize=50;align=center;verticalAlign=middle;strokeWidth=1;autosize=1;spacing=4;treeFolding=1;treeMoving=1;newEdgeStyle={&quot;edgeStyle&quot;:&quot;entityRelationEdgeStyle&quot;,&quot;startArrow&quot;:&quot;none&quot;,&quot;endArrow&quot;:&quot;none&quot;,&quot;segment&quot;:10,&quot;curved&quot;:1};" parent="hYr2VS4iSD8BJeRu9LC2-0" vertex="1">
          <mxGeometry x="810" y="530" width="110" height="30" as="geometry" />
        </mxCell>
      </root>
    </mxGraphModel>
  </diagram>
  <diagram id="dFS0BbUS2GQNznAgGeNr" name="Page-3">
    <mxGraphModel dx="1038" dy="556" grid="1" gridSize="10" guides="1" tooltips="1" connect="1" arrows="1" fold="1" page="1" pageScale="1" pageWidth="850" pageHeight="1100" math="0" shadow="0">
      <root>
        <mxCell id="pX0rXofa_xFjaR0xCOmU-0" />
        <mxCell id="pX0rXofa_xFjaR0xCOmU-1" parent="pX0rXofa_xFjaR0xCOmU-0" />
        <mxCell id="DSKLPGIF9iKTOLvWG-pe-0" value="&lt;font style=&quot;font-size: 36px&quot;&gt;auth-api&lt;/font&gt;" style="swimlane;html=1;startSize=50;horizontal=1;containerType=tree;" parent="pX0rXofa_xFjaR0xCOmU-1" vertex="1">
          <mxGeometry x="40" y="20" width="1650" height="770" as="geometry" />
        </mxCell>
        <mxCell id="iqtAk_gLVTz3530pTnfA-0" value="&lt;span style=&quot;font-size: 24px&quot;&gt;src&lt;/span&gt;" style="whiteSpace=wrap;html=1;treeFolding=1;treeMoving=1;newEdgeStyle={&quot;edgeStyle&quot;:&quot;elbowEdgeStyle&quot;,&quot;startArrow&quot;:&quot;none&quot;,&quot;endArrow&quot;:&quot;none&quot;};" parent="DSKLPGIF9iKTOLvWG-pe-0" vertex="1">
          <mxGeometry x="440" y="140" width="120" height="40" as="geometry" />
        </mxCell>
        <mxCell id="iqtAk_gLVTz3530pTnfA-5" value="" style="edgeStyle=elbowEdgeStyle;rounded=0;orthogonalLoop=1;jettySize=auto;html=1;elbow=horizontal;startArrow=none;endArrow=none;" parent="DSKLPGIF9iKTOLvWG-pe-0" source="iqtAk_gLVTz3530pTnfA-0" target="iqtAk_gLVTz3530pTnfA-6" edge="1">
          <mxGeometry relative="1" as="geometry" />
        </mxCell>
        <mxCell id="iqtAk_gLVTz3530pTnfA-6" value="&lt;span style=&quot;font-size: 24px&quot;&gt;index.js&lt;/span&gt;" style="whiteSpace=wrap;html=1;treeFolding=1;treeMoving=1;newEdgeStyle={&quot;edgeStyle&quot;:&quot;elbowEdgeStyle&quot;,&quot;startArrow&quot;:&quot;none&quot;,&quot;endArrow&quot;:&quot;none&quot;};" parent="DSKLPGIF9iKTOLvWG-pe-0" vertex="1">
          <mxGeometry x="160" y="140" width="120" height="40" as="geometry" />
        </mxCell>
        <mxCell id="iqtAk_gLVTz3530pTnfA-7" value="" style="edgeStyle=elbowEdgeStyle;rounded=0;orthogonalLoop=1;jettySize=auto;html=1;elbow=vertical;startArrow=none;endArrow=none;" parent="DSKLPGIF9iKTOLvWG-pe-0" target="iqtAk_gLVTz3530pTnfA-8" edge="1">
          <mxGeometry relative="1" as="geometry">
            <mxPoint x="500" y="180" as="sourcePoint" />
            <Array as="points">
              <mxPoint x="450" y="200" />
              <mxPoint x="470" y="210" />
            </Array>
          </mxGeometry>
        </mxCell>
        <mxCell id="iqtAk_gLVTz3530pTnfA-8" value="&lt;span style=&quot;font-size: 24px&quot;&gt;auth&lt;/span&gt;" style="whiteSpace=wrap;html=1;treeFolding=1;treeMoving=1;newEdgeStyle={&quot;edgeStyle&quot;:&quot;elbowEdgeStyle&quot;,&quot;startArrow&quot;:&quot;none&quot;,&quot;endArrow&quot;:&quot;none&quot;};" parent="DSKLPGIF9iKTOLvWG-pe-0" vertex="1">
          <mxGeometry x="270" y="240" width="120" height="40" as="geometry" />
        </mxCell>
        <mxCell id="iqtAk_gLVTz3530pTnfA-11" value="" style="edgeStyle=elbowEdgeStyle;rounded=0;orthogonalLoop=1;jettySize=auto;html=1;elbow=vertical;startArrow=none;endArrow=none;" parent="DSKLPGIF9iKTOLvWG-pe-0" target="iqtAk_gLVTz3530pTnfA-12" edge="1">
          <mxGeometry relative="1" as="geometry">
            <mxPoint x="500" y="180" as="sourcePoint" />
          </mxGeometry>
        </mxCell>
        <mxCell id="iqtAk_gLVTz3530pTnfA-12" value="&lt;span style=&quot;font-size: 24px&quot;&gt;error-handlers&lt;/span&gt;" style="whiteSpace=wrap;html=1;treeFolding=1;treeMoving=1;newEdgeStyle={&quot;edgeStyle&quot;:&quot;elbowEdgeStyle&quot;,&quot;startArrow&quot;:&quot;none&quot;,&quot;endArrow&quot;:&quot;none&quot;};" parent="DSKLPGIF9iKTOLvWG-pe-0" vertex="1">
          <mxGeometry x="480" y="230" width="130" height="50" as="geometry" />
        </mxCell>
        <mxCell id="iqtAk_gLVTz3530pTnfA-13" value="" style="edgeStyle=elbowEdgeStyle;rounded=0;orthogonalLoop=1;jettySize=auto;html=1;elbow=vertical;startArrow=none;endArrow=none;" parent="DSKLPGIF9iKTOLvWG-pe-0" target="iqtAk_gLVTz3530pTnfA-14" edge="1">
          <mxGeometry relative="1" as="geometry">
            <mxPoint x="500" y="180" as="sourcePoint" />
          </mxGeometry>
        </mxCell>
        <mxCell id="iqtAk_gLVTz3530pTnfA-14" value="&lt;span style=&quot;font-size: 24px&quot;&gt;models&lt;/span&gt;" style="whiteSpace=wrap;html=1;treeFolding=1;treeMoving=1;newEdgeStyle={&quot;edgeStyle&quot;:&quot;elbowEdgeStyle&quot;,&quot;startArrow&quot;:&quot;none&quot;,&quot;endArrow&quot;:&quot;none&quot;};" parent="DSKLPGIF9iKTOLvWG-pe-0" vertex="1">
          <mxGeometry x="830" y="230" width="130" height="50" as="geometry" />
        </mxCell>
        <mxCell id="iqtAk_gLVTz3530pTnfA-15" value="" style="edgeStyle=elbowEdgeStyle;rounded=0;orthogonalLoop=1;jettySize=auto;html=1;elbow=vertical;startArrow=none;endArrow=none;" parent="DSKLPGIF9iKTOLvWG-pe-0" target="iqtAk_gLVTz3530pTnfA-16" edge="1">
          <mxGeometry relative="1" as="geometry">
            <mxPoint x="500" y="180" as="sourcePoint" />
            <Array as="points">
              <mxPoint x="1150" y="205" />
            </Array>
          </mxGeometry>
        </mxCell>
        <mxCell id="iqtAk_gLVTz3530pTnfA-16" value="&lt;span style=&quot;font-size: 24px&quot;&gt;routes&lt;/span&gt;" style="whiteSpace=wrap;html=1;treeFolding=1;treeMoving=1;newEdgeStyle={&quot;edgeStyle&quot;:&quot;elbowEdgeStyle&quot;,&quot;startArrow&quot;:&quot;none&quot;,&quot;endArrow&quot;:&quot;none&quot;};" parent="DSKLPGIF9iKTOLvWG-pe-0" vertex="1">
          <mxGeometry x="1120" y="230" width="130" height="50" as="geometry" />
        </mxCell>
        <mxCell id="iqtAk_gLVTz3530pTnfA-17" value="" style="edgeStyle=elbowEdgeStyle;rounded=0;orthogonalLoop=1;jettySize=auto;html=1;elbow=vertical;startArrow=none;endArrow=none;entryX=0.5;entryY=0;entryDx=0;entryDy=0;" parent="DSKLPGIF9iKTOLvWG-pe-0" target="iqtAk_gLVTz3530pTnfA-18" edge="1">
          <mxGeometry relative="1" as="geometry">
            <mxPoint x="500" y="180" as="sourcePoint" />
            <mxPoint x="1175" y="230" as="targetPoint" />
          </mxGeometry>
        </mxCell>
        <mxCell id="iqtAk_gLVTz3530pTnfA-55" style="edgeStyle=orthogonalEdgeStyle;rounded=0;orthogonalLoop=1;jettySize=auto;html=1;exitX=0.75;exitY=0;exitDx=0;exitDy=0;entryX=0.5;entryY=0;entryDx=0;entryDy=0;endArrow=open;endFill=0;fillColor=#d5e8d4;strokeColor=#82b366;strokeWidth=5;" parent="DSKLPGIF9iKTOLvWG-pe-0" source="iqtAk_gLVTz3530pTnfA-18" target="iqtAk_gLVTz3530pTnfA-6" edge="1">
          <mxGeometry relative="1" as="geometry" />
        </mxCell>
        <mxCell id="iqtAk_gLVTz3530pTnfA-18" value="&lt;span style=&quot;font-size: 24px&quot;&gt;server.js&lt;/span&gt;" style="whiteSpace=wrap;html=1;treeFolding=1;treeMoving=1;newEdgeStyle={&quot;edgeStyle&quot;:&quot;elbowEdgeStyle&quot;,&quot;startArrow&quot;:&quot;none&quot;,&quot;endArrow&quot;:&quot;none&quot;};" parent="DSKLPGIF9iKTOLvWG-pe-0" vertex="1">
          <mxGeometry x="1420" y="230" width="130" height="50" as="geometry" />
        </mxCell>
        <mxCell id="iqtAk_gLVTz3530pTnfA-19" value="" style="edgeStyle=elbowEdgeStyle;rounded=0;orthogonalLoop=1;jettySize=auto;html=1;elbow=vertical;startArrow=none;endArrow=none;" parent="DSKLPGIF9iKTOLvWG-pe-0" source="iqtAk_gLVTz3530pTnfA-12" target="iqtAk_gLVTz3530pTnfA-20" edge="1">
          <mxGeometry relative="1" as="geometry">
            <mxPoint x="770" y="220" as="sourcePoint" />
          </mxGeometry>
        </mxCell>
        <mxCell id="iqtAk_gLVTz3530pTnfA-57" style="edgeStyle=orthogonalEdgeStyle;rounded=0;orthogonalLoop=1;jettySize=auto;html=1;exitX=1;exitY=1;exitDx=0;exitDy=0;entryX=0.648;entryY=1.011;entryDx=0;entryDy=0;entryPerimeter=0;endArrow=open;endFill=0;strokeWidth=5;fillColor=#f8cecc;strokeColor=#b85450;" parent="DSKLPGIF9iKTOLvWG-pe-0" source="iqtAk_gLVTz3530pTnfA-20" target="iqtAk_gLVTz3530pTnfA-18" edge="1">
          <mxGeometry relative="1" as="geometry">
            <Array as="points">
              <mxPoint x="540" y="390" />
              <mxPoint x="640" y="390" />
              <mxPoint x="640" y="490" />
              <mxPoint x="1504" y="490" />
            </Array>
          </mxGeometry>
        </mxCell>
        <mxCell id="iqtAk_gLVTz3530pTnfA-20" value="&lt;span style=&quot;font-size: 24px&quot;&gt;404.js&lt;/span&gt;" style="whiteSpace=wrap;html=1;treeFolding=1;treeMoving=1;newEdgeStyle={&quot;edgeStyle&quot;:&quot;elbowEdgeStyle&quot;,&quot;startArrow&quot;:&quot;none&quot;,&quot;endArrow&quot;:&quot;none&quot;};" parent="DSKLPGIF9iKTOLvWG-pe-0" vertex="1">
          <mxGeometry x="410" y="320" width="130" height="50" as="geometry" />
        </mxCell>
        <mxCell id="iqtAk_gLVTz3530pTnfA-21" value="" style="edgeStyle=elbowEdgeStyle;rounded=0;orthogonalLoop=1;jettySize=auto;html=1;elbow=vertical;startArrow=none;endArrow=none;" parent="DSKLPGIF9iKTOLvWG-pe-0" source="iqtAk_gLVTz3530pTnfA-12" target="iqtAk_gLVTz3530pTnfA-22" edge="1">
          <mxGeometry relative="1" as="geometry">
            <mxPoint x="615" y="320" as="sourcePoint" />
          </mxGeometry>
        </mxCell>
        <mxCell id="iqtAk_gLVTz3530pTnfA-56" style="edgeStyle=orthogonalEdgeStyle;rounded=0;orthogonalLoop=1;jettySize=auto;html=1;exitX=0.75;exitY=1;exitDx=0;exitDy=0;entryX=0.877;entryY=1.034;entryDx=0;entryDy=0;entryPerimeter=0;endArrow=open;endFill=0;strokeWidth=5;fillColor=#f8cecc;strokeColor=#b85450;" parent="DSKLPGIF9iKTOLvWG-pe-0" source="iqtAk_gLVTz3530pTnfA-22" target="iqtAk_gLVTz3530pTnfA-18" edge="1">
          <mxGeometry relative="1" as="geometry">
            <Array as="points">
              <mxPoint x="648" y="470" />
              <mxPoint x="1534" y="470" />
            </Array>
          </mxGeometry>
        </mxCell>
        <mxCell id="iqtAk_gLVTz3530pTnfA-22" value="&lt;span style=&quot;font-size: 24px&quot;&gt;500.js&lt;/span&gt;" style="whiteSpace=wrap;html=1;treeFolding=1;treeMoving=1;newEdgeStyle={&quot;edgeStyle&quot;:&quot;elbowEdgeStyle&quot;,&quot;startArrow&quot;:&quot;none&quot;,&quot;endArrow&quot;:&quot;none&quot;};" parent="DSKLPGIF9iKTOLvWG-pe-0" vertex="1">
          <mxGeometry x="550" y="320" width="130" height="50" as="geometry" />
        </mxCell>
        <mxCell id="iqtAk_gLVTz3530pTnfA-23" value="" style="edgeStyle=elbowEdgeStyle;rounded=0;orthogonalLoop=1;jettySize=auto;html=1;elbow=vertical;startArrow=none;endArrow=none;" parent="DSKLPGIF9iKTOLvWG-pe-0" source="iqtAk_gLVTz3530pTnfA-14" target="iqtAk_gLVTz3530pTnfA-24" edge="1">
          <mxGeometry relative="1" as="geometry">
            <mxPoint x="770" y="220" as="sourcePoint" />
          </mxGeometry>
        </mxCell>
        <mxCell id="iqtAk_gLVTz3530pTnfA-24" value="&lt;span style=&quot;font-size: 24px&quot;&gt;clothes&lt;/span&gt;" style="whiteSpace=wrap;html=1;treeFolding=1;treeMoving=1;newEdgeStyle={&quot;edgeStyle&quot;:&quot;elbowEdgeStyle&quot;,&quot;startArrow&quot;:&quot;none&quot;,&quot;endArrow&quot;:&quot;none&quot;};" parent="DSKLPGIF9iKTOLvWG-pe-0" vertex="1">
          <mxGeometry x="690" y="320" width="130" height="50" as="geometry" />
        </mxCell>
        <mxCell id="iqtAk_gLVTz3530pTnfA-25" value="" style="edgeStyle=elbowEdgeStyle;rounded=0;orthogonalLoop=1;jettySize=auto;html=1;elbow=vertical;startArrow=none;endArrow=none;" parent="DSKLPGIF9iKTOLvWG-pe-0" source="iqtAk_gLVTz3530pTnfA-14" target="iqtAk_gLVTz3530pTnfA-26" edge="1">
          <mxGeometry relative="1" as="geometry">
            <mxPoint x="825" y="320" as="sourcePoint" />
          </mxGeometry>
        </mxCell>
        <mxCell id="iqtAk_gLVTz3530pTnfA-26" value="&lt;span style=&quot;font-size: 24px&quot;&gt;food&lt;/span&gt;" style="whiteSpace=wrap;html=1;treeFolding=1;treeMoving=1;newEdgeStyle={&quot;edgeStyle&quot;:&quot;elbowEdgeStyle&quot;,&quot;startArrow&quot;:&quot;none&quot;,&quot;endArrow&quot;:&quot;none&quot;};" parent="DSKLPGIF9iKTOLvWG-pe-0" vertex="1">
          <mxGeometry x="830" y="320" width="130" height="50" as="geometry" />
        </mxCell>
        <mxCell id="iqtAk_gLVTz3530pTnfA-27" value="" style="edgeStyle=elbowEdgeStyle;rounded=0;orthogonalLoop=1;jettySize=auto;html=1;elbow=vertical;startArrow=none;endArrow=none;exitX=0.25;exitY=1;exitDx=0;exitDy=0;" parent="DSKLPGIF9iKTOLvWG-pe-0" source="iqtAk_gLVTz3530pTnfA-16" target="iqtAk_gLVTz3530pTnfA-28" edge="1">
          <mxGeometry relative="1" as="geometry">
            <mxPoint x="1090" y="290" as="sourcePoint" />
          </mxGeometry>
        </mxCell>
        <mxCell id="iqtAk_gLVTz3530pTnfA-62" style="edgeStyle=orthogonalEdgeStyle;rounded=0;orthogonalLoop=1;jettySize=auto;html=1;exitX=0.75;exitY=1;exitDx=0;exitDy=0;entryX=0.25;entryY=1;entryDx=0;entryDy=0;endArrow=open;endFill=0;strokeWidth=5;fillColor=#dae8fc;strokeColor=#6c8ebf;" parent="DSKLPGIF9iKTOLvWG-pe-0" source="iqtAk_gLVTz3530pTnfA-28" target="iqtAk_gLVTz3530pTnfA-34" edge="1">
          <mxGeometry relative="1" as="geometry" />
        </mxCell>
        <mxCell id="iqtAk_gLVTz3530pTnfA-63" style="edgeStyle=orthogonalEdgeStyle;rounded=0;orthogonalLoop=1;jettySize=auto;html=1;exitX=0.5;exitY=1;exitDx=0;exitDy=0;entryX=0.5;entryY=1;entryDx=0;entryDy=0;endArrow=open;endFill=0;strokeWidth=5;fillColor=#ffe6cc;strokeColor=#d79b00;" parent="DSKLPGIF9iKTOLvWG-pe-0" source="iqtAk_gLVTz3530pTnfA-28" target="iqtAk_gLVTz3530pTnfA-38" edge="1">
          <mxGeometry relative="1" as="geometry">
            <Array as="points">
              <mxPoint x="1040" y="410" />
              <mxPoint x="1325" y="410" />
            </Array>
          </mxGeometry>
        </mxCell>
        <mxCell id="iqtAk_gLVTz3530pTnfA-28" value="&lt;span style=&quot;font-size: 24px&quot;&gt;data-collection.js&lt;/span&gt;" style="whiteSpace=wrap;html=1;treeFolding=1;treeMoving=1;newEdgeStyle={&quot;edgeStyle&quot;:&quot;elbowEdgeStyle&quot;,&quot;startArrow&quot;:&quot;none&quot;,&quot;endArrow&quot;:&quot;none&quot;};" parent="DSKLPGIF9iKTOLvWG-pe-0" vertex="1">
          <mxGeometry x="970" y="320" width="140" height="60" as="geometry" />
        </mxCell>
        <mxCell id="iqtAk_gLVTz3530pTnfA-29" value="" style="edgeStyle=elbowEdgeStyle;rounded=0;orthogonalLoop=1;jettySize=auto;html=1;elbow=vertical;startArrow=none;endArrow=none;" parent="DSKLPGIF9iKTOLvWG-pe-0" source="iqtAk_gLVTz3530pTnfA-24" target="iqtAk_gLVTz3530pTnfA-30" edge="1">
          <mxGeometry relative="1" as="geometry">
            <mxPoint x="985" y="320" as="sourcePoint" />
          </mxGeometry>
        </mxCell>
        <mxCell id="iqtAk_gLVTz3530pTnfA-30" value="&lt;span style=&quot;font-size: 24px&quot;&gt;model.js&lt;/span&gt;" style="whiteSpace=wrap;html=1;treeFolding=1;treeMoving=1;newEdgeStyle={&quot;edgeStyle&quot;:&quot;elbowEdgeStyle&quot;,&quot;startArrow&quot;:&quot;none&quot;,&quot;endArrow&quot;:&quot;none&quot;};" parent="DSKLPGIF9iKTOLvWG-pe-0" vertex="1">
          <mxGeometry x="690" y="410" width="130" height="50" as="geometry" />
        </mxCell>
        <mxCell id="iqtAk_gLVTz3530pTnfA-31" value="" style="edgeStyle=elbowEdgeStyle;rounded=0;orthogonalLoop=1;jettySize=auto;html=1;elbow=vertical;startArrow=none;endArrow=none;" parent="DSKLPGIF9iKTOLvWG-pe-0" source="iqtAk_gLVTz3530pTnfA-26" target="iqtAk_gLVTz3530pTnfA-32" edge="1">
          <mxGeometry relative="1" as="geometry">
            <mxPoint x="985" y="320" as="sourcePoint" />
          </mxGeometry>
        </mxCell>
        <mxCell id="iqtAk_gLVTz3530pTnfA-32" value="&lt;span style=&quot;font-size: 24px&quot;&gt;model.js&lt;/span&gt;" style="whiteSpace=wrap;html=1;treeFolding=1;treeMoving=1;newEdgeStyle={&quot;edgeStyle&quot;:&quot;elbowEdgeStyle&quot;,&quot;startArrow&quot;:&quot;none&quot;,&quot;endArrow&quot;:&quot;none&quot;};" parent="DSKLPGIF9iKTOLvWG-pe-0" vertex="1">
          <mxGeometry x="830" y="410" width="130" height="50" as="geometry" />
        </mxCell>
        <mxCell id="iqtAk_gLVTz3530pTnfA-33" value="" style="edgeStyle=elbowEdgeStyle;rounded=0;orthogonalLoop=1;jettySize=auto;html=1;elbow=vertical;startArrow=none;endArrow=none;" parent="DSKLPGIF9iKTOLvWG-pe-0" source="iqtAk_gLVTz3530pTnfA-16" target="iqtAk_gLVTz3530pTnfA-34" edge="1">
          <mxGeometry relative="1" as="geometry">
            <mxPoint x="590" y="220" as="sourcePoint" />
          </mxGeometry>
        </mxCell>
        <mxCell id="iqtAk_gLVTz3530pTnfA-59" style="edgeStyle=orthogonalEdgeStyle;rounded=0;orthogonalLoop=1;jettySize=auto;html=1;exitX=0.5;exitY=1;exitDx=0;exitDy=0;entryX=0.349;entryY=1.057;entryDx=0;entryDy=0;entryPerimeter=0;endArrow=open;endFill=0;strokeWidth=5;fillColor=#f8cecc;strokeColor=#b85450;" parent="DSKLPGIF9iKTOLvWG-pe-0" source="iqtAk_gLVTz3530pTnfA-34" target="iqtAk_gLVTz3530pTnfA-18" edge="1">
          <mxGeometry relative="1" as="geometry" />
        </mxCell>
        <mxCell id="iqtAk_gLVTz3530pTnfA-34" value="&lt;span style=&quot;font-size: 24px&quot;&gt;v1.js&lt;/span&gt;" style="whiteSpace=wrap;html=1;treeFolding=1;treeMoving=1;newEdgeStyle={&quot;edgeStyle&quot;:&quot;elbowEdgeStyle&quot;,&quot;startArrow&quot;:&quot;none&quot;,&quot;endArrow&quot;:&quot;none&quot;};" parent="DSKLPGIF9iKTOLvWG-pe-0" vertex="1">
          <mxGeometry x="1120" y="320" width="130" height="50" as="geometry" />
        </mxCell>
        <mxCell id="iqtAk_gLVTz3530pTnfA-37" value="" style="edgeStyle=elbowEdgeStyle;rounded=0;orthogonalLoop=1;jettySize=auto;html=1;elbow=vertical;startArrow=none;endArrow=none;" parent="DSKLPGIF9iKTOLvWG-pe-0" source="iqtAk_gLVTz3530pTnfA-16" target="iqtAk_gLVTz3530pTnfA-38" edge="1">
          <mxGeometry relative="1" as="geometry">
            <mxPoint x="1275" y="320" as="sourcePoint" />
          </mxGeometry>
        </mxCell>
        <mxCell id="iqtAk_gLVTz3530pTnfA-60" style="edgeStyle=orthogonalEdgeStyle;rounded=0;orthogonalLoop=1;jettySize=auto;html=1;exitX=1;exitY=0.75;exitDx=0;exitDy=0;entryX=0.25;entryY=1;entryDx=0;entryDy=0;endArrow=open;endFill=0;strokeWidth=5;fillColor=#f8cecc;strokeColor=#b85450;" parent="DSKLPGIF9iKTOLvWG-pe-0" source="iqtAk_gLVTz3530pTnfA-38" target="iqtAk_gLVTz3530pTnfA-18" edge="1">
          <mxGeometry relative="1" as="geometry" />
        </mxCell>
        <mxCell id="iqtAk_gLVTz3530pTnfA-38" value="&lt;span style=&quot;font-size: 24px&quot;&gt;v2.js&lt;/span&gt;" style="whiteSpace=wrap;html=1;treeFolding=1;treeMoving=1;newEdgeStyle={&quot;edgeStyle&quot;:&quot;elbowEdgeStyle&quot;,&quot;startArrow&quot;:&quot;none&quot;,&quot;endArrow&quot;:&quot;none&quot;};" parent="DSKLPGIF9iKTOLvWG-pe-0" vertex="1">
          <mxGeometry x="1260" y="320" width="130" height="50" as="geometry" />
        </mxCell>
        <mxCell id="iqtAk_gLVTz3530pTnfA-39" value="" style="edgeStyle=elbowEdgeStyle;rounded=0;orthogonalLoop=1;jettySize=auto;html=1;elbow=vertical;startArrow=none;endArrow=none;" parent="DSKLPGIF9iKTOLvWG-pe-0" source="iqtAk_gLVTz3530pTnfA-8" target="iqtAk_gLVTz3530pTnfA-40" edge="1">
          <mxGeometry relative="1" as="geometry">
            <mxPoint x="530" y="220" as="sourcePoint" />
          </mxGeometry>
        </mxCell>
        <mxCell id="iqtAk_gLVTz3530pTnfA-40" value="&lt;span style=&quot;font-size: 24px&quot;&gt;models&lt;/span&gt;" style="whiteSpace=wrap;html=1;treeFolding=1;treeMoving=1;newEdgeStyle={&quot;edgeStyle&quot;:&quot;elbowEdgeStyle&quot;,&quot;startArrow&quot;:&quot;none&quot;,&quot;endArrow&quot;:&quot;none&quot;};" parent="DSKLPGIF9iKTOLvWG-pe-0" vertex="1">
          <mxGeometry x="260" y="415" width="140" height="40" as="geometry" />
        </mxCell>
        <mxCell id="iqtAk_gLVTz3530pTnfA-41" value="" style="edgeStyle=elbowEdgeStyle;rounded=0;orthogonalLoop=1;jettySize=auto;html=1;elbow=vertical;startArrow=none;endArrow=none;" parent="DSKLPGIF9iKTOLvWG-pe-0" source="iqtAk_gLVTz3530pTnfA-8" target="iqtAk_gLVTz3530pTnfA-42" edge="1">
          <mxGeometry relative="1" as="geometry">
            <mxPoint x="360" y="320" as="sourcePoint" />
            <Array as="points">
              <mxPoint x="430" y="380" />
              <mxPoint x="330" y="350" />
              <mxPoint x="380" y="390" />
            </Array>
          </mxGeometry>
        </mxCell>
        <mxCell id="iqtAk_gLVTz3530pTnfA-42" value="&lt;span style=&quot;font-size: 24px&quot;&gt;middleware&lt;/span&gt;" style="whiteSpace=wrap;html=1;treeFolding=1;treeMoving=1;newEdgeStyle={&quot;edgeStyle&quot;:&quot;elbowEdgeStyle&quot;,&quot;startArrow&quot;:&quot;none&quot;,&quot;endArrow&quot;:&quot;none&quot;};" parent="DSKLPGIF9iKTOLvWG-pe-0" vertex="1">
          <mxGeometry x="450" y="420" width="140" height="40" as="geometry" />
        </mxCell>
        <mxCell id="iqtAk_gLVTz3530pTnfA-43" value="" style="edgeStyle=elbowEdgeStyle;rounded=0;orthogonalLoop=1;jettySize=auto;html=1;elbow=vertical;startArrow=none;endArrow=none;" parent="DSKLPGIF9iKTOLvWG-pe-0" source="iqtAk_gLVTz3530pTnfA-8" target="iqtAk_gLVTz3530pTnfA-44" edge="1">
          <mxGeometry relative="1" as="geometry">
            <mxPoint x="360" y="320" as="sourcePoint" />
          </mxGeometry>
        </mxCell>
        <mxCell id="iqtAk_gLVTz3530pTnfA-58" style="edgeStyle=orthogonalEdgeStyle;rounded=0;orthogonalLoop=1;jettySize=auto;html=1;exitX=0.5;exitY=1;exitDx=0;exitDy=0;entryX=0.5;entryY=1;entryDx=0;entryDy=0;endArrow=open;endFill=0;strokeWidth=5;fillColor=#f8cecc;strokeColor=#b85450;" parent="DSKLPGIF9iKTOLvWG-pe-0" source="iqtAk_gLVTz3530pTnfA-44" target="iqtAk_gLVTz3530pTnfA-18" edge="1">
          <mxGeometry relative="1" as="geometry">
            <Array as="points">
              <mxPoint x="230" y="620" />
              <mxPoint x="1485" y="620" />
            </Array>
          </mxGeometry>
        </mxCell>
        <mxCell id="iqtAk_gLVTz3530pTnfA-44" value="&lt;span style=&quot;font-size: 24px&quot;&gt;routes.js&lt;/span&gt;" style="whiteSpace=wrap;html=1;treeFolding=1;treeMoving=1;newEdgeStyle={&quot;edgeStyle&quot;:&quot;elbowEdgeStyle&quot;,&quot;startArrow&quot;:&quot;none&quot;,&quot;endArrow&quot;:&quot;none&quot;};" parent="DSKLPGIF9iKTOLvWG-pe-0" vertex="1">
          <mxGeometry x="160" y="520" width="140" height="40" as="geometry" />
        </mxCell>
        <mxCell id="iqtAk_gLVTz3530pTnfA-47" value="" style="edgeStyle=elbowEdgeStyle;rounded=0;orthogonalLoop=1;jettySize=auto;html=1;elbow=vertical;startArrow=none;endArrow=none;" parent="DSKLPGIF9iKTOLvWG-pe-0" source="iqtAk_gLVTz3530pTnfA-40" target="iqtAk_gLVTz3530pTnfA-48" edge="1">
          <mxGeometry relative="1" as="geometry">
            <mxPoint x="360" y="320" as="sourcePoint" />
          </mxGeometry>
        </mxCell>
        <mxCell id="iqtAk_gLVTz3530pTnfA-67" style="edgeStyle=orthogonalEdgeStyle;rounded=0;orthogonalLoop=1;jettySize=auto;html=1;exitX=0;exitY=0.5;exitDx=0;exitDy=0;entryX=0.133;entryY=-0.014;entryDx=0;entryDy=0;entryPerimeter=0;endArrow=open;endFill=0;strokeWidth=5;fillColor=#dae8fc;strokeColor=#6c8ebf;" parent="DSKLPGIF9iKTOLvWG-pe-0" source="iqtAk_gLVTz3530pTnfA-48" target="iqtAk_gLVTz3530pTnfA-44" edge="1">
          <mxGeometry relative="1" as="geometry" />
        </mxCell>
        <mxCell id="iqtAk_gLVTz3530pTnfA-73" style="edgeStyle=orthogonalEdgeStyle;rounded=0;orthogonalLoop=1;jettySize=auto;html=1;exitX=0.5;exitY=1;exitDx=0;exitDy=0;entryX=0.433;entryY=-0.05;entryDx=0;entryDy=0;entryPerimeter=0;endArrow=open;endFill=0;strokeWidth=5;fillColor=#0050ef;strokeColor=#001DBC;" parent="DSKLPGIF9iKTOLvWG-pe-0" source="iqtAk_gLVTz3530pTnfA-48" target="iqtAk_gLVTz3530pTnfA-54" edge="1">
          <mxGeometry relative="1" as="geometry" />
        </mxCell>
        <mxCell id="iqtAk_gLVTz3530pTnfA-74" style="edgeStyle=orthogonalEdgeStyle;rounded=0;orthogonalLoop=1;jettySize=auto;html=1;exitX=1;exitY=0.5;exitDx=0;exitDy=0;entryX=0.5;entryY=0;entryDx=0;entryDy=0;endArrow=open;endFill=0;strokeWidth=5;fillColor=#6a00ff;strokeColor=#3700CC;" parent="DSKLPGIF9iKTOLvWG-pe-0" source="iqtAk_gLVTz3530pTnfA-48" target="iqtAk_gLVTz3530pTnfA-52" edge="1">
          <mxGeometry relative="1" as="geometry" />
        </mxCell>
        <mxCell id="iqtAk_gLVTz3530pTnfA-48" value="&lt;span style=&quot;font-size: 24px&quot;&gt;users.js&lt;/span&gt;" style="whiteSpace=wrap;html=1;treeFolding=1;treeMoving=1;newEdgeStyle={&quot;edgeStyle&quot;:&quot;elbowEdgeStyle&quot;,&quot;startArrow&quot;:&quot;none&quot;,&quot;endArrow&quot;:&quot;none&quot;};" parent="DSKLPGIF9iKTOLvWG-pe-0" vertex="1">
          <mxGeometry x="260" y="470" width="140" height="40" as="geometry" />
        </mxCell>
        <mxCell id="iqtAk_gLVTz3530pTnfA-49" value="" style="edgeStyle=elbowEdgeStyle;rounded=0;orthogonalLoop=1;jettySize=auto;html=1;elbow=vertical;startArrow=none;endArrow=none;" parent="DSKLPGIF9iKTOLvWG-pe-0" source="iqtAk_gLVTz3530pTnfA-42" target="iqtAk_gLVTz3530pTnfA-50" edge="1">
          <mxGeometry relative="1" as="geometry">
            <mxPoint x="360" y="320" as="sourcePoint" />
            <Array as="points">
              <mxPoint x="460" y="420" />
              <mxPoint x="360" y="390" />
              <mxPoint x="410" y="430" />
            </Array>
          </mxGeometry>
        </mxCell>
        <mxCell id="iqtAk_gLVTz3530pTnfA-65" style="edgeStyle=orthogonalEdgeStyle;rounded=0;orthogonalLoop=1;jettySize=auto;html=1;exitX=0.75;exitY=1;exitDx=0;exitDy=0;entryX=0.75;entryY=1;entryDx=0;entryDy=0;endArrow=open;endFill=0;strokeWidth=5;fillColor=#ffe6cc;strokeColor=#d79b00;" parent="DSKLPGIF9iKTOLvWG-pe-0" source="iqtAk_gLVTz3530pTnfA-50" target="iqtAk_gLVTz3530pTnfA-38" edge="1">
          <mxGeometry relative="1" as="geometry">
            <Array as="points">
              <mxPoint x="555" y="570" />
              <mxPoint x="1358" y="570" />
            </Array>
          </mxGeometry>
        </mxCell>
        <mxCell id="iqtAk_gLVTz3530pTnfA-71" style="edgeStyle=orthogonalEdgeStyle;rounded=0;orthogonalLoop=1;jettySize=auto;html=1;exitX=0;exitY=0.5;exitDx=0;exitDy=0;endArrow=open;endFill=0;strokeWidth=5;entryX=1;entryY=0.5;entryDx=0;entryDy=0;fillColor=#dae8fc;strokeColor=#6c8ebf;" parent="DSKLPGIF9iKTOLvWG-pe-0" source="iqtAk_gLVTz3530pTnfA-50" target="iqtAk_gLVTz3530pTnfA-44" edge="1">
          <mxGeometry relative="1" as="geometry">
            <mxPoint x="350" y="540" as="targetPoint" />
          </mxGeometry>
        </mxCell>
        <mxCell id="iqtAk_gLVTz3530pTnfA-50" value="&lt;span style=&quot;font-size: 24px&quot;&gt;acl.js&lt;/span&gt;" style="whiteSpace=wrap;html=1;treeFolding=1;treeMoving=1;newEdgeStyle={&quot;edgeStyle&quot;:&quot;elbowEdgeStyle&quot;,&quot;startArrow&quot;:&quot;none&quot;,&quot;endArrow&quot;:&quot;none&quot;};" parent="DSKLPGIF9iKTOLvWG-pe-0" vertex="1">
          <mxGeometry x="450" y="500" width="140" height="40" as="geometry" />
        </mxCell>
        <mxCell id="iqtAk_gLVTz3530pTnfA-51" value="" style="edgeStyle=elbowEdgeStyle;rounded=0;orthogonalLoop=1;jettySize=auto;html=1;elbow=vertical;startArrow=none;endArrow=none;" parent="DSKLPGIF9iKTOLvWG-pe-0" source="iqtAk_gLVTz3530pTnfA-42" target="iqtAk_gLVTz3530pTnfA-52" edge="1">
          <mxGeometry relative="1" as="geometry">
            <mxPoint x="550" y="500" as="sourcePoint" />
            <Array as="points">
              <mxPoint x="620" y="470" />
              <mxPoint x="490" y="460" />
              <mxPoint x="390" y="430" />
              <mxPoint x="440" y="470" />
            </Array>
          </mxGeometry>
        </mxCell>
        <mxCell id="iqtAk_gLVTz3530pTnfA-64" style="edgeStyle=orthogonalEdgeStyle;rounded=0;orthogonalLoop=1;jettySize=auto;html=1;exitX=0.75;exitY=1;exitDx=0;exitDy=0;entryX=0.25;entryY=1;entryDx=0;entryDy=0;endArrow=open;endFill=0;strokeWidth=5;fillColor=#ffe6cc;strokeColor=#d79b00;" parent="DSKLPGIF9iKTOLvWG-pe-0" source="iqtAk_gLVTz3530pTnfA-52" target="iqtAk_gLVTz3530pTnfA-38" edge="1">
          <mxGeometry relative="1" as="geometry" />
        </mxCell>
        <mxCell id="iqtAk_gLVTz3530pTnfA-72" style="edgeStyle=orthogonalEdgeStyle;rounded=0;orthogonalLoop=1;jettySize=auto;html=1;exitX=0;exitY=0.5;exitDx=0;exitDy=0;entryX=0.75;entryY=1;entryDx=0;entryDy=0;endArrow=open;endFill=0;strokeWidth=5;fillColor=#dae8fc;strokeColor=#6c8ebf;" parent="DSKLPGIF9iKTOLvWG-pe-0" source="iqtAk_gLVTz3530pTnfA-52" target="iqtAk_gLVTz3530pTnfA-44" edge="1">
          <mxGeometry relative="1" as="geometry">
            <Array as="points">
              <mxPoint x="600" y="660" />
              <mxPoint x="340" y="660" />
              <mxPoint x="340" y="600" />
              <mxPoint x="265" y="600" />
            </Array>
          </mxGeometry>
        </mxCell>
        <mxCell id="iqtAk_gLVTz3530pTnfA-52" value="&lt;span style=&quot;font-size: 24px&quot;&gt;basic.js&lt;/span&gt;" style="whiteSpace=wrap;html=1;treeFolding=1;treeMoving=1;newEdgeStyle={&quot;edgeStyle&quot;:&quot;elbowEdgeStyle&quot;,&quot;startArrow&quot;:&quot;none&quot;,&quot;endArrow&quot;:&quot;none&quot;};" parent="DSKLPGIF9iKTOLvWG-pe-0" vertex="1">
          <mxGeometry x="600" y="500" width="140" height="40" as="geometry" />
        </mxCell>
        <mxCell id="iqtAk_gLVTz3530pTnfA-53" value="" style="edgeStyle=elbowEdgeStyle;rounded=0;orthogonalLoop=1;jettySize=auto;html=1;elbow=vertical;startArrow=none;endArrow=none;" parent="DSKLPGIF9iKTOLvWG-pe-0" source="iqtAk_gLVTz3530pTnfA-42" target="iqtAk_gLVTz3530pTnfA-54" edge="1">
          <mxGeometry relative="1" as="geometry">
            <mxPoint x="550" y="500" as="sourcePoint" />
            <Array as="points">
              <mxPoint x="430" y="480" />
              <mxPoint x="490" y="460" />
              <mxPoint x="390" y="430" />
              <mxPoint x="440" y="470" />
            </Array>
          </mxGeometry>
        </mxCell>
        <mxCell id="iqtAk_gLVTz3530pTnfA-66" style="edgeStyle=orthogonalEdgeStyle;rounded=0;orthogonalLoop=1;jettySize=auto;html=1;exitX=0.75;exitY=1;exitDx=0;exitDy=0;entryX=0.859;entryY=1.04;entryDx=0;entryDy=0;entryPerimeter=0;endArrow=open;endFill=0;strokeWidth=5;fillColor=#ffe6cc;strokeColor=#d79b00;" parent="DSKLPGIF9iKTOLvWG-pe-0" source="iqtAk_gLVTz3530pTnfA-54" target="iqtAk_gLVTz3530pTnfA-38" edge="1">
          <mxGeometry relative="1" as="geometry" />
        </mxCell>
        <mxCell id="iqtAk_gLVTz3530pTnfA-70" style="edgeStyle=orthogonalEdgeStyle;rounded=0;orthogonalLoop=1;jettySize=auto;html=1;exitX=0;exitY=0.5;exitDx=0;exitDy=0;entryX=1;entryY=0.25;entryDx=0;entryDy=0;endArrow=open;endFill=0;strokeWidth=5;fillColor=#dae8fc;strokeColor=#6c8ebf;" parent="DSKLPGIF9iKTOLvWG-pe-0" source="iqtAk_gLVTz3530pTnfA-54" target="iqtAk_gLVTz3530pTnfA-44" edge="1">
          <mxGeometry relative="1" as="geometry" />
        </mxCell>
        <mxCell id="iqtAk_gLVTz3530pTnfA-54" value="&lt;span style=&quot;font-size: 24px&quot;&gt;bearer.js&lt;/span&gt;" style="whiteSpace=wrap;html=1;treeFolding=1;treeMoving=1;newEdgeStyle={&quot;edgeStyle&quot;:&quot;elbowEdgeStyle&quot;,&quot;startArrow&quot;:&quot;none&quot;,&quot;endArrow&quot;:&quot;none&quot;};" parent="DSKLPGIF9iKTOLvWG-pe-0" vertex="1">
          <mxGeometry x="350" y="550" width="140" height="40" as="geometry" />
        </mxCell>
      </root>
    </mxGraphModel>
  </diagram>
  <diagram id="yGCHM5_EHZqHPEuzT4Pj" name="Page-4">
    <mxGraphModel dx="1632" dy="1546" grid="1" gridSize="10" guides="1" tooltips="1" connect="1" arrows="1" fold="1" page="1" pageScale="1" pageWidth="850" pageHeight="1100" math="0" shadow="0">
      <root>
        <mxCell id="3YEeoUgfSWS36ZsVqCW8-0" />
        <mxCell id="3YEeoUgfSWS36ZsVqCW8-1" parent="3YEeoUgfSWS36ZsVqCW8-0" />
        <mxCell id="Dn7K3Gck-obb65E10RNk-0" value="&lt;font style=&quot;font-size: 36px&quot;&gt;CAPS&lt;/font&gt;" style="swimlane;html=1;startSize=60;horizontal=1;containerType=tree;" parent="3YEeoUgfSWS36ZsVqCW8-1" vertex="1">
          <mxGeometry x="-660" y="-150" width="1720" height="1260" as="geometry" />
        </mxCell>
        <mxCell id="eQkYi3xZpYkbm0cVGCLJ-51" style="edgeStyle=orthogonalEdgeStyle;rounded=0;orthogonalLoop=1;jettySize=auto;html=1;exitX=0.75;exitY=0;exitDx=0;exitDy=0;entryX=0.25;entryY=0;entryDx=0;entryDy=0;fillColor=#e1d5e7;strokeColor=#9673a6;strokeWidth=5;" parent="Dn7K3Gck-obb65E10RNk-0" source="eQkYi3xZpYkbm0cVGCLJ-0" target="eQkYi3xZpYkbm0cVGCLJ-2" edge="1">
          <mxGeometry relative="1" as="geometry" />
        </mxCell>
        <mxCell id="eQkYi3xZpYkbm0cVGCLJ-55" style="edgeStyle=orthogonalEdgeStyle;rounded=0;orthogonalLoop=1;jettySize=auto;html=1;exitX=0.5;exitY=0;exitDx=0;exitDy=0;strokeWidth=5;entryX=0.75;entryY=1;entryDx=0;entryDy=0;fillColor=#fff2cc;strokeColor=#d6b656;" parent="Dn7K3Gck-obb65E10RNk-0" source="eQkYi3xZpYkbm0cVGCLJ-0" target="eQkYi3xZpYkbm0cVGCLJ-48" edge="1">
          <mxGeometry relative="1" as="geometry">
            <mxPoint x="1360" y="250" as="targetPoint" />
            <Array as="points">
              <mxPoint x="320" y="120" />
              <mxPoint x="775" y="120" />
              <mxPoint x="775" y="570" />
              <mxPoint x="1290" y="570" />
            </Array>
          </mxGeometry>
        </mxCell>
        <mxCell id="eQkYi3xZpYkbm0cVGCLJ-57" style="edgeStyle=orthogonalEdgeStyle;rounded=0;orthogonalLoop=1;jettySize=auto;html=1;exitX=0.25;exitY=0;exitDx=0;exitDy=0;entryX=0.5;entryY=1;entryDx=0;entryDy=0;strokeWidth=5;fillColor=#d5e8d4;strokeColor=#82b366;" parent="Dn7K3Gck-obb65E10RNk-0" source="eQkYi3xZpYkbm0cVGCLJ-0" target="eQkYi3xZpYkbm0cVGCLJ-44" edge="1">
          <mxGeometry relative="1" as="geometry">
            <Array as="points">
              <mxPoint x="260" y="100" />
              <mxPoint x="490" y="100" />
              <mxPoint x="490" y="620" />
              <mxPoint x="970" y="620" />
            </Array>
          </mxGeometry>
        </mxCell>
        <mxCell id="eQkYi3xZpYkbm0cVGCLJ-0" value="&lt;span style=&quot;font-size: 24px&quot;&gt;events.js&lt;/span&gt;" style="whiteSpace=wrap;html=1;treeFolding=1;treeMoving=1;newEdgeStyle={&quot;edgeStyle&quot;:&quot;elbowEdgeStyle&quot;,&quot;startArrow&quot;:&quot;none&quot;,&quot;endArrow&quot;:&quot;none&quot;};" parent="Dn7K3Gck-obb65E10RNk-0" vertex="1">
          <mxGeometry x="200" y="160" width="240" height="80" as="geometry" />
        </mxCell>
        <mxCell id="eQkYi3xZpYkbm0cVGCLJ-1" value="" style="edgeStyle=elbowEdgeStyle;rounded=0;orthogonalLoop=1;jettySize=auto;html=1;elbow=horizontal;startArrow=none;endArrow=none;" parent="Dn7K3Gck-obb65E10RNk-0" source="eQkYi3xZpYkbm0cVGCLJ-0" target="eQkYi3xZpYkbm0cVGCLJ-2" edge="1">
          <mxGeometry relative="1" as="geometry" />
        </mxCell>
        <mxCell id="eQkYi3xZpYkbm0cVGCLJ-2" value="&lt;span style=&quot;font-size: 24px&quot;&gt;caps.js&lt;/span&gt;" style="whiteSpace=wrap;html=1;treeFolding=1;treeMoving=1;newEdgeStyle={&quot;edgeStyle&quot;:&quot;elbowEdgeStyle&quot;,&quot;startArrow&quot;:&quot;none&quot;,&quot;endArrow&quot;:&quot;none&quot;};" parent="Dn7K3Gck-obb65E10RNk-0" vertex="1">
          <mxGeometry x="550" y="160" width="240" height="80" as="geometry" />
        </mxCell>
        <mxCell id="eQkYi3xZpYkbm0cVGCLJ-3" value="" style="edgeStyle=elbowEdgeStyle;rounded=0;orthogonalLoop=1;jettySize=auto;html=1;elbow=horizontal;startArrow=none;endArrow=none;" parent="Dn7K3Gck-obb65E10RNk-0" source="eQkYi3xZpYkbm0cVGCLJ-2" target="eQkYi3xZpYkbm0cVGCLJ-4" edge="1">
          <mxGeometry relative="1" as="geometry">
            <mxPoint x="250" y="10.000000000000227" as="sourcePoint" />
          </mxGeometry>
        </mxCell>
        <mxCell id="eQkYi3xZpYkbm0cVGCLJ-4" value="&lt;span style=&quot;font-size: 24px&quot;&gt;Modules&lt;/span&gt;" style="whiteSpace=wrap;html=1;treeFolding=1;treeMoving=1;newEdgeStyle={&quot;edgeStyle&quot;:&quot;elbowEdgeStyle&quot;,&quot;startArrow&quot;:&quot;none&quot;,&quot;endArrow&quot;:&quot;none&quot;};" parent="Dn7K3Gck-obb65E10RNk-0" vertex="1">
          <mxGeometry x="960" y="160" width="240" height="80" as="geometry" />
        </mxCell>
        <mxCell id="eQkYi3xZpYkbm0cVGCLJ-39" value="" style="edgeStyle=elbowEdgeStyle;rounded=0;orthogonalLoop=1;jettySize=auto;html=1;elbow=horizontal;startArrow=none;endArrow=none;" parent="Dn7K3Gck-obb65E10RNk-0" source="eQkYi3xZpYkbm0cVGCLJ-4" target="eQkYi3xZpYkbm0cVGCLJ-40" edge="1">
          <mxGeometry relative="1" as="geometry">
            <mxPoint x="270" y="40.00000000000023" as="sourcePoint" />
          </mxGeometry>
        </mxCell>
        <mxCell id="eQkYi3xZpYkbm0cVGCLJ-40" value="&lt;span style=&quot;font-size: 24px&quot;&gt;driver&lt;/span&gt;" style="whiteSpace=wrap;html=1;treeFolding=1;treeMoving=1;newEdgeStyle={&quot;edgeStyle&quot;:&quot;elbowEdgeStyle&quot;,&quot;startArrow&quot;:&quot;none&quot;,&quot;endArrow&quot;:&quot;none&quot;};" parent="Dn7K3Gck-obb65E10RNk-0" vertex="1">
          <mxGeometry x="850" y="350" width="240" height="80" as="geometry" />
        </mxCell>
        <mxCell id="eQkYi3xZpYkbm0cVGCLJ-41" value="" style="edgeStyle=elbowEdgeStyle;rounded=0;orthogonalLoop=1;jettySize=auto;html=1;elbow=horizontal;startArrow=none;endArrow=none;" parent="Dn7K3Gck-obb65E10RNk-0" source="eQkYi3xZpYkbm0cVGCLJ-4" target="eQkYi3xZpYkbm0cVGCLJ-42" edge="1">
          <mxGeometry relative="1" as="geometry">
            <mxPoint x="565" y="80.00000000000023" as="sourcePoint" />
          </mxGeometry>
        </mxCell>
        <mxCell id="eQkYi3xZpYkbm0cVGCLJ-42" value="&lt;span style=&quot;font-size: 24px&quot;&gt;vendor&lt;/span&gt;" style="whiteSpace=wrap;html=1;treeFolding=1;treeMoving=1;newEdgeStyle={&quot;edgeStyle&quot;:&quot;elbowEdgeStyle&quot;,&quot;startArrow&quot;:&quot;none&quot;,&quot;endArrow&quot;:&quot;none&quot;};" parent="Dn7K3Gck-obb65E10RNk-0" vertex="1">
          <mxGeometry x="1110" y="350" width="240" height="80" as="geometry" />
        </mxCell>
        <mxCell id="eQkYi3xZpYkbm0cVGCLJ-43" value="" style="edgeStyle=elbowEdgeStyle;rounded=0;orthogonalLoop=1;jettySize=auto;html=1;elbow=horizontal;startArrow=none;endArrow=none;" parent="Dn7K3Gck-obb65E10RNk-0" source="eQkYi3xZpYkbm0cVGCLJ-40" target="eQkYi3xZpYkbm0cVGCLJ-44" edge="1">
          <mxGeometry relative="1" as="geometry">
            <mxPoint x="505" y="80.00000000000023" as="sourcePoint" />
          </mxGeometry>
        </mxCell>
        <mxCell id="eQkYi3xZpYkbm0cVGCLJ-52" style="edgeStyle=orthogonalEdgeStyle;rounded=0;orthogonalLoop=1;jettySize=auto;html=1;exitX=0.25;exitY=1;exitDx=0;exitDy=0;strokeWidth=5;fillColor=#e1d5e7;strokeColor=#9673a6;" parent="Dn7K3Gck-obb65E10RNk-0" source="eQkYi3xZpYkbm0cVGCLJ-44" edge="1">
          <mxGeometry relative="1" as="geometry">
            <mxPoint x="570" y="240" as="targetPoint" />
            <Array as="points">
              <mxPoint x="910" y="600" />
              <mxPoint x="570" y="600" />
            </Array>
          </mxGeometry>
        </mxCell>
        <mxCell id="eQkYi3xZpYkbm0cVGCLJ-44" value="&lt;span style=&quot;font-size: 24px&quot;&gt;driver.js&lt;/span&gt;" style="whiteSpace=wrap;html=1;treeFolding=1;treeMoving=1;newEdgeStyle={&quot;edgeStyle&quot;:&quot;elbowEdgeStyle&quot;,&quot;startArrow&quot;:&quot;none&quot;,&quot;endArrow&quot;:&quot;none&quot;};" parent="Dn7K3Gck-obb65E10RNk-0" vertex="1">
          <mxGeometry x="850" y="470" width="240" height="80" as="geometry" />
        </mxCell>
        <mxCell id="eQkYi3xZpYkbm0cVGCLJ-45" value="" style="edgeStyle=elbowEdgeStyle;rounded=0;orthogonalLoop=1;jettySize=auto;html=1;elbow=horizontal;startArrow=none;endArrow=none;" parent="Dn7K3Gck-obb65E10RNk-0" source="eQkYi3xZpYkbm0cVGCLJ-40" target="eQkYi3xZpYkbm0cVGCLJ-46" edge="1">
          <mxGeometry relative="1" as="geometry">
            <mxPoint x="450" y="270" as="sourcePoint" />
          </mxGeometry>
        </mxCell>
        <mxCell id="eQkYi3xZpYkbm0cVGCLJ-58" style="edgeStyle=orthogonalEdgeStyle;rounded=0;orthogonalLoop=1;jettySize=auto;html=1;exitX=0.25;exitY=1;exitDx=0;exitDy=0;entryX=0.75;entryY=1;entryDx=0;entryDy=0;strokeWidth=5;fillColor=#d5e8d4;strokeColor=#82b366;" parent="Dn7K3Gck-obb65E10RNk-0" source="eQkYi3xZpYkbm0cVGCLJ-46" target="eQkYi3xZpYkbm0cVGCLJ-44" edge="1">
          <mxGeometry relative="1" as="geometry">
            <Array as="points">
              <mxPoint x="660" y="670" />
              <mxPoint x="1030" y="670" />
            </Array>
          </mxGeometry>
        </mxCell>
        <mxCell id="eQkYi3xZpYkbm0cVGCLJ-46" value="&lt;span style=&quot;font-size: 24px&quot;&gt;driver-handler.js&lt;/span&gt;" style="whiteSpace=wrap;html=1;treeFolding=1;treeMoving=1;newEdgeStyle={&quot;edgeStyle&quot;:&quot;elbowEdgeStyle&quot;,&quot;startArrow&quot;:&quot;none&quot;,&quot;endArrow&quot;:&quot;none&quot;};" parent="Dn7K3Gck-obb65E10RNk-0" vertex="1">
          <mxGeometry x="600" y="470" width="240" height="80" as="geometry" />
        </mxCell>
        <mxCell id="eQkYi3xZpYkbm0cVGCLJ-47" value="" style="edgeStyle=elbowEdgeStyle;rounded=0;orthogonalLoop=1;jettySize=auto;html=1;elbow=horizontal;startArrow=none;endArrow=none;" parent="Dn7K3Gck-obb65E10RNk-0" source="eQkYi3xZpYkbm0cVGCLJ-42" target="eQkYi3xZpYkbm0cVGCLJ-48" edge="1">
          <mxGeometry relative="1" as="geometry">
            <mxPoint x="635" y="80.00000000000023" as="sourcePoint" />
          </mxGeometry>
        </mxCell>
        <mxCell id="eQkYi3xZpYkbm0cVGCLJ-54" style="edgeStyle=orthogonalEdgeStyle;rounded=0;orthogonalLoop=1;jettySize=auto;html=1;exitX=0.25;exitY=1;exitDx=0;exitDy=0;entryX=0;entryY=0.75;entryDx=0;entryDy=0;strokeWidth=5;fillColor=#e1d5e7;strokeColor=#9673a6;" parent="Dn7K3Gck-obb65E10RNk-0" source="eQkYi3xZpYkbm0cVGCLJ-48" target="eQkYi3xZpYkbm0cVGCLJ-2" edge="1">
          <mxGeometry relative="1" as="geometry">
            <Array as="points">
              <mxPoint x="1170" y="630" />
              <mxPoint x="530" y="630" />
              <mxPoint x="530" y="220" />
            </Array>
          </mxGeometry>
        </mxCell>
        <mxCell id="eQkYi3xZpYkbm0cVGCLJ-48" value="&lt;span style=&quot;font-size: 24px&quot;&gt;vendor.js&lt;/span&gt;" style="whiteSpace=wrap;html=1;treeFolding=1;treeMoving=1;newEdgeStyle={&quot;edgeStyle&quot;:&quot;elbowEdgeStyle&quot;,&quot;startArrow&quot;:&quot;none&quot;,&quot;endArrow&quot;:&quot;none&quot;};" parent="Dn7K3Gck-obb65E10RNk-0" vertex="1">
          <mxGeometry x="1110" y="470" width="240" height="80" as="geometry" />
        </mxCell>
        <mxCell id="eQkYi3xZpYkbm0cVGCLJ-49" value="" style="edgeStyle=elbowEdgeStyle;rounded=0;orthogonalLoop=1;jettySize=auto;html=1;elbow=horizontal;startArrow=none;endArrow=none;" parent="Dn7K3Gck-obb65E10RNk-0" source="eQkYi3xZpYkbm0cVGCLJ-42" target="eQkYi3xZpYkbm0cVGCLJ-50" edge="1">
          <mxGeometry relative="1" as="geometry">
            <mxPoint x="710" y="270" as="sourcePoint" />
          </mxGeometry>
        </mxCell>
        <mxCell id="eQkYi3xZpYkbm0cVGCLJ-56" style="edgeStyle=orthogonalEdgeStyle;rounded=0;orthogonalLoop=1;jettySize=auto;html=1;exitX=0.25;exitY=1;exitDx=0;exitDy=0;entryX=0.5;entryY=1;entryDx=0;entryDy=0;strokeWidth=5;fillColor=#fff2cc;strokeColor=#d6b656;" parent="Dn7K3Gck-obb65E10RNk-0" source="eQkYi3xZpYkbm0cVGCLJ-50" target="eQkYi3xZpYkbm0cVGCLJ-48" edge="1">
          <mxGeometry relative="1" as="geometry">
            <Array as="points">
              <mxPoint x="1420" y="600" />
              <mxPoint x="1230" y="600" />
            </Array>
          </mxGeometry>
        </mxCell>
        <mxCell id="eQkYi3xZpYkbm0cVGCLJ-50" value="&lt;span style=&quot;font-size: 24px&quot;&gt;vendor-handler.js&lt;/span&gt;" style="whiteSpace=wrap;html=1;treeFolding=1;treeMoving=1;newEdgeStyle={&quot;edgeStyle&quot;:&quot;elbowEdgeStyle&quot;,&quot;startArrow&quot;:&quot;none&quot;,&quot;endArrow&quot;:&quot;none&quot;};" parent="Dn7K3Gck-obb65E10RNk-0" vertex="1">
          <mxGeometry x="1360" y="470" width="240" height="80" as="geometry" />
        </mxCell>
        <mxCell id="eQkYi3xZpYkbm0cVGCLJ-61" style="edgeStyle=orthogonalEdgeStyle;rounded=0;orthogonalLoop=1;jettySize=auto;html=1;exitX=0;exitY=0.5;exitDx=0;exitDy=0;entryX=1;entryY=1;entryDx=0;entryDy=0;strokeWidth=5;fillColor=#ffe6cc;strokeColor=#d79b00;" parent="Dn7K3Gck-obb65E10RNk-0" target="eQkYi3xZpYkbm0cVGCLJ-48" edge="1">
          <mxGeometry relative="1" as="geometry">
            <mxPoint x="1500" y="680" as="sourcePoint" />
          </mxGeometry>
        </mxCell>
        <mxCell id="eQkYi3xZpYkbm0cVGCLJ-59" value="&lt;font style=&quot;font-size: 24px&quot;&gt;faker dependency&lt;/font&gt;" style="ellipse;whiteSpace=wrap;html=1;" parent="Dn7K3Gck-obb65E10RNk-0" vertex="1">
          <mxGeometry x="1500" y="640" width="150" height="100" as="geometry" />
        </mxCell>
        <mxCell id="eQkYi3xZpYkbm0cVGCLJ-63" style="edgeStyle=orthogonalEdgeStyle;rounded=0;orthogonalLoop=1;jettySize=auto;html=1;exitX=0.5;exitY=1;exitDx=0;exitDy=0;entryX=0;entryY=0.5;entryDx=0;entryDy=0;strokeWidth=5;fillColor=#f8cecc;strokeColor=#b85450;" parent="Dn7K3Gck-obb65E10RNk-0" target="eQkYi3xZpYkbm0cVGCLJ-0" edge="1">
          <mxGeometry relative="1" as="geometry">
            <mxPoint x="80" y="270" as="sourcePoint" />
          </mxGeometry>
        </mxCell>
        <mxCell id="eQkYi3xZpYkbm0cVGCLJ-62" value="&lt;font style=&quot;font-size: 24px&quot;&gt;events dependency&lt;/font&gt;" style="ellipse;whiteSpace=wrap;html=1;" parent="Dn7K3Gck-obb65E10RNk-0" vertex="1">
          <mxGeometry y="230" width="140" height="100" as="geometry" />
        </mxCell>
        <mxCell id="eQkYi3xZpYkbm0cVGCLJ-73" value="&lt;font style=&quot;font-size: 42px;&quot;&gt;&amp;nbsp;Order&lt;/font&gt;" style="rounded=1;whiteSpace=wrap;html=1;strokeWidth=2;fillWeight=4;hachureGap=8;hachureAngle=45;fillColor=#1ba1e2;sketch=1;fontStyle=1;fontSize=42;" parent="Dn7K3Gck-obb65E10RNk-0" vertex="1">
          <mxGeometry x="350" y="690" width="140" height="100" as="geometry" />
        </mxCell>
        <mxCell id="eQkYi3xZpYkbm0cVGCLJ-76" value="" style="edgeStyle=orthogonalEdgeStyle;rounded=0;orthogonalLoop=1;jettySize=auto;html=1;strokeWidth=4;" parent="Dn7K3Gck-obb65E10RNk-0" source="eQkYi3xZpYkbm0cVGCLJ-73" target="eQkYi3xZpYkbm0cVGCLJ-77" edge="1">
          <mxGeometry relative="1" as="geometry" />
        </mxCell>
        <mxCell id="eQkYi3xZpYkbm0cVGCLJ-77" value="&lt;font style=&quot;font-size: 42px;&quot;&gt;Event&lt;/font&gt;" style="rounded=1;whiteSpace=wrap;html=1;strokeWidth=2;fillWeight=4;hachureGap=8;hachureAngle=45;fillColor=#1ba1e2;sketch=1;fontStyle=1;fontSize=42;" parent="Dn7K3Gck-obb65E10RNk-0" vertex="1">
          <mxGeometry x="510" y="850" width="140" height="100" as="geometry" />
        </mxCell>
        <mxCell id="eQkYi3xZpYkbm0cVGCLJ-80" value="" style="edgeStyle=orthogonalEdgeStyle;rounded=0;orthogonalLoop=1;jettySize=auto;html=1;strokeWidth=4;" parent="Dn7K3Gck-obb65E10RNk-0" source="eQkYi3xZpYkbm0cVGCLJ-77" target="eQkYi3xZpYkbm0cVGCLJ-81" edge="1">
          <mxGeometry relative="1" as="geometry">
            <mxPoint x="-130" y="580" as="sourcePoint" />
          </mxGeometry>
        </mxCell>
        <mxCell id="eQkYi3xZpYkbm0cVGCLJ-81" value="&lt;font style=&quot;font-size: 42px;&quot;&gt;pickup&lt;/font&gt;" style="rounded=1;whiteSpace=wrap;html=1;strokeWidth=2;fillWeight=4;hachureGap=8;hachureAngle=45;fillColor=#1ba1e2;sketch=1;fontStyle=1;fontSize=42;" parent="Dn7K3Gck-obb65E10RNk-0" vertex="1">
          <mxGeometry x="420" y="1020" width="140" height="100" as="geometry" />
        </mxCell>
        <mxCell id="eQkYi3xZpYkbm0cVGCLJ-82" value="&lt;span style=&quot;font-size: 48px&quot;&gt;will emit&lt;/span&gt;" style="text;html=1;resizable=0;autosize=1;align=center;verticalAlign=middle;points=[];fillColor=none;strokeColor=none;rounded=0;" parent="Dn7K3Gck-obb65E10RNk-0" vertex="1">
          <mxGeometry x="560" y="990" width="190" height="30" as="geometry" />
        </mxCell>
        <mxCell id="eQkYi3xZpYkbm0cVGCLJ-87" value="" style="edgeStyle=orthogonalEdgeStyle;rounded=0;orthogonalLoop=1;jettySize=auto;html=1;strokeWidth=4;" parent="Dn7K3Gck-obb65E10RNk-0" source="eQkYi3xZpYkbm0cVGCLJ-81" target="eQkYi3xZpYkbm0cVGCLJ-88" edge="1">
          <mxGeometry relative="1" as="geometry">
            <mxPoint x="-40" y="790" as="sourcePoint" />
          </mxGeometry>
        </mxCell>
        <mxCell id="eQkYi3xZpYkbm0cVGCLJ-88" value="&lt;font style=&quot;font-size: 42px;&quot;&gt;in-transit&lt;/font&gt;" style="rounded=1;whiteSpace=wrap;html=1;strokeWidth=2;fillWeight=4;hachureGap=8;hachureAngle=45;fillColor=#1ba1e2;sketch=1;fontStyle=1;fontSize=42;" parent="Dn7K3Gck-obb65E10RNk-0" vertex="1">
          <mxGeometry x="140" y="1020" width="170" height="100" as="geometry" />
        </mxCell>
        <mxCell id="eQkYi3xZpYkbm0cVGCLJ-78" value="&lt;font style=&quot;font-size: 48px&quot;&gt;every 5 s&lt;br&gt;will create new&lt;/font&gt;" style="text;html=1;resizable=0;autosize=1;align=center;verticalAlign=middle;points=[];fillColor=none;strokeColor=none;rounded=0;" parent="Dn7K3Gck-obb65E10RNk-0" vertex="1">
          <mxGeometry x="130" y="610" width="330" height="60" as="geometry" />
        </mxCell>
        <mxCell id="eQkYi3xZpYkbm0cVGCLJ-90" value="&lt;span style=&quot;font-size: 48px&quot;&gt;after 1 s&lt;/span&gt;" style="text;html=1;resizable=0;autosize=1;align=center;verticalAlign=middle;points=[];fillColor=none;strokeColor=none;rounded=0;" parent="Dn7K3Gck-obb65E10RNk-0" vertex="1">
          <mxGeometry x="270" y="1130" width="190" height="30" as="geometry" />
        </mxCell>
        <mxCell id="eQkYi3xZpYkbm0cVGCLJ-91" value="&lt;span style=&quot;font-size: 48px&quot;&gt;will emit&lt;/span&gt;" style="text;html=1;resizable=0;autosize=1;align=center;verticalAlign=middle;points=[];fillColor=none;strokeColor=none;rounded=0;" parent="Dn7K3Gck-obb65E10RNk-0" vertex="1">
          <mxGeometry x="590" y="770" width="190" height="30" as="geometry" />
        </mxCell>
        <mxCell id="eQkYi3xZpYkbm0cVGCLJ-92" value="" style="edgeStyle=orthogonalEdgeStyle;rounded=0;orthogonalLoop=1;jettySize=auto;html=1;strokeWidth=4;" parent="Dn7K3Gck-obb65E10RNk-0" source="eQkYi3xZpYkbm0cVGCLJ-88" target="eQkYi3xZpYkbm0cVGCLJ-93" edge="1">
          <mxGeometry relative="1" as="geometry">
            <mxPoint x="-240" y="920" as="sourcePoint" />
          </mxGeometry>
        </mxCell>
        <mxCell id="eQkYi3xZpYkbm0cVGCLJ-94" style="edgeStyle=orthogonalEdgeStyle;rounded=0;orthogonalLoop=1;jettySize=auto;html=1;exitX=0.5;exitY=0;exitDx=0;exitDy=0;entryX=0;entryY=0.5;entryDx=0;entryDy=0;fontSize=42;strokeWidth=4;" parent="Dn7K3Gck-obb65E10RNk-0" source="eQkYi3xZpYkbm0cVGCLJ-93" target="eQkYi3xZpYkbm0cVGCLJ-73" edge="1">
          <mxGeometry relative="1" as="geometry" />
        </mxCell>
        <mxCell id="eQkYi3xZpYkbm0cVGCLJ-93" value="&lt;font style=&quot;font-size: 42px&quot;&gt;deliverd&lt;/font&gt;" style="rounded=1;whiteSpace=wrap;html=1;strokeWidth=2;fillWeight=4;hachureGap=8;hachureAngle=45;fillColor=#1ba1e2;sketch=1;fontStyle=1;fontSize=42;" parent="Dn7K3Gck-obb65E10RNk-0" vertex="1">
          <mxGeometry x="40" y="800" width="170" height="100" as="geometry" />
        </mxCell>
        <mxCell id="eQkYi3xZpYkbm0cVGCLJ-95" value="&lt;span style=&quot;font-size: 48px&quot;&gt;after 3 s&lt;/span&gt;" style="text;html=1;resizable=0;autosize=1;align=center;verticalAlign=middle;points=[];fillColor=none;strokeColor=none;rounded=0;" parent="3YEeoUgfSWS36ZsVqCW8-1" vertex="1">
          <mxGeometry x="-650" y="820" width="190" height="30" as="geometry" />
        </mxCell>
      </root>
    </mxGraphModel>
  </diagram>
  <diagram id="swhTAyJmY8h8RgHoeOl1" name="Page-5">
    <mxGraphModel dx="782" dy="446" grid="1" gridSize="10" guides="1" tooltips="1" connect="1" arrows="1" fold="1" page="1" pageScale="1" pageWidth="850" pageHeight="1100" math="0" shadow="0">
      <root>
        <mxCell id="4BLHH8YOLV8moSBKQeZn-0" />
        <mxCell id="4BLHH8YOLV8moSBKQeZn-1" parent="4BLHH8YOLV8moSBKQeZn-0" />
        <mxCell id="4BLHH8YOLV8moSBKQeZn-9" style="edgeStyle=orthogonalEdgeStyle;rounded=0;orthogonalLoop=1;jettySize=auto;html=1;exitX=1;exitY=0.5;exitDx=0;exitDy=0;entryX=0.65;entryY=0;entryDx=0;entryDy=0;entryPerimeter=0;fontColor=#000000;strokeWidth=3;fillColor=#d5e8d4;strokeColor=#82b366;" parent="4BLHH8YOLV8moSBKQeZn-1" source="4BLHH8YOLV8moSBKQeZn-3" target="4BLHH8YOLV8moSBKQeZn-8" edge="1">
          <mxGeometry relative="1" as="geometry" />
        </mxCell>
        <mxCell id="4BLHH8YOLV8moSBKQeZn-14" style="edgeStyle=orthogonalEdgeStyle;rounded=0;orthogonalLoop=1;jettySize=auto;html=1;exitX=1;exitY=0.25;exitDx=0;exitDy=0;fontColor=#000000;strokeWidth=3;fillColor=#d5e8d4;strokeColor=#82b366;" parent="4BLHH8YOLV8moSBKQeZn-1" source="4BLHH8YOLV8moSBKQeZn-3" target="4BLHH8YOLV8moSBKQeZn-13" edge="1">
          <mxGeometry relative="1" as="geometry">
            <Array as="points">
              <mxPoint x="520" y="150" />
              <mxPoint x="620" y="150" />
            </Array>
          </mxGeometry>
        </mxCell>
        <mxCell id="4BLHH8YOLV8moSBKQeZn-3" value="&lt;div style=&quot;font-family: &amp;#34;consolas&amp;#34; , &amp;#34;courier new&amp;#34; , monospace ; font-size: 14px ; line-height: 19px&quot;&gt;&lt;span&gt;enqueue(animal)&lt;/span&gt;&lt;/div&gt;" style="text;html=1;strokeColor=#b85450;fillColor=#f8cecc;align=center;verticalAlign=middle;whiteSpace=wrap;rounded=0;labelBackgroundColor=#ffffff;" parent="4BLHH8YOLV8moSBKQeZn-1" vertex="1">
          <mxGeometry x="400" y="140" width="120" height="20" as="geometry" />
        </mxCell>
        <mxCell id="4BLHH8YOLV8moSBKQeZn-18" value="" style="edgeStyle=orthogonalEdgeStyle;rounded=0;orthogonalLoop=1;jettySize=auto;html=1;fontColor=#000000;strokeWidth=3;fillColor=#e1d5e7;strokeColor=#9673a6;" parent="4BLHH8YOLV8moSBKQeZn-1" source="4BLHH8YOLV8moSBKQeZn-8" target="4BLHH8YOLV8moSBKQeZn-17" edge="1">
          <mxGeometry relative="1" as="geometry" />
        </mxCell>
        <mxCell id="4BLHH8YOLV8moSBKQeZn-8" value="&lt;div style=&quot;font-family: &amp;#34;consolas&amp;#34; , &amp;#34;courier new&amp;#34; , monospace ; font-size: 14px ; line-height: 19px&quot;&gt;If cat&lt;/div&gt;" style="text;html=1;strokeColor=#b85450;fillColor=#f8cecc;align=center;verticalAlign=middle;whiteSpace=wrap;rounded=0;labelBackgroundColor=#ffffff;" parent="4BLHH8YOLV8moSBKQeZn-1" vertex="1">
          <mxGeometry x="495" y="220" width="80" height="20" as="geometry" />
        </mxCell>
        <mxCell id="4BLHH8YOLV8moSBKQeZn-12" style="edgeStyle=orthogonalEdgeStyle;rounded=0;orthogonalLoop=1;jettySize=auto;html=1;exitX=0.5;exitY=1;exitDx=0;exitDy=0;fontColor=#000000;" parent="4BLHH8YOLV8moSBKQeZn-1" source="4BLHH8YOLV8moSBKQeZn-8" target="4BLHH8YOLV8moSBKQeZn-8" edge="1">
          <mxGeometry relative="1" as="geometry" />
        </mxCell>
        <mxCell id="4BLHH8YOLV8moSBKQeZn-20" value="" style="edgeStyle=orthogonalEdgeStyle;rounded=0;orthogonalLoop=1;jettySize=auto;html=1;fontColor=#000000;strokeWidth=3;fillColor=#dae8fc;strokeColor=#6c8ebf;" parent="4BLHH8YOLV8moSBKQeZn-1" source="4BLHH8YOLV8moSBKQeZn-13" target="4BLHH8YOLV8moSBKQeZn-19" edge="1">
          <mxGeometry relative="1" as="geometry" />
        </mxCell>
        <mxCell id="4BLHH8YOLV8moSBKQeZn-13" value="&lt;div style=&quot;font-family: &amp;#34;consolas&amp;#34; , &amp;#34;courier new&amp;#34; , monospace ; font-size: 14px ; line-height: 19px&quot;&gt;If dog&lt;/div&gt;" style="text;html=1;strokeColor=#b85450;fillColor=#f8cecc;align=center;verticalAlign=middle;whiteSpace=wrap;rounded=0;labelBackgroundColor=#ffffff;" parent="4BLHH8YOLV8moSBKQeZn-1" vertex="1">
          <mxGeometry x="580" y="220" width="80" height="20" as="geometry" />
        </mxCell>
        <mxCell id="4BLHH8YOLV8moSBKQeZn-17" value="&lt;div style=&quot;font-family: &amp;#34;consolas&amp;#34; , &amp;#34;courier new&amp;#34; , monospace ; font-size: 14px ; line-height: 19px&quot;&gt;enqueue cat into cat queue&lt;/div&gt;" style="text;html=1;strokeColor=#b85450;fillColor=#f8cecc;align=center;verticalAlign=middle;whiteSpace=wrap;rounded=0;labelBackgroundColor=#ffffff;" parent="4BLHH8YOLV8moSBKQeZn-1" vertex="1">
          <mxGeometry x="460" y="300" width="115" height="70" as="geometry" />
        </mxCell>
        <mxCell id="4BLHH8YOLV8moSBKQeZn-19" value="&lt;div style=&quot;font-family: &amp;#34;consolas&amp;#34; , &amp;#34;courier new&amp;#34; , monospace ; font-size: 14px ; line-height: 19px&quot;&gt;enqueue dog into dig queue&lt;br&gt;&lt;/div&gt;" style="text;html=1;strokeColor=#b85450;fillColor=#f8cecc;align=center;verticalAlign=middle;whiteSpace=wrap;rounded=0;labelBackgroundColor=#ffffff;" parent="4BLHH8YOLV8moSBKQeZn-1" vertex="1">
          <mxGeometry x="580" y="300" width="110" height="70" as="geometry" />
        </mxCell>
        <mxCell id="4BLHH8YOLV8moSBKQeZn-30" style="edgeStyle=orthogonalEdgeStyle;rounded=0;orthogonalLoop=1;jettySize=auto;html=1;exitX=1;exitY=0.5;exitDx=0;exitDy=0;entryX=0.65;entryY=0;entryDx=0;entryDy=0;entryPerimeter=0;fontColor=#000000;strokeWidth=3;fillColor=#d5e8d4;strokeColor=#82b366;" parent="4BLHH8YOLV8moSBKQeZn-1" source="4BLHH8YOLV8moSBKQeZn-32" target="4BLHH8YOLV8moSBKQeZn-34" edge="1">
          <mxGeometry relative="1" as="geometry" />
        </mxCell>
        <mxCell id="4BLHH8YOLV8moSBKQeZn-31" style="edgeStyle=orthogonalEdgeStyle;rounded=0;orthogonalLoop=1;jettySize=auto;html=1;exitX=1;exitY=0.25;exitDx=0;exitDy=0;fontColor=#000000;strokeWidth=3;fillColor=#d5e8d4;strokeColor=#82b366;" parent="4BLHH8YOLV8moSBKQeZn-1" source="4BLHH8YOLV8moSBKQeZn-32" target="4BLHH8YOLV8moSBKQeZn-37" edge="1">
          <mxGeometry relative="1" as="geometry">
            <Array as="points">
              <mxPoint x="200" y="150" />
              <mxPoint x="270" y="150" />
            </Array>
          </mxGeometry>
        </mxCell>
        <mxCell id="4BLHH8YOLV8moSBKQeZn-41" style="edgeStyle=orthogonalEdgeStyle;rounded=0;orthogonalLoop=1;jettySize=auto;html=1;exitX=1;exitY=0.5;exitDx=0;exitDy=0;entryX=0.5;entryY=0;entryDx=0;entryDy=0;fontColor=#000000;strokeWidth=3;fillColor=#d5e8d4;strokeColor=#82b366;" parent="4BLHH8YOLV8moSBKQeZn-1" source="4BLHH8YOLV8moSBKQeZn-32" target="4BLHH8YOLV8moSBKQeZn-40" edge="1">
          <mxGeometry relative="1" as="geometry" />
        </mxCell>
        <mxCell id="4BLHH8YOLV8moSBKQeZn-32" value="&lt;div style=&quot;font-family: &amp;#34;consolas&amp;#34; , &amp;#34;courier new&amp;#34; , monospace ; font-size: 14px ; line-height: 19px&quot;&gt;&lt;span&gt;dequeue(pref)&lt;/span&gt;&lt;/div&gt;" style="text;html=1;strokeColor=#b85450;fillColor=#f8cecc;align=center;verticalAlign=middle;whiteSpace=wrap;rounded=0;labelBackgroundColor=#ffffff;" parent="4BLHH8YOLV8moSBKQeZn-1" vertex="1">
          <mxGeometry x="80" y="140" width="120" height="20" as="geometry" />
        </mxCell>
        <mxCell id="4BLHH8YOLV8moSBKQeZn-33" value="" style="edgeStyle=orthogonalEdgeStyle;rounded=0;orthogonalLoop=1;jettySize=auto;html=1;fontColor=#000000;strokeWidth=3;fillColor=#fa6800;strokeColor=#C73500;" parent="4BLHH8YOLV8moSBKQeZn-1" source="4BLHH8YOLV8moSBKQeZn-34" target="4BLHH8YOLV8moSBKQeZn-38" edge="1">
          <mxGeometry relative="1" as="geometry" />
        </mxCell>
        <mxCell id="4BLHH8YOLV8moSBKQeZn-34" value="&lt;div style=&quot;font-family: &amp;#34;consolas&amp;#34; , &amp;#34;courier new&amp;#34; , monospace ; font-size: 14px ; line-height: 19px&quot;&gt;If cat&lt;/div&gt;" style="text;html=1;strokeColor=#b85450;fillColor=#f8cecc;align=center;verticalAlign=middle;whiteSpace=wrap;rounded=0;labelBackgroundColor=#ffffff;" parent="4BLHH8YOLV8moSBKQeZn-1" vertex="1">
          <mxGeometry x="140" y="220" width="80" height="20" as="geometry" />
        </mxCell>
        <mxCell id="4BLHH8YOLV8moSBKQeZn-35" style="edgeStyle=orthogonalEdgeStyle;rounded=0;orthogonalLoop=1;jettySize=auto;html=1;exitX=0.5;exitY=1;exitDx=0;exitDy=0;fontColor=#000000;" parent="4BLHH8YOLV8moSBKQeZn-1" source="4BLHH8YOLV8moSBKQeZn-34" target="4BLHH8YOLV8moSBKQeZn-34" edge="1">
          <mxGeometry relative="1" as="geometry" />
        </mxCell>
        <mxCell id="4BLHH8YOLV8moSBKQeZn-36" value="" style="edgeStyle=orthogonalEdgeStyle;rounded=0;orthogonalLoop=1;jettySize=auto;html=1;fontColor=#000000;strokeWidth=3;fillColor=#ffe6cc;strokeColor=#d79b00;" parent="4BLHH8YOLV8moSBKQeZn-1" source="4BLHH8YOLV8moSBKQeZn-37" target="4BLHH8YOLV8moSBKQeZn-39" edge="1">
          <mxGeometry relative="1" as="geometry" />
        </mxCell>
        <mxCell id="4BLHH8YOLV8moSBKQeZn-37" value="&lt;div style=&quot;font-family: &amp;#34;consolas&amp;#34; , &amp;#34;courier new&amp;#34; , monospace ; font-size: 14px ; line-height: 19px&quot;&gt;If dog&lt;/div&gt;" style="text;html=1;strokeColor=#b85450;fillColor=#f8cecc;align=center;verticalAlign=middle;whiteSpace=wrap;rounded=0;labelBackgroundColor=#ffffff;" parent="4BLHH8YOLV8moSBKQeZn-1" vertex="1">
          <mxGeometry x="230" y="220" width="80" height="20" as="geometry" />
        </mxCell>
        <mxCell id="4BLHH8YOLV8moSBKQeZn-38" value="&lt;span style=&quot;font-family: &amp;#34;consolas&amp;#34; , &amp;#34;courier new&amp;#34; , monospace ; font-size: 14px&quot;&gt;dequeue&lt;/span&gt;&lt;div style=&quot;font-family: &amp;#34;consolas&amp;#34; , &amp;#34;courier new&amp;#34; , monospace ; font-size: 14px ; line-height: 19px&quot;&gt;cat from cat queue&lt;/div&gt;" style="text;html=1;strokeColor=#b85450;fillColor=#f8cecc;align=center;verticalAlign=middle;whiteSpace=wrap;rounded=0;labelBackgroundColor=#ffffff;" parent="4BLHH8YOLV8moSBKQeZn-1" vertex="1">
          <mxGeometry x="60" y="300" width="115" height="70" as="geometry" />
        </mxCell>
        <mxCell id="4BLHH8YOLV8moSBKQeZn-39" value="&lt;span style=&quot;font-family: &amp;#34;consolas&amp;#34; , &amp;#34;courier new&amp;#34; , monospace ; font-size: 14px&quot;&gt;dequeue&lt;/span&gt;&lt;div style=&quot;font-family: &amp;#34;consolas&amp;#34; , &amp;#34;courier new&amp;#34; , monospace ; font-size: 14px ; line-height: 19px&quot;&gt;dog from dog queue&lt;br&gt;&lt;/div&gt;" style="text;html=1;strokeColor=#b85450;fillColor=#f8cecc;align=center;verticalAlign=middle;whiteSpace=wrap;rounded=0;labelBackgroundColor=#ffffff;" parent="4BLHH8YOLV8moSBKQeZn-1" vertex="1">
          <mxGeometry x="190" y="300" width="110" height="70" as="geometry" />
        </mxCell>
        <mxCell id="4BLHH8YOLV8moSBKQeZn-43" value="" style="edgeStyle=orthogonalEdgeStyle;rounded=0;orthogonalLoop=1;jettySize=auto;html=1;fontColor=#000000;strokeWidth=3;fillColor=#fff2cc;strokeColor=#d6b656;" parent="4BLHH8YOLV8moSBKQeZn-1" source="4BLHH8YOLV8moSBKQeZn-40" target="4BLHH8YOLV8moSBKQeZn-42" edge="1">
          <mxGeometry relative="1" as="geometry" />
        </mxCell>
        <mxCell id="4BLHH8YOLV8moSBKQeZn-40" value="&lt;div style=&quot;font-family: &amp;#34;consolas&amp;#34; , &amp;#34;courier new&amp;#34; , monospace ; font-size: 14px ; line-height: 19px&quot;&gt;anything else&lt;/div&gt;" style="text;html=1;strokeColor=#b85450;fillColor=#f8cecc;align=center;verticalAlign=middle;whiteSpace=wrap;rounded=0;labelBackgroundColor=#ffffff;" parent="4BLHH8YOLV8moSBKQeZn-1" vertex="1">
          <mxGeometry x="320" y="220" width="110" height="20" as="geometry" />
        </mxCell>
        <mxCell id="4BLHH8YOLV8moSBKQeZn-42" value="&lt;div style=&quot;font-family: &amp;#34;consolas&amp;#34; , &amp;#34;courier new&amp;#34; , monospace ; font-size: 14px ; line-height: 19px&quot;&gt;return null&lt;/div&gt;" style="text;html=1;strokeColor=#b85450;fillColor=#f8cecc;align=center;verticalAlign=middle;whiteSpace=wrap;rounded=0;labelBackgroundColor=#ffffff;" parent="4BLHH8YOLV8moSBKQeZn-1" vertex="1">
          <mxGeometry x="310" y="300" width="120" height="70" as="geometry" />
        </mxCell>
        <mxCell id="ViOdjnc2dOPWLxb6ljfD-4" style="edgeStyle=orthogonalEdgeStyle;rounded=0;orthogonalLoop=1;jettySize=auto;html=1;exitX=1;exitY=0;exitDx=0;exitDy=0;entryX=0.912;entryY=-0.03;entryDx=0;entryDy=0;entryPerimeter=0;fontColor=#000000;" parent="4BLHH8YOLV8moSBKQeZn-1" source="ViOdjnc2dOPWLxb6ljfD-0" target="ViOdjnc2dOPWLxb6ljfD-2" edge="1">
          <mxGeometry relative="1" as="geometry">
            <Array as="points">
              <mxPoint x="220" y="610" />
              <mxPoint x="220" y="590" />
              <mxPoint x="472" y="590" />
            </Array>
          </mxGeometry>
        </mxCell>
        <mxCell id="ViOdjnc2dOPWLxb6ljfD-0" value="&lt;div style=&quot;font-family: &amp;#34;consolas&amp;#34; , &amp;#34;courier new&amp;#34; , monospace ; font-size: 14px ; line-height: 19px&quot;&gt;[()]&lt;/div&gt;" style="text;html=1;strokeColor=#b85450;fillColor=#f8cecc;align=center;verticalAlign=middle;whiteSpace=wrap;rounded=0;labelBackgroundColor=#ffffff;" parent="4BLHH8YOLV8moSBKQeZn-1" vertex="1">
          <mxGeometry x="80" y="610" width="120" height="20" as="geometry" />
        </mxCell>
        <mxCell id="ViOdjnc2dOPWLxb6ljfD-1" value="&lt;div style=&quot;font-family: &amp;#34;consolas&amp;#34; , &amp;#34;courier new&amp;#34; , monospace ; font-size: 14px ; line-height: 19px&quot;&gt;input&lt;/div&gt;" style="text;html=1;align=center;verticalAlign=middle;whiteSpace=wrap;rounded=0;labelBackgroundColor=#ffffff;fillColor=#f5f5f5;strokeColor=#666666;fontColor=#333333;" parent="4BLHH8YOLV8moSBKQeZn-1" vertex="1">
          <mxGeometry x="80" y="590" width="120" height="20" as="geometry" />
        </mxCell>
        <mxCell id="ViOdjnc2dOPWLxb6ljfD-7" value="" style="edgeStyle=orthogonalEdgeStyle;rounded=0;orthogonalLoop=1;jettySize=auto;html=1;fontColor=#000000;" parent="4BLHH8YOLV8moSBKQeZn-1" source="ViOdjnc2dOPWLxb6ljfD-2" target="ViOdjnc2dOPWLxb6ljfD-6" edge="1">
          <mxGeometry relative="1" as="geometry">
            <Array as="points">
              <mxPoint x="385" y="690" />
              <mxPoint x="235" y="690" />
            </Array>
          </mxGeometry>
        </mxCell>
        <mxCell id="ViOdjnc2dOPWLxb6ljfD-12" value="" style="edgeStyle=orthogonalEdgeStyle;rounded=0;orthogonalLoop=1;jettySize=auto;html=1;fontColor=#000000;exitX=0.5;exitY=1;exitDx=0;exitDy=0;" parent="4BLHH8YOLV8moSBKQeZn-1" source="ViOdjnc2dOPWLxb6ljfD-2" target="ViOdjnc2dOPWLxb6ljfD-11" edge="1">
          <mxGeometry relative="1" as="geometry">
            <Array as="points">
              <mxPoint x="385" y="690" />
              <mxPoint x="600" y="690" />
            </Array>
          </mxGeometry>
        </mxCell>
        <mxCell id="ViOdjnc2dOPWLxb6ljfD-2" value="&lt;div style=&quot;font-family: &amp;#34;consolas&amp;#34; , &amp;#34;courier new&amp;#34; , monospace ; font-size: 14px ; line-height: 19px&quot;&gt;&lt;span style=&quot;font-family: &amp;#34;lucida sans&amp;#34; , &amp;#34;monaco&amp;#34; , &amp;#34;bitstream vera sans mono&amp;#34; , &amp;#34;lucida console&amp;#34; , &amp;#34;terminal&amp;#34; ; font-size: 13px ; font-weight: 700 ; text-align: left ; background-color: rgb(240 , 240 , 240)&quot;&gt;multi-bracket-validation(input)&lt;/span&gt;&lt;br&gt;&lt;/div&gt;" style="text;html=1;strokeColor=#b85450;fillColor=#f8cecc;align=center;verticalAlign=middle;whiteSpace=wrap;rounded=0;labelBackgroundColor=#ffffff;" parent="4BLHH8YOLV8moSBKQeZn-1" vertex="1">
          <mxGeometry x="280" y="610" width="210" height="20" as="geometry" />
        </mxCell>
        <mxCell id="ViOdjnc2dOPWLxb6ljfD-5" value="&lt;div style=&quot;font-family: &amp;#34;consolas&amp;#34; , &amp;#34;courier new&amp;#34; , monospace ; font-size: 14px ; line-height: 19px&quot;&gt;calling the function&lt;/div&gt;" style="text;html=1;align=center;verticalAlign=middle;whiteSpace=wrap;rounded=0;labelBackgroundColor=#ffffff;fillColor=#f5f5f5;strokeColor=#666666;fontColor=#333333;" parent="4BLHH8YOLV8moSBKQeZn-1" vertex="1">
          <mxGeometry x="280" y="570" width="170" height="20" as="geometry" />
        </mxCell>
        <mxCell id="ViOdjnc2dOPWLxb6ljfD-6" value="&lt;div style=&quot;font-family: &amp;#34;consolas&amp;#34; , &amp;#34;courier new&amp;#34; , monospace ; font-size: 14px ; line-height: 19px&quot;&gt;&lt;span style=&quot;font-family: &amp;#34;lucida sans&amp;#34; , &amp;#34;monaco&amp;#34; , &amp;#34;bitstream vera sans mono&amp;#34; , &amp;#34;lucida console&amp;#34; , &amp;#34;terminal&amp;#34; ; font-size: 13px ; font-weight: 700 ; text-align: left ; background-color: rgb(240 , 240 , 240)&quot;&gt;return true&lt;/span&gt;&lt;br&gt;&lt;/div&gt;" style="text;html=1;strokeColor=#b85450;fillColor=#f8cecc;align=center;verticalAlign=middle;whiteSpace=wrap;rounded=0;labelBackgroundColor=#ffffff;" parent="4BLHH8YOLV8moSBKQeZn-1" vertex="1">
          <mxGeometry x="140" y="750" width="210" height="20" as="geometry" />
        </mxCell>
        <mxCell id="ViOdjnc2dOPWLxb6ljfD-8" value="&lt;div style=&quot;font-family: &amp;#34;consolas&amp;#34; , &amp;#34;courier new&amp;#34; , monospace ; font-size: 14px ; line-height: 19px&quot;&gt;Checking the input&lt;/div&gt;" style="text;html=1;align=center;verticalAlign=middle;whiteSpace=wrap;rounded=0;labelBackgroundColor=#ffffff;fillColor=#f5f5f5;strokeColor=#666666;fontColor=#333333;" parent="4BLHH8YOLV8moSBKQeZn-1" vertex="1">
          <mxGeometry x="310" y="660" width="150" height="20" as="geometry" />
        </mxCell>
        <mxCell id="ViOdjnc2dOPWLxb6ljfD-11" value="&lt;div style=&quot;font-family: &amp;#34;consolas&amp;#34; , &amp;#34;courier new&amp;#34; , monospace ; font-size: 14px ; line-height: 19px&quot;&gt;&lt;span style=&quot;font-family: &amp;#34;lucida sans&amp;#34; , &amp;#34;monaco&amp;#34; , &amp;#34;bitstream vera sans mono&amp;#34; , &amp;#34;lucida console&amp;#34; , &amp;#34;terminal&amp;#34; ; font-size: 13px ; font-weight: 700 ; text-align: left ; background-color: rgb(240 , 240 , 240)&quot;&gt;return false&lt;/span&gt;&lt;br&gt;&lt;/div&gt;" style="text;html=1;strokeColor=#b85450;fillColor=#f8cecc;align=center;verticalAlign=middle;whiteSpace=wrap;rounded=0;labelBackgroundColor=#ffffff;" parent="4BLHH8YOLV8moSBKQeZn-1" vertex="1">
          <mxGeometry x="450" y="750" width="210" height="20" as="geometry" />
        </mxCell>
        <mxCell id="ViOdjnc2dOPWLxb6ljfD-13" value="&lt;div style=&quot;font-family: &amp;#34;consolas&amp;#34; , &amp;#34;courier new&amp;#34; , monospace ; font-size: 14px ; line-height: 19px&quot;&gt;if it has a balancing brackets&lt;/div&gt;" style="text;html=1;align=center;verticalAlign=middle;whiteSpace=wrap;rounded=0;labelBackgroundColor=#ffffff;fillColor=#f5f5f5;strokeColor=#666666;fontColor=#333333;" parent="4BLHH8YOLV8moSBKQeZn-1" vertex="1">
          <mxGeometry x="122.5" y="710" width="245" height="20" as="geometry" />
        </mxCell>
        <mxCell id="ViOdjnc2dOPWLxb6ljfD-17" value="&lt;div style=&quot;font-family: &amp;#34;consolas&amp;#34; , &amp;#34;courier new&amp;#34; , monospace ; font-size: 14px ; line-height: 19px&quot;&gt;if it not has a balancing brackets&lt;/div&gt;" style="text;html=1;align=center;verticalAlign=middle;whiteSpace=wrap;rounded=0;labelBackgroundColor=#ffffff;fillColor=#f5f5f5;strokeColor=#666666;fontColor=#333333;" parent="4BLHH8YOLV8moSBKQeZn-1" vertex="1">
          <mxGeometry x="440" y="710" width="270" height="20" as="geometry" />
        </mxCell>
      </root>
    </mxGraphModel>
  </diagram>
  <diagram id="_IT5KHdIN2ZicFkv1sMz" name="Page-6">
    <mxGraphModel dx="2482" dy="1546" grid="1" gridSize="10" guides="1" tooltips="1" connect="1" arrows="1" fold="1" page="1" pageScale="1" pageWidth="850" pageHeight="1100" math="0" shadow="0">
      <root>
        <mxCell id="BTasvzO9ZSOpunAXszIT-0" />
        <mxCell id="BTasvzO9ZSOpunAXszIT-1" parent="BTasvzO9ZSOpunAXszIT-0" />
        <mxCell id="-67QUFg0tbPF7iZqwwQD-0" value="&lt;font style=&quot;font-size: 36px&quot;&gt;Tic-Tac-Toe&lt;/font&gt;" style="swimlane;html=1;startSize=60;horizontal=1;containerType=tree;" parent="BTasvzO9ZSOpunAXszIT-1" vertex="1">
          <mxGeometry x="-1590" y="-1060" width="1810" height="1170" as="geometry" />
        </mxCell>
        <mxCell id="-67QUFg0tbPF7iZqwwQD-99" value="" style="startArrow=oval;endArrow=none;segment=10;strokeWidth=6;endFill=0;startFill=1;" parent="-67QUFg0tbPF7iZqwwQD-0" target="-67QUFg0tbPF7iZqwwQD-100" edge="1">
          <mxGeometry relative="1" as="geometry">
            <mxPoint x="419" y="440" as="sourcePoint" />
          </mxGeometry>
        </mxCell>
        <mxCell id="-67QUFg0tbPF7iZqwwQD-97" value="" style="startArrow=oval;endArrow=none;segment=10;strokeWidth=6;endFill=0;startFill=1;" parent="-67QUFg0tbPF7iZqwwQD-0" target="-67QUFg0tbPF7iZqwwQD-98" edge="1">
          <mxGeometry relative="1" as="geometry">
            <mxPoint x="455" y="444.5" as="sourcePoint" />
          </mxGeometry>
        </mxCell>
        <mxCell id="-67QUFg0tbPF7iZqwwQD-95" value="" style="startArrow=oval;endArrow=none;segment=10;strokeWidth=6;endFill=0;startFill=1;" parent="-67QUFg0tbPF7iZqwwQD-0" target="-67QUFg0tbPF7iZqwwQD-96" edge="1">
          <mxGeometry relative="1" as="geometry">
            <mxPoint x="490" y="450" as="sourcePoint" />
          </mxGeometry>
        </mxCell>
        <mxCell id="-67QUFg0tbPF7iZqwwQD-4" value="&lt;span style=&quot;font-size: 24px&quot;&gt;tic-tac-toe.js&lt;/span&gt;" style="whiteSpace=wrap;html=1;treeFolding=1;treeMoving=1;newEdgeStyle={&quot;edgeStyle&quot;:&quot;elbowEdgeStyle&quot;,&quot;startArrow&quot;:&quot;none&quot;,&quot;endArrow&quot;:&quot;none&quot;};" parent="-67QUFg0tbPF7iZqwwQD-0" vertex="1">
          <mxGeometry x="290" y="444.5" width="240" height="80" as="geometry" />
        </mxCell>
        <mxCell id="-67QUFg0tbPF7iZqwwQD-5" value="" style="edgeStyle=elbowEdgeStyle;rounded=0;orthogonalLoop=1;jettySize=auto;html=1;elbow=horizontal;startArrow=none;endArrow=none;" parent="-67QUFg0tbPF7iZqwwQD-0" source="-67QUFg0tbPF7iZqwwQD-4" target="-67QUFg0tbPF7iZqwwQD-6" edge="1">
          <mxGeometry relative="1" as="geometry" />
        </mxCell>
        <mxCell id="-67QUFg0tbPF7iZqwwQD-69" style="edgeStyle=orthogonalEdgeStyle;rounded=0;orthogonalLoop=1;jettySize=auto;html=1;entryX=0.5;entryY=0;entryDx=0;entryDy=0;endArrow=none;endFill=0;" parent="-67QUFg0tbPF7iZqwwQD-0" source="-67QUFg0tbPF7iZqwwQD-6" target="-67QUFg0tbPF7iZqwwQD-67" edge="1">
          <mxGeometry relative="1" as="geometry" />
        </mxCell>
        <mxCell id="-67QUFg0tbPF7iZqwwQD-70" style="edgeStyle=orthogonalEdgeStyle;rounded=0;orthogonalLoop=1;jettySize=auto;html=1;exitX=0.5;exitY=1;exitDx=0;exitDy=0;entryX=0.5;entryY=0;entryDx=0;entryDy=0;endArrow=none;endFill=0;" parent="-67QUFg0tbPF7iZqwwQD-0" source="-67QUFg0tbPF7iZqwwQD-6" target="-67QUFg0tbPF7iZqwwQD-66" edge="1">
          <mxGeometry relative="1" as="geometry" />
        </mxCell>
        <mxCell id="-67QUFg0tbPF7iZqwwQD-71" style="edgeStyle=orthogonalEdgeStyle;rounded=0;orthogonalLoop=1;jettySize=auto;html=1;exitX=0.5;exitY=1;exitDx=0;exitDy=0;entryX=0.5;entryY=0;entryDx=0;entryDy=0;endArrow=none;endFill=0;" parent="-67QUFg0tbPF7iZqwwQD-0" source="-67QUFg0tbPF7iZqwwQD-6" target="-67QUFg0tbPF7iZqwwQD-68" edge="1">
          <mxGeometry relative="1" as="geometry" />
        </mxCell>
        <mxCell id="-67QUFg0tbPF7iZqwwQD-6" value="&lt;span style=&quot;font-size: 24px&quot;&gt;public&lt;/span&gt;" style="whiteSpace=wrap;html=1;treeFolding=1;treeMoving=1;newEdgeStyle={&quot;edgeStyle&quot;:&quot;elbowEdgeStyle&quot;,&quot;startArrow&quot;:&quot;none&quot;,&quot;endArrow&quot;:&quot;none&quot;};" parent="-67QUFg0tbPF7iZqwwQD-0" vertex="1">
          <mxGeometry x="760" y="444.5" width="240" height="80" as="geometry" />
        </mxCell>
        <mxCell id="-67QUFg0tbPF7iZqwwQD-7" value="" style="edgeStyle=elbowEdgeStyle;rounded=0;orthogonalLoop=1;jettySize=auto;html=1;elbow=horizontal;startArrow=none;endArrow=none;" parent="-67QUFg0tbPF7iZqwwQD-0" source="-67QUFg0tbPF7iZqwwQD-6" target="-67QUFg0tbPF7iZqwwQD-8" edge="1">
          <mxGeometry relative="1" as="geometry">
            <mxPoint x="340" y="294.5000000000002" as="sourcePoint" />
          </mxGeometry>
        </mxCell>
        <mxCell id="-67QUFg0tbPF7iZqwwQD-8" value="&lt;span style=&quot;font-size: 24px&quot;&gt;models&lt;/span&gt;" style="whiteSpace=wrap;html=1;treeFolding=1;treeMoving=1;newEdgeStyle={&quot;edgeStyle&quot;:&quot;elbowEdgeStyle&quot;,&quot;startArrow&quot;:&quot;none&quot;,&quot;endArrow&quot;:&quot;none&quot;};" parent="-67QUFg0tbPF7iZqwwQD-0" vertex="1">
          <mxGeometry x="1350" y="444.5" width="240" height="80" as="geometry" />
        </mxCell>
        <mxCell id="-67QUFg0tbPF7iZqwwQD-9" value="" style="edgeStyle=elbowEdgeStyle;rounded=0;orthogonalLoop=1;jettySize=auto;html=1;elbow=horizontal;startArrow=none;endArrow=none;" parent="-67QUFg0tbPF7iZqwwQD-0" source="-67QUFg0tbPF7iZqwwQD-8" target="-67QUFg0tbPF7iZqwwQD-10" edge="1">
          <mxGeometry relative="1" as="geometry">
            <mxPoint x="360" y="324.5000000000002" as="sourcePoint" />
          </mxGeometry>
        </mxCell>
        <mxCell id="-67QUFg0tbPF7iZqwwQD-76" style="edgeStyle=orthogonalEdgeStyle;rounded=0;orthogonalLoop=1;jettySize=auto;html=1;exitX=0.5;exitY=1;exitDx=0;exitDy=0;entryX=0.425;entryY=1.038;entryDx=0;entryDy=0;entryPerimeter=0;endArrow=classic;endFill=1;fillColor=#ffe6cc;strokeColor=#d79b00;strokeWidth=6;" parent="-67QUFg0tbPF7iZqwwQD-0" source="-67QUFg0tbPF7iZqwwQD-10" target="-67QUFg0tbPF7iZqwwQD-4" edge="1">
          <mxGeometry relative="1" as="geometry" />
        </mxCell>
        <mxCell id="-67QUFg0tbPF7iZqwwQD-10" value="&lt;span style=&quot;font-size: 24px&quot;&gt;game.js&lt;/span&gt;" style="whiteSpace=wrap;html=1;treeFolding=1;treeMoving=1;newEdgeStyle={&quot;edgeStyle&quot;:&quot;elbowEdgeStyle&quot;,&quot;startArrow&quot;:&quot;none&quot;,&quot;endArrow&quot;:&quot;none&quot;};" parent="-67QUFg0tbPF7iZqwwQD-0" vertex="1">
          <mxGeometry x="1230" y="644.5" width="240" height="80" as="geometry" />
        </mxCell>
        <mxCell id="-67QUFg0tbPF7iZqwwQD-11" value="" style="edgeStyle=elbowEdgeStyle;rounded=0;orthogonalLoop=1;jettySize=auto;html=1;elbow=horizontal;startArrow=none;endArrow=none;" parent="-67QUFg0tbPF7iZqwwQD-0" source="-67QUFg0tbPF7iZqwwQD-8" target="-67QUFg0tbPF7iZqwwQD-12" edge="1">
          <mxGeometry relative="1" as="geometry">
            <mxPoint x="655" y="364.5000000000002" as="sourcePoint" />
          </mxGeometry>
        </mxCell>
        <mxCell id="-67QUFg0tbPF7iZqwwQD-77" style="edgeStyle=orthogonalEdgeStyle;rounded=0;orthogonalLoop=1;jettySize=auto;html=1;exitX=0.5;exitY=1;exitDx=0;exitDy=0;entryX=0.75;entryY=1;entryDx=0;entryDy=0;endArrow=classic;endFill=1;strokeWidth=6;fillColor=#f8cecc;strokeColor=#b85450;" parent="-67QUFg0tbPF7iZqwwQD-0" source="-67QUFg0tbPF7iZqwwQD-12" target="-67QUFg0tbPF7iZqwwQD-10" edge="1">
          <mxGeometry relative="1" as="geometry">
            <Array as="points">
              <mxPoint x="1610" y="774.5" />
              <mxPoint x="1410" y="774.5" />
            </Array>
          </mxGeometry>
        </mxCell>
        <mxCell id="-67QUFg0tbPF7iZqwwQD-12" value="&lt;span style=&quot;font-size: 24px&quot;&gt;player.js&lt;/span&gt;" style="whiteSpace=wrap;html=1;treeFolding=1;treeMoving=1;newEdgeStyle={&quot;edgeStyle&quot;:&quot;elbowEdgeStyle&quot;,&quot;startArrow&quot;:&quot;none&quot;,&quot;endArrow&quot;:&quot;none&quot;};" parent="-67QUFg0tbPF7iZqwwQD-0" vertex="1">
          <mxGeometry x="1490" y="644.5" width="240" height="80" as="geometry" />
        </mxCell>
        <mxCell id="-67QUFg0tbPF7iZqwwQD-66" value="&lt;span style=&quot;font-size: 24px&quot;&gt;style&lt;/span&gt;" style="whiteSpace=wrap;html=1;treeFolding=1;treeMoving=1;newEdgeStyle={&quot;edgeStyle&quot;:&quot;elbowEdgeStyle&quot;,&quot;startArrow&quot;:&quot;none&quot;,&quot;endArrow&quot;:&quot;none&quot;};" parent="-67QUFg0tbPF7iZqwwQD-0" vertex="1">
          <mxGeometry x="710" y="644.5" width="240" height="80" as="geometry" />
        </mxCell>
        <mxCell id="-67QUFg0tbPF7iZqwwQD-67" value="&lt;span style=&quot;font-size: 24px&quot;&gt;js&lt;/span&gt;" style="whiteSpace=wrap;html=1;treeFolding=1;treeMoving=1;newEdgeStyle={&quot;edgeStyle&quot;:&quot;elbowEdgeStyle&quot;,&quot;startArrow&quot;:&quot;none&quot;,&quot;endArrow&quot;:&quot;none&quot;};" parent="-67QUFg0tbPF7iZqwwQD-0" vertex="1">
          <mxGeometry x="970" y="644.5" width="240" height="80" as="geometry" />
        </mxCell>
        <mxCell id="-67QUFg0tbPF7iZqwwQD-78" style="edgeStyle=orthogonalEdgeStyle;rounded=0;orthogonalLoop=1;jettySize=auto;html=1;entryX=0.419;entryY=1.004;entryDx=0;entryDy=0;entryPerimeter=0;endArrow=classic;endFill=1;strokeWidth=6;fillColor=#d5e8d4;strokeColor=#82b366;" parent="-67QUFg0tbPF7iZqwwQD-0" source="-67QUFg0tbPF7iZqwwQD-68" target="-67QUFg0tbPF7iZqwwQD-75" edge="1">
          <mxGeometry relative="1" as="geometry">
            <Array as="points">
              <mxPoint x="580" y="754.5" />
              <mxPoint x="835" y="754.5" />
              <mxPoint x="835" y="884.5" />
              <mxPoint x="1071" y="884.5" />
            </Array>
          </mxGeometry>
        </mxCell>
        <mxCell id="-67QUFg0tbPF7iZqwwQD-68" value="&lt;span style=&quot;font-size: 24px&quot;&gt;index.html&lt;/span&gt;" style="whiteSpace=wrap;html=1;treeFolding=1;treeMoving=1;newEdgeStyle={&quot;edgeStyle&quot;:&quot;elbowEdgeStyle&quot;,&quot;startArrow&quot;:&quot;none&quot;,&quot;endArrow&quot;:&quot;none&quot;};" parent="-67QUFg0tbPF7iZqwwQD-0" vertex="1">
          <mxGeometry x="460" y="644.5" width="240" height="80" as="geometry" />
        </mxCell>
        <mxCell id="-67QUFg0tbPF7iZqwwQD-72" style="edgeStyle=orthogonalEdgeStyle;rounded=0;orthogonalLoop=1;jettySize=auto;html=1;exitX=0.5;exitY=1;exitDx=0;exitDy=0;entryX=0.5;entryY=0;entryDx=0;entryDy=0;endArrow=none;endFill=0;" parent="-67QUFg0tbPF7iZqwwQD-0" source="-67QUFg0tbPF7iZqwwQD-66" target="-67QUFg0tbPF7iZqwwQD-73" edge="1">
          <mxGeometry relative="1" as="geometry">
            <mxPoint x="-480" y="-295.5" as="sourcePoint" />
          </mxGeometry>
        </mxCell>
        <mxCell id="-67QUFg0tbPF7iZqwwQD-79" style="edgeStyle=orthogonalEdgeStyle;rounded=0;orthogonalLoop=1;jettySize=auto;html=1;entryX=0.75;entryY=1;entryDx=0;entryDy=0;endArrow=classic;endFill=1;strokeWidth=6;fillColor=#dae8fc;strokeColor=#6c8ebf;" parent="-67QUFg0tbPF7iZqwwQD-0" source="-67QUFg0tbPF7iZqwwQD-73" target="-67QUFg0tbPF7iZqwwQD-68" edge="1">
          <mxGeometry relative="1" as="geometry" />
        </mxCell>
        <mxCell id="-67QUFg0tbPF7iZqwwQD-73" value="&lt;span style=&quot;font-size: 24px&quot;&gt;game.css&lt;/span&gt;" style="whiteSpace=wrap;html=1;treeFolding=1;treeMoving=1;newEdgeStyle={&quot;edgeStyle&quot;:&quot;elbowEdgeStyle&quot;,&quot;startArrow&quot;:&quot;none&quot;,&quot;endArrow&quot;:&quot;none&quot;};" parent="-67QUFg0tbPF7iZqwwQD-0" vertex="1">
          <mxGeometry x="710" y="764.5" width="240" height="80" as="geometry" />
        </mxCell>
        <mxCell id="-67QUFg0tbPF7iZqwwQD-74" style="edgeStyle=orthogonalEdgeStyle;rounded=0;orthogonalLoop=1;jettySize=auto;html=1;entryX=0.5;entryY=0;entryDx=0;entryDy=0;endArrow=none;endFill=0;" parent="-67QUFg0tbPF7iZqwwQD-0" source="-67QUFg0tbPF7iZqwwQD-67" target="-67QUFg0tbPF7iZqwwQD-75" edge="1">
          <mxGeometry relative="1" as="geometry">
            <mxPoint x="-480" y="-295.5" as="sourcePoint" />
          </mxGeometry>
        </mxCell>
        <mxCell id="-67QUFg0tbPF7iZqwwQD-81" style="edgeStyle=orthogonalEdgeStyle;rounded=1;orthogonalLoop=1;jettySize=auto;html=1;exitX=0.75;exitY=1;exitDx=0;exitDy=0;entryX=0;entryY=0.25;entryDx=0;entryDy=0;startArrow=none;startFill=0;endArrow=classicThin;endFill=1;strokeWidth=6;fillColor=#6a00ff;strokeColor=#3700CC;" parent="-67QUFg0tbPF7iZqwwQD-0" source="-67QUFg0tbPF7iZqwwQD-75" target="-67QUFg0tbPF7iZqwwQD-4" edge="1">
          <mxGeometry relative="1" as="geometry">
            <Array as="points">
              <mxPoint x="1150" y="914.5" />
              <mxPoint x="230" y="914.5" />
              <mxPoint x="230" y="464.5" />
            </Array>
          </mxGeometry>
        </mxCell>
        <mxCell id="-67QUFg0tbPF7iZqwwQD-83" value="&lt;font style=&quot;font-size: 24px&quot;&gt;When click new game&lt;/font&gt;" style="edgeLabel;html=1;align=center;verticalAlign=middle;resizable=0;points=[];" parent="-67QUFg0tbPF7iZqwwQD-81" vertex="1" connectable="0">
          <mxGeometry x="0.0756" y="3" relative="1" as="geometry">
            <mxPoint as="offset" />
          </mxGeometry>
        </mxCell>
        <mxCell id="-67QUFg0tbPF7iZqwwQD-84" value="&lt;font style=&quot;font-size: 24px&quot;&gt;emit join&lt;/font&gt;" style="edgeLabel;html=1;align=center;verticalAlign=middle;resizable=0;points=[];" parent="-67QUFg0tbPF7iZqwwQD-81" vertex="1" connectable="0">
          <mxGeometry x="0.6791" y="-3" relative="1" as="geometry">
            <mxPoint y="1" as="offset" />
          </mxGeometry>
        </mxCell>
        <mxCell id="-67QUFg0tbPF7iZqwwQD-85" style="edgeStyle=orthogonalEdgeStyle;rounded=1;orthogonalLoop=1;jettySize=auto;html=1;exitX=1;exitY=1;exitDx=0;exitDy=0;entryX=0;entryY=0.75;entryDx=0;entryDy=0;startArrow=none;startFill=0;endArrow=classicThin;endFill=1;strokeWidth=6;fillColor=#0050ef;strokeColor=#001DBC;" parent="-67QUFg0tbPF7iZqwwQD-0" source="-67QUFg0tbPF7iZqwwQD-75" target="-67QUFg0tbPF7iZqwwQD-4" edge="1">
          <mxGeometry relative="1" as="geometry">
            <Array as="points">
              <mxPoint x="1210" y="1004.5" />
              <mxPoint x="130" y="1004.5" />
              <mxPoint x="130" y="504.5" />
            </Array>
          </mxGeometry>
        </mxCell>
        <mxCell id="-67QUFg0tbPF7iZqwwQD-86" value="&lt;font style=&quot;font-size: 24px&quot;&gt;When click join&lt;/font&gt;" style="edgeLabel;html=1;align=center;verticalAlign=middle;resizable=0;points=[];" parent="-67QUFg0tbPF7iZqwwQD-85" vertex="1" connectable="0">
          <mxGeometry x="-0.0193" y="1" relative="1" as="geometry">
            <mxPoint as="offset" />
          </mxGeometry>
        </mxCell>
        <mxCell id="-67QUFg0tbPF7iZqwwQD-87" value="&lt;font style=&quot;font-size: 24px&quot;&gt;emit newJoin&lt;/font&gt;" style="edgeLabel;html=1;align=center;verticalAlign=middle;resizable=0;points=[];" parent="-67QUFg0tbPF7iZqwwQD-85" vertex="1" connectable="0">
          <mxGeometry x="0.5407" y="-3" relative="1" as="geometry">
            <mxPoint as="offset" />
          </mxGeometry>
        </mxCell>
        <mxCell id="-67QUFg0tbPF7iZqwwQD-75" value="&lt;span style=&quot;font-size: 24px&quot;&gt;app.js&lt;/span&gt;" style="whiteSpace=wrap;html=1;treeFolding=1;treeMoving=1;newEdgeStyle={&quot;edgeStyle&quot;:&quot;elbowEdgeStyle&quot;,&quot;startArrow&quot;:&quot;none&quot;,&quot;endArrow&quot;:&quot;none&quot;};" parent="-67QUFg0tbPF7iZqwwQD-0" vertex="1">
          <mxGeometry x="970" y="764.5" width="240" height="80" as="geometry" />
        </mxCell>
        <mxCell id="-67QUFg0tbPF7iZqwwQD-88" value="&lt;font style=&quot;font-size: 18px&quot;&gt;express&lt;/font&gt;" style="whiteSpace=wrap;html=1;rounded=1;arcSize=50;align=center;verticalAlign=middle;strokeWidth=1;autosize=1;spacing=4;treeFolding=1;treeMoving=1;newEdgeStyle={&quot;edgeStyle&quot;:&quot;entityRelationEdgeStyle&quot;,&quot;startArrow&quot;:&quot;none&quot;,&quot;endArrow&quot;:&quot;none&quot;,&quot;segment&quot;:10,&quot;curved&quot;:1};" parent="-67QUFg0tbPF7iZqwwQD-0" vertex="1">
          <mxGeometry x="470" y="350" width="100" height="30" as="geometry" />
        </mxCell>
        <mxCell id="-67QUFg0tbPF7iZqwwQD-89" value="" style="startArrow=oval;endArrow=none;segment=10;strokeWidth=6;exitX=0.944;exitY=-0.019;exitDx=0;exitDy=0;endFill=0;startFill=1;exitPerimeter=0;" parent="-67QUFg0tbPF7iZqwwQD-0" source="-67QUFg0tbPF7iZqwwQD-4" target="-67QUFg0tbPF7iZqwwQD-88" edge="1">
          <mxGeometry relative="1" as="geometry">
            <mxPoint x="470" y="400" as="sourcePoint" />
          </mxGeometry>
        </mxCell>
        <mxCell id="-67QUFg0tbPF7iZqwwQD-96" value="&lt;font style=&quot;font-size: 18px&quot;&gt;socket.io&lt;/font&gt;" style="whiteSpace=wrap;html=1;rounded=1;arcSize=50;align=center;verticalAlign=middle;strokeWidth=1;autosize=1;spacing=4;treeFolding=1;treeMoving=1;newEdgeStyle={&quot;edgeStyle&quot;:&quot;entityRelationEdgeStyle&quot;,&quot;startArrow&quot;:&quot;none&quot;,&quot;endArrow&quot;:&quot;none&quot;,&quot;segment&quot;:10,&quot;curved&quot;:1};" parent="-67QUFg0tbPF7iZqwwQD-0" vertex="1">
          <mxGeometry x="435" y="310" width="110" height="30" as="geometry" />
        </mxCell>
        <mxCell id="-67QUFg0tbPF7iZqwwQD-98" value="&lt;font style=&quot;font-size: 18px&quot;&gt;path&lt;/font&gt;" style="whiteSpace=wrap;html=1;rounded=1;arcSize=50;align=center;verticalAlign=middle;strokeWidth=1;autosize=1;spacing=4;treeFolding=1;treeMoving=1;newEdgeStyle={&quot;edgeStyle&quot;:&quot;entityRelationEdgeStyle&quot;,&quot;startArrow&quot;:&quot;none&quot;,&quot;endArrow&quot;:&quot;none&quot;,&quot;segment&quot;:10,&quot;curved&quot;:1};" parent="-67QUFg0tbPF7iZqwwQD-0" vertex="1">
          <mxGeometry x="415" y="260" width="80" height="30" as="geometry" />
        </mxCell>
        <mxCell id="-67QUFg0tbPF7iZqwwQD-100" value="&lt;span style=&quot;font-size: 18px&quot;&gt;faker&lt;/span&gt;" style="whiteSpace=wrap;html=1;rounded=1;arcSize=50;align=center;verticalAlign=middle;strokeWidth=1;autosize=1;spacing=4;treeFolding=1;treeMoving=1;newEdgeStyle={&quot;edgeStyle&quot;:&quot;entityRelationEdgeStyle&quot;,&quot;startArrow&quot;:&quot;none&quot;,&quot;endArrow&quot;:&quot;none&quot;,&quot;segment&quot;:10,&quot;curved&quot;:1};" parent="-67QUFg0tbPF7iZqwwQD-0" vertex="1">
          <mxGeometry x="380" y="220" width="80" height="30" as="geometry" />
        </mxCell>
      </root>
    </mxGraphModel>
  </diagram>
  <diagram id="jHGQswNM5GwM_FsXA4WY" name="Page-7">
    <mxGraphModel dx="1038" dy="556" grid="1" gridSize="10" guides="1" tooltips="1" connect="1" arrows="1" fold="1" page="1" pageScale="1" pageWidth="850" pageHeight="1100" math="0" shadow="0">
      <root>
        <mxCell id="HOP-ScFovKSqr-WXv0jn-0" />
        <mxCell id="HOP-ScFovKSqr-WXv0jn-1" parent="HOP-ScFovKSqr-WXv0jn-0" />
        <mxCell id="BM2getVKQ_TVfGSTFNml-12" style="edgeStyle=orthogonalEdgeStyle;rounded=0;orthogonalLoop=1;jettySize=auto;html=1;exitX=1;exitY=0.5;exitDx=0;exitDy=0;entryX=0.909;entryY=-0.033;entryDx=0;entryDy=0;fontColor=#000000;strokeWidth=3;fillColor=#d5e8d4;strokeColor=#82b366;entryPerimeter=0;" parent="HOP-ScFovKSqr-WXv0jn-1" source="BM2getVKQ_TVfGSTFNml-13" target="BM2getVKQ_TVfGSTFNml-22" edge="1">
          <mxGeometry relative="1" as="geometry">
            <Array as="points">
              <mxPoint x="350" y="150" />
              <mxPoint x="350" y="80" />
              <mxPoint x="586" y="80" />
            </Array>
          </mxGeometry>
        </mxCell>
        <mxCell id="BM2getVKQ_TVfGSTFNml-26" value="input to the function" style="edgeLabel;html=1;align=center;verticalAlign=middle;resizable=0;points=[];fontSize=19;" parent="BM2getVKQ_TVfGSTFNml-12" vertex="1" connectable="0">
          <mxGeometry x="-0.0749" y="-1" relative="1" as="geometry">
            <mxPoint x="79" as="offset" />
          </mxGeometry>
        </mxCell>
        <mxCell id="BM2getVKQ_TVfGSTFNml-13" value="&lt;div style=&quot;line-height: 19px; font-size: 16px;&quot;&gt;&lt;font face=&quot;consolas, courier new, monospace&quot; style=&quot;font-size: 16px;&quot;&gt;&lt;span style=&quot;font-size: 16px;&quot;&gt;[ 11, 33, 150, 55, 99, 17 ]&lt;/span&gt;&lt;/font&gt;&lt;br style=&quot;font-size: 16px;&quot;&gt;&lt;/div&gt;" style="text;html=1;strokeColor=#b85450;fillColor=#f8cecc;align=center;verticalAlign=middle;whiteSpace=wrap;rounded=0;labelBackgroundColor=#ffffff;fontSize=16;fontStyle=1" parent="HOP-ScFovKSqr-WXv0jn-1" vertex="1">
          <mxGeometry x="40" y="120" width="240" height="60" as="geometry" />
        </mxCell>
        <mxCell id="BM2getVKQ_TVfGSTFNml-16" style="edgeStyle=orthogonalEdgeStyle;rounded=0;orthogonalLoop=1;jettySize=auto;html=1;exitX=0.5;exitY=1;exitDx=0;exitDy=0;fontColor=#000000;" parent="HOP-ScFovKSqr-WXv0jn-1" edge="1">
          <mxGeometry relative="1" as="geometry">
            <mxPoint x="230" y="240" as="sourcePoint" />
            <mxPoint x="230" y="240" as="targetPoint" />
          </mxGeometry>
        </mxCell>
        <mxCell id="BM2getVKQ_TVfGSTFNml-21" value="" style="edgeStyle=orthogonalEdgeStyle;rounded=0;orthogonalLoop=1;jettySize=auto;html=1;fontColor=#000000;strokeWidth=3;fillColor=#fff2cc;strokeColor=#d6b656;" parent="HOP-ScFovKSqr-WXv0jn-1" source="BM2getVKQ_TVfGSTFNml-22" target="BM2getVKQ_TVfGSTFNml-23" edge="1">
          <mxGeometry relative="1" as="geometry" />
        </mxCell>
        <mxCell id="BM2getVKQ_TVfGSTFNml-27" value="output" style="edgeLabel;html=1;align=center;verticalAlign=middle;resizable=0;points=[];fontSize=19;" parent="BM2getVKQ_TVfGSTFNml-21" vertex="1" connectable="0">
          <mxGeometry x="0.3389" y="-3" relative="1" as="geometry">
            <mxPoint as="offset" />
          </mxGeometry>
        </mxCell>
        <mxCell id="BM2getVKQ_TVfGSTFNml-22" value="&lt;div style=&quot;font-family: consolas, &amp;quot;courier new&amp;quot;, monospace; font-size: 19px; line-height: 19px;&quot;&gt;FizzBuzzTree()&lt;/div&gt;" style="text;html=1;strokeColor=#b85450;fillColor=#f8cecc;align=center;verticalAlign=middle;whiteSpace=wrap;rounded=0;labelBackgroundColor=#ffffff;fontSize=19;fontStyle=1" parent="HOP-ScFovKSqr-WXv0jn-1" vertex="1">
          <mxGeometry x="450" y="130" width="150" height="30" as="geometry" />
        </mxCell>
        <mxCell id="BM2getVKQ_TVfGSTFNml-23" value="&lt;div style=&quot;font-family: consolas, &amp;quot;courier new&amp;quot;, monospace; font-size: 19px; line-height: 19px;&quot;&gt;&amp;nbsp;[ &#39;11&#39;, &#39;Fizz&#39;, &#39;FizzBuzz&#39;, &#39;Buzz&#39;, &#39;Fizz&#39;, &#39;17&#39; ]&lt;/div&gt;" style="text;html=1;strokeColor=#b85450;fillColor=#f8cecc;align=center;verticalAlign=middle;whiteSpace=wrap;rounded=0;labelBackgroundColor=#ffffff;fontSize=19;fontStyle=1" parent="HOP-ScFovKSqr-WXv0jn-1" vertex="1">
          <mxGeometry x="65" y="240" width="600" height="70" as="geometry" />
        </mxCell>
      </root>
    </mxGraphModel>
  </diagram>
  <diagram id="dv6NMA4z22CCGCjntCZN" name="Page-8">
    <mxGraphModel dx="2595" dy="1390" grid="1" gridSize="10" guides="1" tooltips="1" connect="1" arrows="1" fold="1" page="1" pageScale="1" pageWidth="850" pageHeight="1100" math="0" shadow="0">
      <root>
        <mxCell id="6RpNOk1f9Xx-PYP9BeDW-0" />
        <mxCell id="6RpNOk1f9Xx-PYP9BeDW-1" parent="6RpNOk1f9Xx-PYP9BeDW-0" />
        <mxCell id="W4Rgs_SAz9mybFwT8A3h-0" value="&lt;font style=&quot;font-size: 36px&quot;&gt;Swapo&lt;/font&gt;" style="swimlane;html=1;startSize=50;horizontal=1;containerType=tree;" parent="6RpNOk1f9Xx-PYP9BeDW-1" vertex="1">
          <mxGeometry x="40" y="20" width="1650" height="770" as="geometry" />
        </mxCell>
        <mxCell id="W4Rgs_SAz9mybFwT8A3h-1" value="&lt;span style=&quot;font-size: 24px&quot;&gt;src&lt;/span&gt;" style="whiteSpace=wrap;html=1;treeFolding=1;treeMoving=1;newEdgeStyle={&quot;edgeStyle&quot;:&quot;elbowEdgeStyle&quot;,&quot;startArrow&quot;:&quot;none&quot;,&quot;endArrow&quot;:&quot;none&quot;};" parent="W4Rgs_SAz9mybFwT8A3h-0" vertex="1">
          <mxGeometry x="440" y="140" width="120" height="40" as="geometry" />
        </mxCell>
        <mxCell id="W4Rgs_SAz9mybFwT8A3h-2" value="" style="edgeStyle=elbowEdgeStyle;rounded=0;orthogonalLoop=1;jettySize=auto;html=1;elbow=horizontal;startArrow=none;endArrow=none;" parent="W4Rgs_SAz9mybFwT8A3h-0" source="W4Rgs_SAz9mybFwT8A3h-1" target="W4Rgs_SAz9mybFwT8A3h-3" edge="1">
          <mxGeometry relative="1" as="geometry" />
        </mxCell>
        <mxCell id="W4Rgs_SAz9mybFwT8A3h-3" value="&lt;span style=&quot;font-size: 24px&quot;&gt;index.js&lt;/span&gt;" style="whiteSpace=wrap;html=1;treeFolding=1;treeMoving=1;newEdgeStyle={&quot;edgeStyle&quot;:&quot;elbowEdgeStyle&quot;,&quot;startArrow&quot;:&quot;none&quot;,&quot;endArrow&quot;:&quot;none&quot;};" parent="W4Rgs_SAz9mybFwT8A3h-0" vertex="1">
          <mxGeometry x="160" y="140" width="120" height="40" as="geometry" />
        </mxCell>
        <mxCell id="W4Rgs_SAz9mybFwT8A3h-4" value="" style="edgeStyle=elbowEdgeStyle;rounded=0;orthogonalLoop=1;jettySize=auto;html=1;elbow=vertical;startArrow=none;endArrow=none;" parent="W4Rgs_SAz9mybFwT8A3h-0" target="W4Rgs_SAz9mybFwT8A3h-5" edge="1">
          <mxGeometry relative="1" as="geometry">
            <mxPoint x="500" y="180" as="sourcePoint" />
            <Array as="points">
              <mxPoint x="450" y="200" />
              <mxPoint x="470" y="210" />
            </Array>
          </mxGeometry>
        </mxCell>
        <mxCell id="W4Rgs_SAz9mybFwT8A3h-5" value="&lt;span style=&quot;font-size: 24px&quot;&gt;auth&lt;/span&gt;" style="whiteSpace=wrap;html=1;treeFolding=1;treeMoving=1;newEdgeStyle={&quot;edgeStyle&quot;:&quot;elbowEdgeStyle&quot;,&quot;startArrow&quot;:&quot;none&quot;,&quot;endArrow&quot;:&quot;none&quot;};" parent="W4Rgs_SAz9mybFwT8A3h-0" vertex="1">
          <mxGeometry x="270" y="240" width="120" height="40" as="geometry" />
        </mxCell>
        <mxCell id="W4Rgs_SAz9mybFwT8A3h-6" value="" style="edgeStyle=elbowEdgeStyle;rounded=0;orthogonalLoop=1;jettySize=auto;html=1;elbow=vertical;startArrow=none;endArrow=none;" parent="W4Rgs_SAz9mybFwT8A3h-0" target="W4Rgs_SAz9mybFwT8A3h-7" edge="1">
          <mxGeometry relative="1" as="geometry">
            <mxPoint x="500" y="180" as="sourcePoint" />
          </mxGeometry>
        </mxCell>
        <mxCell id="W4Rgs_SAz9mybFwT8A3h-7" value="&lt;span style=&quot;font-size: 24px&quot;&gt;error-handlers&lt;/span&gt;" style="whiteSpace=wrap;html=1;treeFolding=1;treeMoving=1;newEdgeStyle={&quot;edgeStyle&quot;:&quot;elbowEdgeStyle&quot;,&quot;startArrow&quot;:&quot;none&quot;,&quot;endArrow&quot;:&quot;none&quot;};" parent="W4Rgs_SAz9mybFwT8A3h-0" vertex="1">
          <mxGeometry x="480" y="230" width="130" height="50" as="geometry" />
        </mxCell>
        <mxCell id="W4Rgs_SAz9mybFwT8A3h-8" value="" style="edgeStyle=elbowEdgeStyle;rounded=0;orthogonalLoop=1;jettySize=auto;html=1;elbow=vertical;startArrow=none;endArrow=none;" parent="W4Rgs_SAz9mybFwT8A3h-0" target="W4Rgs_SAz9mybFwT8A3h-9" edge="1">
          <mxGeometry relative="1" as="geometry">
            <mxPoint x="500" y="180" as="sourcePoint" />
          </mxGeometry>
        </mxCell>
        <mxCell id="W4Rgs_SAz9mybFwT8A3h-9" value="&lt;span style=&quot;font-size: 24px&quot;&gt;models&lt;/span&gt;" style="whiteSpace=wrap;html=1;treeFolding=1;treeMoving=1;newEdgeStyle={&quot;edgeStyle&quot;:&quot;elbowEdgeStyle&quot;,&quot;startArrow&quot;:&quot;none&quot;,&quot;endArrow&quot;:&quot;none&quot;};" parent="W4Rgs_SAz9mybFwT8A3h-0" vertex="1">
          <mxGeometry x="830" y="230" width="130" height="50" as="geometry" />
        </mxCell>
        <mxCell id="W4Rgs_SAz9mybFwT8A3h-10" value="" style="edgeStyle=elbowEdgeStyle;rounded=0;orthogonalLoop=1;jettySize=auto;html=1;elbow=vertical;startArrow=none;endArrow=none;" parent="W4Rgs_SAz9mybFwT8A3h-0" target="W4Rgs_SAz9mybFwT8A3h-11" edge="1">
          <mxGeometry relative="1" as="geometry">
            <mxPoint x="500" y="180" as="sourcePoint" />
            <Array as="points">
              <mxPoint x="1150" y="205" />
            </Array>
          </mxGeometry>
        </mxCell>
        <mxCell id="W4Rgs_SAz9mybFwT8A3h-11" value="&lt;span style=&quot;font-size: 24px&quot;&gt;routes&lt;/span&gt;" style="whiteSpace=wrap;html=1;treeFolding=1;treeMoving=1;newEdgeStyle={&quot;edgeStyle&quot;:&quot;elbowEdgeStyle&quot;,&quot;startArrow&quot;:&quot;none&quot;,&quot;endArrow&quot;:&quot;none&quot;};" parent="W4Rgs_SAz9mybFwT8A3h-0" vertex="1">
          <mxGeometry x="1120" y="230" width="130" height="50" as="geometry" />
        </mxCell>
        <mxCell id="W4Rgs_SAz9mybFwT8A3h-12" value="" style="edgeStyle=elbowEdgeStyle;rounded=0;orthogonalLoop=1;jettySize=auto;html=1;elbow=vertical;startArrow=none;endArrow=none;entryX=0.5;entryY=0;entryDx=0;entryDy=0;" parent="W4Rgs_SAz9mybFwT8A3h-0" target="W4Rgs_SAz9mybFwT8A3h-14" edge="1">
          <mxGeometry relative="1" as="geometry">
            <mxPoint x="500" y="180" as="sourcePoint" />
            <mxPoint x="1175" y="230" as="targetPoint" />
          </mxGeometry>
        </mxCell>
        <mxCell id="W4Rgs_SAz9mybFwT8A3h-14" value="&lt;span style=&quot;font-size: 24px&quot;&gt;server.js&lt;/span&gt;" style="whiteSpace=wrap;html=1;treeFolding=1;treeMoving=1;newEdgeStyle={&quot;edgeStyle&quot;:&quot;elbowEdgeStyle&quot;,&quot;startArrow&quot;:&quot;none&quot;,&quot;endArrow&quot;:&quot;none&quot;};" parent="W4Rgs_SAz9mybFwT8A3h-0" vertex="1">
          <mxGeometry x="1420" y="230" width="130" height="50" as="geometry" />
        </mxCell>
        <mxCell id="W4Rgs_SAz9mybFwT8A3h-15" value="" style="edgeStyle=elbowEdgeStyle;rounded=0;orthogonalLoop=1;jettySize=auto;html=1;elbow=vertical;startArrow=none;endArrow=none;" parent="W4Rgs_SAz9mybFwT8A3h-0" source="W4Rgs_SAz9mybFwT8A3h-7" target="W4Rgs_SAz9mybFwT8A3h-17" edge="1">
          <mxGeometry relative="1" as="geometry">
            <mxPoint x="770" y="220" as="sourcePoint" />
          </mxGeometry>
        </mxCell>
        <mxCell id="W4Rgs_SAz9mybFwT8A3h-17" value="&lt;span style=&quot;font-size: 24px&quot;&gt;404.js&lt;/span&gt;" style="whiteSpace=wrap;html=1;treeFolding=1;treeMoving=1;newEdgeStyle={&quot;edgeStyle&quot;:&quot;elbowEdgeStyle&quot;,&quot;startArrow&quot;:&quot;none&quot;,&quot;endArrow&quot;:&quot;none&quot;};" parent="W4Rgs_SAz9mybFwT8A3h-0" vertex="1">
          <mxGeometry x="410" y="320" width="130" height="50" as="geometry" />
        </mxCell>
        <mxCell id="W4Rgs_SAz9mybFwT8A3h-18" value="" style="edgeStyle=elbowEdgeStyle;rounded=0;orthogonalLoop=1;jettySize=auto;html=1;elbow=vertical;startArrow=none;endArrow=none;" parent="W4Rgs_SAz9mybFwT8A3h-0" source="W4Rgs_SAz9mybFwT8A3h-7" target="W4Rgs_SAz9mybFwT8A3h-20" edge="1">
          <mxGeometry relative="1" as="geometry">
            <mxPoint x="615" y="320" as="sourcePoint" />
          </mxGeometry>
        </mxCell>
        <mxCell id="W4Rgs_SAz9mybFwT8A3h-20" value="&lt;span style=&quot;font-size: 24px&quot;&gt;500.js&lt;/span&gt;" style="whiteSpace=wrap;html=1;treeFolding=1;treeMoving=1;newEdgeStyle={&quot;edgeStyle&quot;:&quot;elbowEdgeStyle&quot;,&quot;startArrow&quot;:&quot;none&quot;,&quot;endArrow&quot;:&quot;none&quot;};" parent="W4Rgs_SAz9mybFwT8A3h-0" vertex="1">
          <mxGeometry x="550" y="320" width="130" height="50" as="geometry" />
        </mxCell>
        <mxCell id="W4Rgs_SAz9mybFwT8A3h-39" value="" style="edgeStyle=elbowEdgeStyle;rounded=0;orthogonalLoop=1;jettySize=auto;html=1;elbow=vertical;startArrow=none;endArrow=none;" parent="W4Rgs_SAz9mybFwT8A3h-0" source="W4Rgs_SAz9mybFwT8A3h-5" target="W4Rgs_SAz9mybFwT8A3h-40" edge="1">
          <mxGeometry relative="1" as="geometry">
            <mxPoint x="530" y="220" as="sourcePoint" />
          </mxGeometry>
        </mxCell>
        <mxCell id="W4Rgs_SAz9mybFwT8A3h-40" value="&lt;span style=&quot;font-size: 24px&quot;&gt;models&lt;/span&gt;" style="whiteSpace=wrap;html=1;treeFolding=1;treeMoving=1;newEdgeStyle={&quot;edgeStyle&quot;:&quot;elbowEdgeStyle&quot;,&quot;startArrow&quot;:&quot;none&quot;,&quot;endArrow&quot;:&quot;none&quot;};" parent="W4Rgs_SAz9mybFwT8A3h-0" vertex="1">
          <mxGeometry x="260" y="415" width="140" height="40" as="geometry" />
        </mxCell>
        <mxCell id="W4Rgs_SAz9mybFwT8A3h-41" value="" style="edgeStyle=elbowEdgeStyle;rounded=0;orthogonalLoop=1;jettySize=auto;html=1;elbow=vertical;startArrow=none;endArrow=none;" parent="W4Rgs_SAz9mybFwT8A3h-0" source="W4Rgs_SAz9mybFwT8A3h-5" target="W4Rgs_SAz9mybFwT8A3h-42" edge="1">
          <mxGeometry relative="1" as="geometry">
            <mxPoint x="360" y="320" as="sourcePoint" />
            <Array as="points">
              <mxPoint x="430" y="380" />
              <mxPoint x="330" y="350" />
              <mxPoint x="380" y="390" />
            </Array>
          </mxGeometry>
        </mxCell>
        <mxCell id="W4Rgs_SAz9mybFwT8A3h-42" value="&lt;span style=&quot;font-size: 24px&quot;&gt;middleware&lt;/span&gt;" style="whiteSpace=wrap;html=1;treeFolding=1;treeMoving=1;newEdgeStyle={&quot;edgeStyle&quot;:&quot;elbowEdgeStyle&quot;,&quot;startArrow&quot;:&quot;none&quot;,&quot;endArrow&quot;:&quot;none&quot;};" parent="W4Rgs_SAz9mybFwT8A3h-0" vertex="1">
          <mxGeometry x="450" y="420" width="140" height="40" as="geometry" />
        </mxCell>
        <mxCell id="W4Rgs_SAz9mybFwT8A3h-43" value="" style="edgeStyle=elbowEdgeStyle;rounded=0;orthogonalLoop=1;jettySize=auto;html=1;elbow=vertical;startArrow=none;endArrow=none;" parent="W4Rgs_SAz9mybFwT8A3h-0" source="W4Rgs_SAz9mybFwT8A3h-5" target="W4Rgs_SAz9mybFwT8A3h-45" edge="1">
          <mxGeometry relative="1" as="geometry">
            <mxPoint x="360" y="320" as="sourcePoint" />
          </mxGeometry>
        </mxCell>
        <mxCell id="W4Rgs_SAz9mybFwT8A3h-45" value="&lt;span style=&quot;font-size: 24px&quot;&gt;routes.js&lt;/span&gt;" style="whiteSpace=wrap;html=1;treeFolding=1;treeMoving=1;newEdgeStyle={&quot;edgeStyle&quot;:&quot;elbowEdgeStyle&quot;,&quot;startArrow&quot;:&quot;none&quot;,&quot;endArrow&quot;:&quot;none&quot;};" parent="W4Rgs_SAz9mybFwT8A3h-0" vertex="1">
          <mxGeometry x="160" y="520" width="140" height="40" as="geometry" />
        </mxCell>
        <mxCell id="W4Rgs_SAz9mybFwT8A3h-46" value="" style="edgeStyle=elbowEdgeStyle;rounded=0;orthogonalLoop=1;jettySize=auto;html=1;elbow=vertical;startArrow=none;endArrow=none;" parent="W4Rgs_SAz9mybFwT8A3h-0" source="W4Rgs_SAz9mybFwT8A3h-40" target="W4Rgs_SAz9mybFwT8A3h-50" edge="1">
          <mxGeometry relative="1" as="geometry">
            <mxPoint x="360" y="320" as="sourcePoint" />
          </mxGeometry>
        </mxCell>
        <mxCell id="W4Rgs_SAz9mybFwT8A3h-50" value="&lt;span style=&quot;font-size: 24px&quot;&gt;users.js&lt;/span&gt;" style="whiteSpace=wrap;html=1;treeFolding=1;treeMoving=1;newEdgeStyle={&quot;edgeStyle&quot;:&quot;elbowEdgeStyle&quot;,&quot;startArrow&quot;:&quot;none&quot;,&quot;endArrow&quot;:&quot;none&quot;};" parent="W4Rgs_SAz9mybFwT8A3h-0" vertex="1">
          <mxGeometry x="260" y="470" width="140" height="40" as="geometry" />
        </mxCell>
        <mxCell id="W4Rgs_SAz9mybFwT8A3h-51" value="" style="edgeStyle=elbowEdgeStyle;rounded=0;orthogonalLoop=1;jettySize=auto;html=1;elbow=vertical;startArrow=none;endArrow=none;" parent="W4Rgs_SAz9mybFwT8A3h-0" source="W4Rgs_SAz9mybFwT8A3h-42" target="W4Rgs_SAz9mybFwT8A3h-54" edge="1">
          <mxGeometry relative="1" as="geometry">
            <mxPoint x="360" y="320" as="sourcePoint" />
            <Array as="points">
              <mxPoint x="460" y="420" />
              <mxPoint x="360" y="390" />
              <mxPoint x="410" y="430" />
            </Array>
          </mxGeometry>
        </mxCell>
        <mxCell id="W4Rgs_SAz9mybFwT8A3h-54" value="&lt;span style=&quot;font-size: 24px&quot;&gt;acl.js&lt;/span&gt;" style="whiteSpace=wrap;html=1;treeFolding=1;treeMoving=1;newEdgeStyle={&quot;edgeStyle&quot;:&quot;elbowEdgeStyle&quot;,&quot;startArrow&quot;:&quot;none&quot;,&quot;endArrow&quot;:&quot;none&quot;};" parent="W4Rgs_SAz9mybFwT8A3h-0" vertex="1">
          <mxGeometry x="450" y="500" width="140" height="40" as="geometry" />
        </mxCell>
        <mxCell id="W4Rgs_SAz9mybFwT8A3h-55" value="" style="edgeStyle=elbowEdgeStyle;rounded=0;orthogonalLoop=1;jettySize=auto;html=1;elbow=vertical;startArrow=none;endArrow=none;" parent="W4Rgs_SAz9mybFwT8A3h-0" source="W4Rgs_SAz9mybFwT8A3h-42" target="W4Rgs_SAz9mybFwT8A3h-58" edge="1">
          <mxGeometry relative="1" as="geometry">
            <mxPoint x="550" y="500" as="sourcePoint" />
            <Array as="points">
              <mxPoint x="620" y="470" />
              <mxPoint x="490" y="460" />
              <mxPoint x="390" y="430" />
              <mxPoint x="440" y="470" />
            </Array>
          </mxGeometry>
        </mxCell>
        <mxCell id="W4Rgs_SAz9mybFwT8A3h-58" value="&lt;span style=&quot;font-size: 24px&quot;&gt;basic.js&lt;/span&gt;" style="whiteSpace=wrap;html=1;treeFolding=1;treeMoving=1;newEdgeStyle={&quot;edgeStyle&quot;:&quot;elbowEdgeStyle&quot;,&quot;startArrow&quot;:&quot;none&quot;,&quot;endArrow&quot;:&quot;none&quot;};" parent="W4Rgs_SAz9mybFwT8A3h-0" vertex="1">
          <mxGeometry x="600" y="500" width="140" height="40" as="geometry" />
        </mxCell>
        <mxCell id="W4Rgs_SAz9mybFwT8A3h-59" value="" style="edgeStyle=elbowEdgeStyle;rounded=0;orthogonalLoop=1;jettySize=auto;html=1;elbow=vertical;startArrow=none;endArrow=none;" parent="W4Rgs_SAz9mybFwT8A3h-0" source="W4Rgs_SAz9mybFwT8A3h-42" target="W4Rgs_SAz9mybFwT8A3h-62" edge="1">
          <mxGeometry relative="1" as="geometry">
            <mxPoint x="550" y="500" as="sourcePoint" />
            <Array as="points">
              <mxPoint x="430" y="480" />
              <mxPoint x="490" y="460" />
              <mxPoint x="390" y="430" />
              <mxPoint x="440" y="470" />
            </Array>
          </mxGeometry>
        </mxCell>
        <mxCell id="W4Rgs_SAz9mybFwT8A3h-62" value="&lt;span style=&quot;font-size: 24px&quot;&gt;bearer.js&lt;/span&gt;" style="whiteSpace=wrap;html=1;treeFolding=1;treeMoving=1;newEdgeStyle={&quot;edgeStyle&quot;:&quot;elbowEdgeStyle&quot;,&quot;startArrow&quot;:&quot;none&quot;,&quot;endArrow&quot;:&quot;none&quot;};" parent="W4Rgs_SAz9mybFwT8A3h-0" vertex="1">
          <mxGeometry x="350" y="550" width="140" height="40" as="geometry" />
        </mxCell>
      </root>
    </mxGraphModel>
  </diagram>
  <diagram id="U89RW9-d2H4NsOkIxfkB" name="Page-9">
    <mxGraphModel dx="1730" dy="927" grid="1" gridSize="10" guides="1" tooltips="1" connect="1" arrows="1" fold="1" page="1" pageScale="1" pageWidth="850" pageHeight="1100" math="0" shadow="0">
      <root>
        <mxCell id="PEYSemtNIQrYbBwELN8K-0" />
        <mxCell id="PEYSemtNIQrYbBwELN8K-1" parent="PEYSemtNIQrYbBwELN8K-0" />
        <mxCell id="2t-u03q7Y-VP6JwDvtWf-0" value="&lt;font style=&quot;font-size: 36px&quot;&gt;Swapo&lt;/font&gt;" style="swimlane;html=1;startSize=50;horizontal=1;containerType=tree;" vertex="1" parent="PEYSemtNIQrYbBwELN8K-1">
          <mxGeometry x="40" y="20" width="1320" height="770" as="geometry" />
        </mxCell>
        <mxCell id="2t-u03q7Y-VP6JwDvtWf-36" value="users" style="shape=table;startSize=30;container=1;collapsible=1;childLayout=tableLayout;fixedRows=1;rowLines=0;fontStyle=1;align=center;resizeLast=1;" vertex="1" parent="2t-u03q7Y-VP6JwDvtWf-0">
          <mxGeometry x="70" y="120" width="260" height="290" as="geometry" />
        </mxCell>
        <mxCell id="2t-u03q7Y-VP6JwDvtWf-37" value="" style="shape=partialRectangle;collapsible=0;dropTarget=0;pointerEvents=0;fillColor=none;top=0;left=0;bottom=1;right=0;points=[[0,0.5],[1,0.5]];portConstraint=eastwest;" vertex="1" parent="2t-u03q7Y-VP6JwDvtWf-36">
          <mxGeometry y="30" width="260" height="30" as="geometry" />
        </mxCell>
        <mxCell id="2t-u03q7Y-VP6JwDvtWf-38" value="PK" style="shape=partialRectangle;connectable=0;fillColor=none;top=0;left=0;bottom=0;right=0;fontStyle=1;overflow=hidden;" vertex="1" parent="2t-u03q7Y-VP6JwDvtWf-37">
          <mxGeometry width="30" height="30" as="geometry" />
        </mxCell>
        <mxCell id="2t-u03q7Y-VP6JwDvtWf-39" value="UniqueID" style="shape=partialRectangle;connectable=0;fillColor=none;top=0;left=0;bottom=0;right=0;align=left;spacingLeft=6;fontStyle=5;overflow=hidden;" vertex="1" parent="2t-u03q7Y-VP6JwDvtWf-37">
          <mxGeometry x="30" width="230" height="30" as="geometry" />
        </mxCell>
        <mxCell id="2t-u03q7Y-VP6JwDvtWf-40" value="" style="shape=partialRectangle;collapsible=0;dropTarget=0;pointerEvents=0;fillColor=none;top=0;left=0;bottom=0;right=0;points=[[0,0.5],[1,0.5]];portConstraint=eastwest;" vertex="1" parent="2t-u03q7Y-VP6JwDvtWf-36">
          <mxGeometry y="60" width="260" height="30" as="geometry" />
        </mxCell>
        <mxCell id="2t-u03q7Y-VP6JwDvtWf-41" value="" style="shape=partialRectangle;connectable=0;fillColor=none;top=0;left=0;bottom=0;right=0;editable=1;overflow=hidden;" vertex="1" parent="2t-u03q7Y-VP6JwDvtWf-40">
          <mxGeometry width="30" height="30" as="geometry" />
        </mxCell>
        <mxCell id="2t-u03q7Y-VP6JwDvtWf-42" value="name" style="shape=partialRectangle;connectable=0;fillColor=none;top=0;left=0;bottom=0;right=0;align=left;spacingLeft=6;overflow=hidden;" vertex="1" parent="2t-u03q7Y-VP6JwDvtWf-40">
          <mxGeometry x="30" width="230" height="30" as="geometry" />
        </mxCell>
        <mxCell id="2t-u03q7Y-VP6JwDvtWf-43" value="" style="shape=partialRectangle;collapsible=0;dropTarget=0;pointerEvents=0;fillColor=none;top=0;left=0;bottom=0;right=0;points=[[0,0.5],[1,0.5]];portConstraint=eastwest;" vertex="1" parent="2t-u03q7Y-VP6JwDvtWf-36">
          <mxGeometry y="90" width="260" height="30" as="geometry" />
        </mxCell>
        <mxCell id="2t-u03q7Y-VP6JwDvtWf-44" value="" style="shape=partialRectangle;connectable=0;fillColor=none;top=0;left=0;bottom=0;right=0;editable=1;overflow=hidden;" vertex="1" parent="2t-u03q7Y-VP6JwDvtWf-43">
          <mxGeometry width="30" height="30" as="geometry" />
        </mxCell>
        <mxCell id="2t-u03q7Y-VP6JwDvtWf-45" value="username" style="shape=partialRectangle;connectable=0;fillColor=none;top=0;left=0;bottom=0;right=0;align=left;spacingLeft=6;overflow=hidden;" vertex="1" parent="2t-u03q7Y-VP6JwDvtWf-43">
          <mxGeometry x="30" width="230" height="30" as="geometry" />
        </mxCell>
        <mxCell id="2t-u03q7Y-VP6JwDvtWf-46" value="" style="shape=partialRectangle;collapsible=0;dropTarget=0;pointerEvents=0;fillColor=none;top=0;left=0;bottom=0;right=0;points=[[0,0.5],[1,0.5]];portConstraint=eastwest;" vertex="1" parent="2t-u03q7Y-VP6JwDvtWf-36">
          <mxGeometry y="120" width="260" height="30" as="geometry" />
        </mxCell>
        <mxCell id="2t-u03q7Y-VP6JwDvtWf-47" value="" style="shape=partialRectangle;connectable=0;fillColor=none;top=0;left=0;bottom=0;right=0;editable=1;overflow=hidden;" vertex="1" parent="2t-u03q7Y-VP6JwDvtWf-46">
          <mxGeometry width="30" height="30" as="geometry" />
        </mxCell>
        <mxCell id="2t-u03q7Y-VP6JwDvtWf-48" value="pass" style="shape=partialRectangle;connectable=0;fillColor=none;top=0;left=0;bottom=0;right=0;align=left;spacingLeft=6;overflow=hidden;" vertex="1" parent="2t-u03q7Y-VP6JwDvtWf-46">
          <mxGeometry x="30" width="230" height="30" as="geometry" />
        </mxCell>
        <mxCell id="2t-u03q7Y-VP6JwDvtWf-49" value="" style="shape=partialRectangle;collapsible=0;dropTarget=0;pointerEvents=0;fillColor=none;top=0;left=0;bottom=0;right=0;points=[[0,0.5],[1,0.5]];portConstraint=eastwest;" vertex="1" parent="2t-u03q7Y-VP6JwDvtWf-36">
          <mxGeometry y="150" width="260" height="30" as="geometry" />
        </mxCell>
        <mxCell id="2t-u03q7Y-VP6JwDvtWf-50" value="" style="shape=partialRectangle;connectable=0;fillColor=none;top=0;left=0;bottom=0;right=0;editable=1;overflow=hidden;" vertex="1" parent="2t-u03q7Y-VP6JwDvtWf-49">
          <mxGeometry width="30" height="30" as="geometry" />
        </mxCell>
        <mxCell id="2t-u03q7Y-VP6JwDvtWf-51" value="token" style="shape=partialRectangle;connectable=0;fillColor=none;top=0;left=0;bottom=0;right=0;align=left;spacingLeft=6;overflow=hidden;" vertex="1" parent="2t-u03q7Y-VP6JwDvtWf-49">
          <mxGeometry x="30" width="230" height="30" as="geometry" />
        </mxCell>
        <mxCell id="2t-u03q7Y-VP6JwDvtWf-55" value="" style="shape=partialRectangle;collapsible=0;dropTarget=0;pointerEvents=0;fillColor=none;top=0;left=0;bottom=0;right=0;points=[[0,0.5],[1,0.5]];portConstraint=eastwest;" vertex="1" parent="2t-u03q7Y-VP6JwDvtWf-36">
          <mxGeometry y="180" width="260" height="30" as="geometry" />
        </mxCell>
        <mxCell id="2t-u03q7Y-VP6JwDvtWf-56" value="" style="shape=partialRectangle;connectable=0;fillColor=none;top=0;left=0;bottom=0;right=0;editable=1;overflow=hidden;" vertex="1" parent="2t-u03q7Y-VP6JwDvtWf-55">
          <mxGeometry width="30" height="30" as="geometry" />
        </mxCell>
        <mxCell id="2t-u03q7Y-VP6JwDvtWf-57" value="service" style="shape=partialRectangle;connectable=0;fillColor=none;top=0;left=0;bottom=0;right=0;align=left;spacingLeft=6;overflow=hidden;" vertex="1" parent="2t-u03q7Y-VP6JwDvtWf-55">
          <mxGeometry x="30" width="230" height="30" as="geometry" />
        </mxCell>
        <mxCell id="2t-u03q7Y-VP6JwDvtWf-52" value="" style="shape=partialRectangle;collapsible=0;dropTarget=0;pointerEvents=0;fillColor=none;top=0;left=0;bottom=0;right=0;points=[[0,0.5],[1,0.5]];portConstraint=eastwest;" vertex="1" parent="2t-u03q7Y-VP6JwDvtWf-36">
          <mxGeometry y="210" width="260" height="30" as="geometry" />
        </mxCell>
        <mxCell id="2t-u03q7Y-VP6JwDvtWf-53" value="" style="shape=partialRectangle;connectable=0;fillColor=none;top=0;left=0;bottom=0;right=0;editable=1;overflow=hidden;" vertex="1" parent="2t-u03q7Y-VP6JwDvtWf-52">
          <mxGeometry width="30" height="30" as="geometry" />
        </mxCell>
        <mxCell id="2t-u03q7Y-VP6JwDvtWf-54" value="experience" style="shape=partialRectangle;connectable=0;fillColor=none;top=0;left=0;bottom=0;right=0;align=left;spacingLeft=6;overflow=hidden;" vertex="1" parent="2t-u03q7Y-VP6JwDvtWf-52">
          <mxGeometry x="30" width="230" height="30" as="geometry" />
        </mxCell>
        <mxCell id="2t-u03q7Y-VP6JwDvtWf-58" value="" style="shape=partialRectangle;collapsible=0;dropTarget=0;pointerEvents=0;fillColor=none;top=0;left=0;bottom=0;right=0;points=[[0,0.5],[1,0.5]];portConstraint=eastwest;" vertex="1" parent="2t-u03q7Y-VP6JwDvtWf-36">
          <mxGeometry y="240" width="260" height="30" as="geometry" />
        </mxCell>
        <mxCell id="2t-u03q7Y-VP6JwDvtWf-59" value="" style="shape=partialRectangle;connectable=0;fillColor=none;top=0;left=0;bottom=0;right=0;editable=1;overflow=hidden;" vertex="1" parent="2t-u03q7Y-VP6JwDvtWf-58">
          <mxGeometry width="30" height="30" as="geometry" />
        </mxCell>
        <mxCell id="2t-u03q7Y-VP6JwDvtWf-60" value="discerption" style="shape=partialRectangle;connectable=0;fillColor=none;top=0;left=0;bottom=0;right=0;align=left;spacingLeft=6;overflow=hidden;" vertex="1" parent="2t-u03q7Y-VP6JwDvtWf-58">
          <mxGeometry x="30" width="230" height="30" as="geometry" />
        </mxCell>
        <mxCell id="2t-u03q7Y-VP6JwDvtWf-120" value="messages" style="shape=table;startSize=30;container=1;collapsible=1;childLayout=tableLayout;fixedRows=1;rowLines=0;fontStyle=1;align=center;resizeLast=1;" vertex="1" parent="2t-u03q7Y-VP6JwDvtWf-0">
          <mxGeometry x="370" y="120" width="260" height="140" as="geometry" />
        </mxCell>
        <mxCell id="2t-u03q7Y-VP6JwDvtWf-121" value="" style="shape=partialRectangle;collapsible=0;dropTarget=0;pointerEvents=0;fillColor=none;top=0;left=0;bottom=1;right=0;points=[[0,0.5],[1,0.5]];portConstraint=eastwest;" vertex="1" parent="2t-u03q7Y-VP6JwDvtWf-120">
          <mxGeometry y="30" width="260" height="30" as="geometry" />
        </mxCell>
        <mxCell id="2t-u03q7Y-VP6JwDvtWf-122" value="PK" style="shape=partialRectangle;connectable=0;fillColor=none;top=0;left=0;bottom=0;right=0;fontStyle=1;overflow=hidden;" vertex="1" parent="2t-u03q7Y-VP6JwDvtWf-121">
          <mxGeometry width="30" height="30" as="geometry" />
        </mxCell>
        <mxCell id="2t-u03q7Y-VP6JwDvtWf-123" value="UniqueID" style="shape=partialRectangle;connectable=0;fillColor=none;top=0;left=0;bottom=0;right=0;align=left;spacingLeft=6;fontStyle=5;overflow=hidden;" vertex="1" parent="2t-u03q7Y-VP6JwDvtWf-121">
          <mxGeometry x="30" width="230" height="30" as="geometry" />
        </mxCell>
        <mxCell id="2t-u03q7Y-VP6JwDvtWf-124" value="" style="shape=partialRectangle;collapsible=0;dropTarget=0;pointerEvents=0;fillColor=none;top=0;left=0;bottom=0;right=0;points=[[0,0.5],[1,0.5]];portConstraint=eastwest;" vertex="1" parent="2t-u03q7Y-VP6JwDvtWf-120">
          <mxGeometry y="60" width="260" height="30" as="geometry" />
        </mxCell>
        <mxCell id="2t-u03q7Y-VP6JwDvtWf-125" value="" style="shape=partialRectangle;connectable=0;fillColor=none;top=0;left=0;bottom=0;right=0;editable=1;overflow=hidden;" vertex="1" parent="2t-u03q7Y-VP6JwDvtWf-124">
          <mxGeometry width="30" height="30" as="geometry" />
        </mxCell>
        <mxCell id="2t-u03q7Y-VP6JwDvtWf-126" value="userid" style="shape=partialRectangle;connectable=0;fillColor=none;top=0;left=0;bottom=0;right=0;align=left;spacingLeft=6;overflow=hidden;" vertex="1" parent="2t-u03q7Y-VP6JwDvtWf-124">
          <mxGeometry x="30" width="230" height="30" as="geometry" />
        </mxCell>
        <mxCell id="2t-u03q7Y-VP6JwDvtWf-127" value="" style="shape=partialRectangle;collapsible=0;dropTarget=0;pointerEvents=0;fillColor=none;top=0;left=0;bottom=0;right=0;points=[[0,0.5],[1,0.5]];portConstraint=eastwest;" vertex="1" parent="2t-u03q7Y-VP6JwDvtWf-120">
          <mxGeometry y="90" width="260" height="30" as="geometry" />
        </mxCell>
        <mxCell id="2t-u03q7Y-VP6JwDvtWf-128" value="" style="shape=partialRectangle;connectable=0;fillColor=none;top=0;left=0;bottom=0;right=0;editable=1;overflow=hidden;" vertex="1" parent="2t-u03q7Y-VP6JwDvtWf-127">
          <mxGeometry width="30" height="30" as="geometry" />
        </mxCell>
        <mxCell id="2t-u03q7Y-VP6JwDvtWf-129" value="msg" style="shape=partialRectangle;connectable=0;fillColor=none;top=0;left=0;bottom=0;right=0;align=left;spacingLeft=6;overflow=hidden;" vertex="1" parent="2t-u03q7Y-VP6JwDvtWf-127">
          <mxGeometry x="30" width="230" height="30" as="geometry" />
        </mxCell>
        <mxCell id="2t-u03q7Y-VP6JwDvtWf-173" value="dashboard" style="shape=table;startSize=30;container=1;collapsible=1;childLayout=tableLayout;fixedRows=1;rowLines=0;fontStyle=1;align=center;resizeLast=1;" vertex="1" parent="2t-u03q7Y-VP6JwDvtWf-0">
          <mxGeometry x="670" y="120" width="260" height="170" as="geometry" />
        </mxCell>
        <mxCell id="2t-u03q7Y-VP6JwDvtWf-174" value="" style="shape=partialRectangle;collapsible=0;dropTarget=0;pointerEvents=0;fillColor=none;top=0;left=0;bottom=1;right=0;points=[[0,0.5],[1,0.5]];portConstraint=eastwest;" vertex="1" parent="2t-u03q7Y-VP6JwDvtWf-173">
          <mxGeometry y="30" width="260" height="30" as="geometry" />
        </mxCell>
        <mxCell id="2t-u03q7Y-VP6JwDvtWf-175" value="PK" style="shape=partialRectangle;connectable=0;fillColor=none;top=0;left=0;bottom=0;right=0;fontStyle=1;overflow=hidden;" vertex="1" parent="2t-u03q7Y-VP6JwDvtWf-174">
          <mxGeometry width="30" height="30" as="geometry" />
        </mxCell>
        <mxCell id="2t-u03q7Y-VP6JwDvtWf-176" value="UniqueID" style="shape=partialRectangle;connectable=0;fillColor=none;top=0;left=0;bottom=0;right=0;align=left;spacingLeft=6;fontStyle=5;overflow=hidden;" vertex="1" parent="2t-u03q7Y-VP6JwDvtWf-174">
          <mxGeometry x="30" width="230" height="30" as="geometry" />
        </mxCell>
        <mxCell id="2t-u03q7Y-VP6JwDvtWf-177" value="" style="shape=partialRectangle;collapsible=0;dropTarget=0;pointerEvents=0;fillColor=none;top=0;left=0;bottom=0;right=0;points=[[0,0.5],[1,0.5]];portConstraint=eastwest;" vertex="1" parent="2t-u03q7Y-VP6JwDvtWf-173">
          <mxGeometry y="60" width="260" height="30" as="geometry" />
        </mxCell>
        <mxCell id="2t-u03q7Y-VP6JwDvtWf-178" value="" style="shape=partialRectangle;connectable=0;fillColor=none;top=0;left=0;bottom=0;right=0;editable=1;overflow=hidden;" vertex="1" parent="2t-u03q7Y-VP6JwDvtWf-177">
          <mxGeometry width="30" height="30" as="geometry" />
        </mxCell>
        <mxCell id="2t-u03q7Y-VP6JwDvtWf-179" value="userid" style="shape=partialRectangle;connectable=0;fillColor=none;top=0;left=0;bottom=0;right=0;align=left;spacingLeft=6;overflow=hidden;" vertex="1" parent="2t-u03q7Y-VP6JwDvtWf-177">
          <mxGeometry x="30" width="230" height="30" as="geometry" />
        </mxCell>
        <mxCell id="2t-u03q7Y-VP6JwDvtWf-194" value="" style="shape=partialRectangle;collapsible=0;dropTarget=0;pointerEvents=0;fillColor=none;top=0;left=0;bottom=0;right=0;points=[[0,0.5],[1,0.5]];portConstraint=eastwest;" vertex="1" parent="2t-u03q7Y-VP6JwDvtWf-173">
          <mxGeometry y="90" width="260" height="30" as="geometry" />
        </mxCell>
        <mxCell id="2t-u03q7Y-VP6JwDvtWf-195" value="" style="shape=partialRectangle;connectable=0;fillColor=none;top=0;left=0;bottom=0;right=0;editable=1;overflow=hidden;" vertex="1" parent="2t-u03q7Y-VP6JwDvtWf-194">
          <mxGeometry width="30" height="30" as="geometry" />
        </mxCell>
        <mxCell id="2t-u03q7Y-VP6JwDvtWf-196" value="name [user]" style="shape=partialRectangle;connectable=0;fillColor=none;top=0;left=0;bottom=0;right=0;align=left;spacingLeft=6;overflow=hidden;" vertex="1" parent="2t-u03q7Y-VP6JwDvtWf-194">
          <mxGeometry x="30" width="230" height="30" as="geometry" />
        </mxCell>
        <mxCell id="2t-u03q7Y-VP6JwDvtWf-180" value="" style="shape=partialRectangle;collapsible=0;dropTarget=0;pointerEvents=0;fillColor=none;top=0;left=0;bottom=0;right=0;points=[[0,0.5],[1,0.5]];portConstraint=eastwest;" vertex="1" parent="2t-u03q7Y-VP6JwDvtWf-173">
          <mxGeometry y="120" width="260" height="30" as="geometry" />
        </mxCell>
        <mxCell id="2t-u03q7Y-VP6JwDvtWf-181" value="" style="shape=partialRectangle;connectable=0;fillColor=none;top=0;left=0;bottom=0;right=0;editable=1;overflow=hidden;" vertex="1" parent="2t-u03q7Y-VP6JwDvtWf-180">
          <mxGeometry width="30" height="30" as="geometry" />
        </mxCell>
        <mxCell id="2t-u03q7Y-VP6JwDvtWf-182" value="disc" style="shape=partialRectangle;connectable=0;fillColor=none;top=0;left=0;bottom=0;right=0;align=left;spacingLeft=6;overflow=hidden;" vertex="1" parent="2t-u03q7Y-VP6JwDvtWf-180">
          <mxGeometry x="30" width="230" height="30" as="geometry" />
        </mxCell>
        <mxCell id="2t-u03q7Y-VP6JwDvtWf-184" value="notfications" style="shape=table;startSize=30;container=1;collapsible=1;childLayout=tableLayout;fixedRows=1;rowLines=0;fontStyle=1;align=center;resizeLast=1;" vertex="1" parent="2t-u03q7Y-VP6JwDvtWf-0">
          <mxGeometry x="970" y="120" width="260" height="140" as="geometry" />
        </mxCell>
        <mxCell id="2t-u03q7Y-VP6JwDvtWf-185" value="" style="shape=partialRectangle;collapsible=0;dropTarget=0;pointerEvents=0;fillColor=none;top=0;left=0;bottom=1;right=0;points=[[0,0.5],[1,0.5]];portConstraint=eastwest;" vertex="1" parent="2t-u03q7Y-VP6JwDvtWf-184">
          <mxGeometry y="30" width="260" height="30" as="geometry" />
        </mxCell>
        <mxCell id="2t-u03q7Y-VP6JwDvtWf-186" value="PK" style="shape=partialRectangle;connectable=0;fillColor=none;top=0;left=0;bottom=0;right=0;fontStyle=1;overflow=hidden;" vertex="1" parent="2t-u03q7Y-VP6JwDvtWf-185">
          <mxGeometry width="30" height="30" as="geometry" />
        </mxCell>
        <mxCell id="2t-u03q7Y-VP6JwDvtWf-187" value="UniqueID" style="shape=partialRectangle;connectable=0;fillColor=none;top=0;left=0;bottom=0;right=0;align=left;spacingLeft=6;fontStyle=5;overflow=hidden;" vertex="1" parent="2t-u03q7Y-VP6JwDvtWf-185">
          <mxGeometry x="30" width="230" height="30" as="geometry" />
        </mxCell>
        <mxCell id="2t-u03q7Y-VP6JwDvtWf-188" value="" style="shape=partialRectangle;collapsible=0;dropTarget=0;pointerEvents=0;fillColor=none;top=0;left=0;bottom=0;right=0;points=[[0,0.5],[1,0.5]];portConstraint=eastwest;" vertex="1" parent="2t-u03q7Y-VP6JwDvtWf-184">
          <mxGeometry y="60" width="260" height="30" as="geometry" />
        </mxCell>
        <mxCell id="2t-u03q7Y-VP6JwDvtWf-189" value="" style="shape=partialRectangle;connectable=0;fillColor=none;top=0;left=0;bottom=0;right=0;editable=1;overflow=hidden;" vertex="1" parent="2t-u03q7Y-VP6JwDvtWf-188">
          <mxGeometry width="30" height="30" as="geometry" />
        </mxCell>
        <mxCell id="2t-u03q7Y-VP6JwDvtWf-190" value="userid" style="shape=partialRectangle;connectable=0;fillColor=none;top=0;left=0;bottom=0;right=0;align=left;spacingLeft=6;overflow=hidden;" vertex="1" parent="2t-u03q7Y-VP6JwDvtWf-188">
          <mxGeometry x="30" width="230" height="30" as="geometry" />
        </mxCell>
        <mxCell id="2t-u03q7Y-VP6JwDvtWf-191" value="" style="shape=partialRectangle;collapsible=0;dropTarget=0;pointerEvents=0;fillColor=none;top=0;left=0;bottom=0;right=0;points=[[0,0.5],[1,0.5]];portConstraint=eastwest;" vertex="1" parent="2t-u03q7Y-VP6JwDvtWf-184">
          <mxGeometry y="90" width="260" height="30" as="geometry" />
        </mxCell>
        <mxCell id="2t-u03q7Y-VP6JwDvtWf-192" value="" style="shape=partialRectangle;connectable=0;fillColor=none;top=0;left=0;bottom=0;right=0;editable=1;overflow=hidden;" vertex="1" parent="2t-u03q7Y-VP6JwDvtWf-191">
          <mxGeometry width="30" height="30" as="geometry" />
        </mxCell>
        <mxCell id="2t-u03q7Y-VP6JwDvtWf-193" value="link" style="shape=partialRectangle;connectable=0;fillColor=none;top=0;left=0;bottom=0;right=0;align=left;spacingLeft=6;overflow=hidden;" vertex="1" parent="2t-u03q7Y-VP6JwDvtWf-191">
          <mxGeometry x="30" width="230" height="30" as="geometry" />
        </mxCell>
      </root>
    </mxGraphModel>
  </diagram>
</mxfile>
